SplineFontDB: 3.2
FontName: Pretension-ExtraBold
FullName: Pretension ExtraBold
FamilyName: Pretension ExtraBold
Weight: Heavy
Copyright: Copyright 2016 The Inter Project Authors
Version: 4.000;git-a52131595
ItalicAngle: 0
UnderlinePosition: -325
UnderlineWidth: 221
Ascent: 1638
Descent: 410
InvalidEm: 0
sfntRevision: 0x00040000
LayerCount: 2
Layer: 0 1 "Back" 1
Layer: 1 1 "Fore" 0
XUID: [1021 89 -1234937351 8690619]
StyleMap: 0x0040
FSType: 0
OS2Version: 4
OS2_WeightWidthSlopeOnly: 0
OS2_UseTypoMetrics: 1
CreationTime: 1700438797
ModificationTime: 1707762022
PfmFamily: 17
TTFWeight: 800
TTFWidth: 5
LineGap: 0
VLineGap: 0
Panose: 2 0 5 3 0 0 0 2 0 4
OS2TypoAscent: 1984
OS2TypoAOffset: 0
OS2TypoDescent: -494
OS2TypoDOffset: 0
OS2TypoLinegap: 0
OS2WinAscent: 1984
OS2WinAOffset: 0
OS2WinDescent: 494
OS2WinDOffset: 0
HheadAscent: 1984
HheadAOffset: 0
HheadDescent: -494
HheadDOffset: 0
OS2SubXSize: 1331
OS2SubYSize: 1229
OS2SubXOff: 0
OS2SubYOff: 154
OS2SupXSize: 1331
OS2SupYSize: 1229
OS2SupXOff: 0
OS2SupYOff: 717
OS2StrikeYSize: 221
OS2StrikeYPos: 653
OS2CapHeight: 1490
OS2XHeight: 1087
OS2Vendor: 'RSMS'
OS2CodePages: 0000019f.00000000
OS2UnicodeRanges: e0000aff.5200a1ff.00000021.00000000
Lookup: 1 0 0 "'aalt' Access All Alternates in Latin lookup 0" { "'aalt' Access All Alternates in Latin lookup 0 subtable"  } ['aalt' ('DFLT' <'dflt' > 'latn' <'CAT ' 'MOL ' 'ROM ' 'dflt' > ) ]
Lookup: 3 0 0 "'aalt' Access All Alternates in Latin lookup 1" { "'aalt' Access All Alternates in Latin lookup 1 subtable"  } ['aalt' ('DFLT' <'dflt' > 'latn' <'CAT ' 'MOL ' 'ROM ' 'dflt' > ) ]
Lookup: 1 0 0 "Single Substitution lookup 2" { "Single Substitution lookup 2 subtable"  } []
Lookup: 4 0 0 "'ccmp' Glyph Composition/Decomposition in Latin lookup 3" { "'ccmp' Glyph Composition/Decomposition in Latin lookup 3 subtable"  } ['ccmp' ('DFLT' <'dflt' > 'latn' <'CAT ' 'MOL ' 'ROM ' 'dflt' > ) ]

StartChar: .notdef
Encoding: 1114112 -1 0
Width: 1344
Flags: W
LayerCount: 2
Fore
SplineSet
1016 -416 m 1,0,-1
 328 -416 l 1,1,-1
 328 1856 l 1,2,-1
 1016 1856 l 1,3,-1
 1016 -416 l 1,0,-1
512 -192 m 1,4,-1
 512 -256 l 1,5,-1
 832 -256 l 1,6,-1
 832 -192 l 1,7,-1
 617 -192 l 1,8,-1
 832 -65 l 1,9,-1
 832 0 l 1,10,-1
 512 0 l 1,11,-1
 512 -64 l 1,12,-1
 728 -64 l 1,13,-1
 512 -192 l 1,4,-1
512 320 m 1,14,-1
 512 64 l 1,15,-1
 832 64 l 1,16,-1
 832 320 l 1,17,-1
 512 320 l 1,14,-1
768 128 m 1,18,-1
 576 128 l 1,19,-1
 576 256 l 1,20,-1
 768 256 l 1,21,-1
 768 128 l 1,18,-1
512 704 m 1,22,-1
 512 448 l 1,23,-1
 832 448 l 1,24,-1
 832 704 l 1,25,-1
 640 704 l 1,26,-1
 640 576 l 1,27,-1
 704 576 l 1,28,-1
 704 640 l 1,29,-1
 768 640 l 1,30,-1
 768 512 l 1,31,-1
 576 512 l 1,32,-1
 576 704 l 1,33,-1
 512 704 l 1,22,-1
512 832 m 1,34,-1
 512 768 l 1,35,-1
 832 768 l 1,36,-1
 832 992 l 1,37,-1
 768 992 l 1,38,-1
 768 832 l 1,39,-1
 512 832 l 1,34,-1
512 960 m 1,40,-1
 512 896 l 1,41,-1
 704 896 l 1,42,-1
 704 1056 l 1,43,-1
 832 1056 l 1,44,-1
 832 1120 l 1,45,-1
 512 1120 l 1,46,-1
 512 1056 l 1,47,-1
 640 1056 l 1,48,-1
 640 960 l 1,49,-1
 512 960 l 1,40,-1
640 1248 m 1,50,-1
 576 1248 l 1,51,-1
 576 1344 l 1,52,-1
 640 1344 l 1,53,-1
 640 1248 l 1,50,-1
512 1408 m 1,54,-1
 512 1184 l 1,55,-1
 832 1184 l 1,56,-1
 832 1248 l 1,57,-1
 704 1248 l 1,58,-1
 704 1408 l 1,59,-1
 512 1408 l 1,54,-1
512 1536 m 1,60,-1
 512 1472 l 1,61,-1
 832 1472 l 1,62,-1
 832 1536 l 1,63,-1
 688 1536 l 1,64,-1
 688 1632 l 1,65,-1
 832 1632 l 1,66,-1
 832 1696 l 1,67,-1
 512 1696 l 1,68,-1
 512 1632 l 1,69,-1
 624 1632 l 1,70,-1
 624 1536 l 1,71,-1
 512 1536 l 1,60,-1
EndSplineSet
EndChar

StartChar: A
Encoding: 65 65 2
Width: 1544
GlyphClass: 2
Flags: W
AnchorPoint: "Anchor-4" 1518 0 basechar 0
AnchorPoint: "Anchor-1" 771 1490 basechar 0
AnchorPoint: "Anchor-0" 771 0 basechar 0
LayerCount: 2
Fore
SplineSet
26 0 m 1,0,-1
 531 1490 l 1,1,-1
 1005 1490 l 1,2,-1
 1518 0 l 1,3,-1
 1119 0 l 1,4,-1
 914 653 l 2,5,6
 865 817 865 817 818 992.5 c 128,-1,7
 771 1168 771 1168 722 1364 c 1,8,-1
 810 1364 l 1,9,10
 762 1167 762 1167 716.5 992 c 128,-1,11
 671 817 671 817 622 653 c 2,12,-1
 418 0 l 1,13,-1
 26 0 l 1,0,-1
371 302 m 1,14,-1
 371 578 l 1,15,-1
 1174 578 l 1,16,-1
 1174 302 l 1,17,-1
 371 302 l 1,14,-1
EndSplineSet
Substitution2: "'c2sc' Capitals to Small Capitals in Latin lookup 68 subtable" a.sc
Substitution2: "'ss06' Style Set 6 in Latin lookup 52 subtable" A.squared
Substitution2: "'ss05' Style Set 5 in Latin lookup 51 subtable" uni24B6
Substitution2: "Single Substitution lookup 44 subtable" ordfeminine
AlternateSubs2: "'aalt' Access All Alternates in Latin lookup 1 subtable" ordfeminine a.sc
Position2: "'cpsp' Capital Spacing in Latin lookup 0 subtable" dx=0 dy=0 dh=0 dv=0
EndChar

StartChar: uni023A
Encoding: 570 570 46
Width: 1544
GlyphClass: 2
Flags: W
AnchorPoint: "Anchor-4" 1518 0 basechar 0
AnchorPoint: "Anchor-1" 771 1490 basechar 0
AnchorPoint: "Anchor-0" 771 0 basechar 0
LayerCount: 2
Fore
SplineSet
1134 1678 m 1,0,-1
 546 -190 l 1,1,-1
 447 -190 l 1,2,-1
 1035 1678 l 1,3,-1
 1134 1678 l 1,0,-1
26 0 m 1,4,-1
 531 1490 l 1,5,-1
 1005 1490 l 1,6,-1
 1518 0 l 1,7,-1
 1119 0 l 1,8,-1
 914 653 l 2,9,10
 865 817 865 817 818 992.5 c 128,-1,11
 771 1168 771 1168 722 1364 c 1,12,-1
 810 1364 l 1,13,14
 762 1167 762 1167 716.5 992 c 128,-1,15
 671 817 671 817 622 653 c 2,16,-1
 418 0 l 1,17,-1
 26 0 l 1,4,-1
371 302 m 1,18,-1
 371 578 l 1,19,-1
 1174 578 l 1,20,-1
 1174 302 l 1,21,-1
 371 302 l 1,18,-1
EndSplineSet
Position2: "'cpsp' Capital Spacing in Latin lookup 0 subtable" dx=0 dy=0 dh=0 dv=0
EndChar

StartChar: Lambda
Encoding: 923 923 60
Width: 1544
GlyphClass: 2
Flags: W
AnchorPoint: "Anchor-1" 771 1490 basechar 0
AnchorPoint: "Anchor-0" 771 0 basechar 0
LayerCount: 2
Fore
SplineSet
26 0 m 1,0,-1
 531 1490 l 1,1,-1
 1005 1490 l 1,2,-1
 1518 0 l 1,3,-1
 1119 0 l 1,4,-1
 914 653 l 2,5,6
 865 817 865 817 818 992.5 c 128,-1,7
 771 1168 771 1168 722 1364 c 1,8,-1
 810 1364 l 1,9,10
 762 1167 762 1167 716.5 992 c 128,-1,11
 671 817 671 817 622 653 c 2,12,-1
 418 0 l 1,13,-1
 26 0 l 1,0,-1
EndSplineSet
Position2: "'cpsp' Capital Spacing in Latin lookup 0 subtable" dx=0 dy=0 dh=0 dv=0
EndChar

StartChar: AE
Encoding: 198 198 61
Width: 2120
GlyphClass: 2
Flags: W
AnchorPoint: "Anchor-1" 1348 1490 basechar 0
LayerCount: 2
Fore
SplineSet
26 0 m 1,0,-1
 635 1490 l 1,1,-1
 2040 1490 l 1,2,-1
 2040 1193 l 1,3,-1
 1324 1193 l 1,4,-1
 1324 893 l 1,5,-1
 1985 893 l 1,6,-1
 1985 604 l 1,7,-1
 1324 604 l 1,8,-1
 1324 297 l 1,9,-1
 2040 297 l 1,10,-1
 2040 0 l 1,11,-1
 982 0 l 1,12,-1
 982 1227 l 1,13,-1
 885 1227 l 1,14,-1
 406 0 l 1,15,-1
 26 0 l 1,0,-1
379 324 m 1,16,-1
 379 580 l 1,17,-1
 1132 580 l 1,18,-1
 1132 324 l 1,19,-1
 379 324 l 1,16,-1
EndSplineSet
Position2: "'cpsp' Capital Spacing in Latin lookup 0 subtable" dx=0 dy=0 dh=0 dv=0
EndChar

StartChar: B
Encoding: 66 66 65
Width: 1344
GlyphClass: 2
Flags: W
AnchorPoint: "Anchor-1" 653 1490 basechar 0
AnchorPoint: "Anchor-0" 654 0 basechar 0
LayerCount: 2
Fore
SplineSet
106 0 m 1,0,-1
 106 1490 l 1,1,-1
 725 1490 l 2,2,3
 891 1490 891 1490 1004.5 1442 c 128,-1,4
 1118 1394 1118 1394 1175.5 1309 c 128,-1,5
 1233 1224 1233 1224 1233 1113 c 0,6,7
 1233 1027 1233 1027 1198 960 c 128,-1,8
 1163 893 1163 893 1101.5 848.5 c 128,-1,9
 1040 804 1040 804 956 786 c 1,10,-1
 956 777 l 1,11,12
 1048 773 1048 773 1123.5 728 c 128,-1,13
 1199 683 1199 683 1244 604.5 c 128,-1,14
 1289 526 1289 526 1289 419 c 0,15,16
 1289 297 1289 297 1228.5 202.5 c 128,-1,17
 1168 108 1168 108 1052 54 c 128,-1,18
 936 0 936 0 772 0 c 2,19,-1
 106 0 l 1,0,-1
458 280 m 1,20,-1
 699 280 l 2,21,22
 808 280 808 280 864.5 326.5 c 128,-1,23
 921 373 921 373 921 452 c 0,24,25
 921 508 921 508 894.5 549.5 c 128,-1,26
 868 591 868 591 820 613 c 128,-1,27
 772 635 772 635 704 635 c 2,28,-1
 458 635 l 1,29,-1
 458 280 l 1,20,-1
458 880 m 1,30,-1
 679 880 l 2,31,32
 736 880 736 880 780.5 900.5 c 128,-1,33
 825 921 825 921 849.5 958.5 c 128,-1,34
 874 996 874 996 874 1047 c 0,35,36
 874 1123 874 1123 822 1167 c 128,-1,37
 770 1211 770 1211 682 1211 c 2,38,-1
 458 1211 l 1,39,-1
 458 880 l 1,30,-1
EndSplineSet
Substitution2: "'ss06' Style Set 6 in Latin lookup 52 subtable" B.squared
Substitution2: "'ss05' Style Set 5 in Latin lookup 51 subtable" uni24B7
Position2: "'cpsp' Capital Spacing in Latin lookup 0 subtable" dx=0 dy=0 dh=0 dv=0
EndChar

StartChar: uni0181
Encoding: 385 385 70
Width: 1776
GlyphClass: 2
Flags: W
AnchorPoint: "Anchor-1" 1085 1490 basechar 0
AnchorPoint: "Anchor-0" 1086 0 basechar 0
LayerCount: 2
Fore
SplineSet
36 1036 m 1,0,-1
 36 1140 l 2,1,2
 36 1310 36 1310 131.5 1400 c 128,-1,3
 227 1490 227 1490 421 1490 c 2,4,-1
 538 1490 l 1,5,-1
 538 1199 l 1,6,-1
 473 1199 l 2,7,8
 418 1199 418 1199 390.5 1174.5 c 128,-1,9
 363 1150 363 1150 363 1102 c 2,10,-1
 363 1036 l 1,11,-1
 36 1036 l 1,0,-1
538 0 m 1,12,-1
 538 1490 l 1,13,-1
 1157 1490 l 2,14,15
 1323 1490 1323 1490 1436.5 1442 c 128,-1,16
 1550 1394 1550 1394 1607.5 1309 c 128,-1,17
 1665 1224 1665 1224 1665 1113 c 0,18,19
 1665 1027 1665 1027 1630 960 c 128,-1,20
 1595 893 1595 893 1533.5 848.5 c 128,-1,21
 1472 804 1472 804 1388 786 c 1,22,-1
 1388 777 l 1,23,24
 1480 773 1480 773 1555.5 728 c 128,-1,25
 1631 683 1631 683 1676 604.5 c 128,-1,26
 1721 526 1721 526 1721 419 c 0,27,28
 1721 297 1721 297 1660.5 202.5 c 128,-1,29
 1600 108 1600 108 1484 54 c 128,-1,30
 1368 0 1368 0 1204 0 c 2,31,-1
 538 0 l 1,12,-1
890 280 m 1,32,-1
 1131 280 l 2,33,34
 1240 280 1240 280 1296.5 326.5 c 128,-1,35
 1353 373 1353 373 1353 452 c 0,36,37
 1353 508 1353 508 1326.5 549.5 c 128,-1,38
 1300 591 1300 591 1252 613 c 128,-1,39
 1204 635 1204 635 1136 635 c 2,40,-1
 890 635 l 1,41,-1
 890 280 l 1,32,-1
890 880 m 1,42,-1
 1111 880 l 2,43,44
 1168 880 1168 880 1212.5 900.5 c 128,-1,45
 1257 921 1257 921 1281.5 958.5 c 128,-1,46
 1306 996 1306 996 1306 1047 c 0,47,48
 1306 1123 1306 1123 1254 1167 c 128,-1,49
 1202 1211 1202 1211 1114 1211 c 2,50,-1
 890 1211 l 1,51,-1
 890 880 l 1,42,-1
EndSplineSet
Position2: "'cpsp' Capital Spacing in Latin lookup 0 subtable" dx=0 dy=0 dh=0 dv=0
EndChar

StartChar: C
Encoding: 67 67 73
Width: 1507
GlyphClass: 2
Flags: W
AnchorPoint: "Anchor-3" 766 4 basechar 0
AnchorPoint: "Anchor-1" 773 1490 basechar 0
LayerCount: 2
Fore
SplineSet
777 -22 m 0,0,1
 575 -22 575 -22 414.5 68 c 128,-1,2
 254 158 254 158 160.5 329.5 c 128,-1,3
 67 501 67 501 67 744 c 0,4,5
 67 990 67 990 161 1161.5 c 128,-1,6
 255 1333 255 1333 416 1422.5 c 128,-1,7
 577 1512 577 1512 777 1512 c 0,8,9
 912 1512 912 1512 1027 1474 c 128,-1,10
 1142 1436 1142 1436 1229.5 1363.5 c 128,-1,11
 1317 1291 1317 1291 1372 1188 c 128,-1,12
 1427 1085 1427 1085 1444 956 c 1,13,-1
 1083 956 l 1,14,15
 1074 1013 1074 1013 1048.5 1058.5 c 128,-1,16
 1023 1104 1023 1104 985 1135.5 c 128,-1,17
 947 1167 947 1167 896 1183.5 c 128,-1,18
 845 1200 845 1200 785 1200 c 0,19,20
 674 1200 674 1200 594 1146 c 128,-1,21
 514 1092 514 1092 472 990 c 128,-1,22
 430 888 430 888 430 744 c 256,23,24
 430 600 430 600 472 498 c 128,-1,25
 514 396 514 396 593.5 343 c 128,-1,26
 673 290 673 290 784 290 c 0,27,28
 844 290 844 290 894 307 c 128,-1,29
 944 324 944 324 983.5 355.5 c 128,-1,30
 1023 387 1023 387 1048.5 432 c 128,-1,31
 1074 477 1074 477 1084 534 c 1,32,-1
 1444 534 l 1,33,34
 1431 420 1431 420 1379 320 c 128,-1,35
 1327 220 1327 220 1241 143 c 128,-1,36
 1155 66 1155 66 1038.5 22 c 128,-1,37
 922 -22 922 -22 777 -22 c 0,0,1
EndSplineSet
Substitution2: "'ss06' Style Set 6 in Latin lookup 52 subtable" C.squared
Substitution2: "'ss05' Style Set 5 in Latin lookup 51 subtable" uni24B8
Position2: "'cpsp' Capital Spacing in Latin lookup 0 subtable" dx=0 dy=0 dh=0 dv=0
EndChar

StartChar: uni0187
Encoding: 391 391 74
Width: 1507
GlyphClass: 2
Flags: W
AnchorPoint: "Anchor-3" 766 4 basechar 0
AnchorPoint: "Anchor-1" 773 1490 basechar 0
LayerCount: 2
Fore
SplineSet
1100 956 m 1,0,-1
 1100 1342 l 2,1,2
 1100 1514 1100 1514 1194 1600.5 c 128,-1,3
 1288 1687 1288 1687 1483 1687 c 0,4,5
 1537 1687 1537 1687 1584 1684 c 128,-1,6
 1631 1681 1631 1681 1664 1676 c 1,7,-1
 1664 1418 l 1,8,9
 1642 1420 1642 1420 1612.5 1421 c 128,-1,10
 1583 1422 1583 1422 1550 1422 c 0,11,12
 1495 1422 1495 1422 1469.5 1401 c 128,-1,13
 1444 1380 1444 1380 1444 1333 c 2,14,-1
 1444 956 l 1,15,-1
 1100 956 l 1,0,-1
777 -22 m 0,16,17
 575 -22 575 -22 414.5 68 c 128,-1,18
 254 158 254 158 160.5 329.5 c 128,-1,19
 67 501 67 501 67 744 c 0,20,21
 67 990 67 990 161 1161.5 c 128,-1,22
 255 1333 255 1333 416 1422.5 c 128,-1,23
 577 1512 577 1512 777 1512 c 0,24,25
 912 1512 912 1512 1027 1474 c 128,-1,26
 1142 1436 1142 1436 1229.5 1363.5 c 128,-1,27
 1317 1291 1317 1291 1372 1188 c 128,-1,28
 1427 1085 1427 1085 1444 956 c 1,29,-1
 1083 956 l 1,30,31
 1074 1013 1074 1013 1048.5 1058.5 c 128,-1,32
 1023 1104 1023 1104 985 1135.5 c 128,-1,33
 947 1167 947 1167 896 1183.5 c 128,-1,34
 845 1200 845 1200 785 1200 c 0,35,36
 674 1200 674 1200 594 1146 c 128,-1,37
 514 1092 514 1092 472 990 c 128,-1,38
 430 888 430 888 430 744 c 256,39,40
 430 600 430 600 472 498 c 128,-1,41
 514 396 514 396 593.5 343 c 128,-1,42
 673 290 673 290 784 290 c 0,43,44
 844 290 844 290 894 307 c 128,-1,45
 944 324 944 324 983.5 355.5 c 128,-1,46
 1023 387 1023 387 1048.5 432 c 128,-1,47
 1074 477 1074 477 1084 534 c 1,48,-1
 1444 534 l 1,49,50
 1431 420 1431 420 1379 320 c 128,-1,51
 1327 220 1327 220 1241 143 c 128,-1,52
 1155 66 1155 66 1038.5 22 c 128,-1,53
 922 -22 922 -22 777 -22 c 0,16,17
EndSplineSet
Position2: "'cpsp' Capital Spacing in Latin lookup 0 subtable" dx=0 dy=0 dh=0 dv=0
EndChar

StartChar: uni023B
Encoding: 571 571 81
Width: 1507
GlyphClass: 2
Flags: W
AnchorPoint: "Anchor-3" 766 4 basechar 0
AnchorPoint: "Anchor-1" 773 1490 basechar 0
LayerCount: 2
Fore
SplineSet
378 -190 m 1,0,-1
 966 1678 l 1,1,-1
 1164 1678 l 1,2,-1
 575 -190 l 1,3,-1
 378 -190 l 1,0,-1
777 -22 m 0,4,5
 575 -22 575 -22 414.5 68 c 128,-1,6
 254 158 254 158 160.5 329.5 c 128,-1,7
 67 501 67 501 67 744 c 0,8,9
 67 990 67 990 161 1161.5 c 128,-1,10
 255 1333 255 1333 416 1422.5 c 128,-1,11
 577 1512 577 1512 777 1512 c 0,12,13
 912 1512 912 1512 1027 1474 c 128,-1,14
 1142 1436 1142 1436 1229.5 1363.5 c 128,-1,15
 1317 1291 1317 1291 1372 1188 c 128,-1,16
 1427 1085 1427 1085 1444 956 c 1,17,-1
 1083 956 l 1,18,19
 1074 1013 1074 1013 1048.5 1058.5 c 128,-1,20
 1023 1104 1023 1104 985 1135.5 c 128,-1,21
 947 1167 947 1167 896 1183.5 c 128,-1,22
 845 1200 845 1200 785 1200 c 0,23,24
 674 1200 674 1200 594 1146 c 128,-1,25
 514 1092 514 1092 472 990 c 128,-1,26
 430 888 430 888 430 744 c 256,27,28
 430 600 430 600 472 498 c 128,-1,29
 514 396 514 396 593.5 343 c 128,-1,30
 673 290 673 290 784 290 c 0,31,32
 844 290 844 290 894 307 c 128,-1,33
 944 324 944 324 983.5 355.5 c 128,-1,34
 1023 387 1023 387 1048.5 432 c 128,-1,35
 1074 477 1074 477 1084 534 c 1,36,-1
 1444 534 l 1,37,38
 1431 420 1431 420 1379 320 c 128,-1,39
 1327 220 1327 220 1241 143 c 128,-1,40
 1155 66 1155 66 1038.5 22 c 128,-1,41
 922 -22 922 -22 777 -22 c 0,4,5
EndSplineSet
Ligature2: "'ccmp' Glyph Composition/Decomposition in Latin lookup 6 subtable" C uni0338
Position2: "'cpsp' Capital Spacing in Latin lookup 0 subtable" dx=0 dy=0 dh=0 dv=0
EndChar

StartChar: uni0186
Encoding: 390 390 82
Width: 1507
GlyphClass: 2
Flags: W
AnchorPoint: "Anchor-3" 741 1488 basechar 0
AnchorPoint: "Anchor-1" 734 0 basechar 0
LayerCount: 2
Fore
SplineSet
730 1512 m 0,0,1
 932 1512 932 1512 1093 1422 c 128,-1,2
 1254 1332 1254 1332 1347 1161 c 128,-1,3
 1440 990 1440 990 1440 746 c 256,4,5
 1440 502 1440 502 1346.5 330.5 c 128,-1,6
 1253 159 1253 159 1092.5 68.5 c 128,-1,7
 932 -22 932 -22 730 -22 c 0,8,9
 595 -22 595 -22 480.5 16.5 c 128,-1,10
 366 55 366 55 278.5 127.5 c 128,-1,11
 191 200 191 200 135.5 303 c 128,-1,12
 80 406 80 406 64 535 c 1,13,-1
 424 535 l 1,14,15
 434 478 434 478 459 432.5 c 128,-1,16
 484 387 484 387 522.5 355 c 128,-1,17
 561 323 561 323 611.5 306.5 c 128,-1,18
 662 290 662 290 722 290 c 0,19,20
 834 290 834 290 913.5 344.5 c 128,-1,21
 993 399 993 399 1035.5 501.5 c 128,-1,22
 1078 604 1078 604 1078 746 c 0,23,24
 1078 892 1078 892 1035.5 993.5 c 128,-1,25
 993 1095 993 1095 913.5 1147.5 c 128,-1,26
 834 1200 834 1200 723 1200 c 0,27,28
 663 1200 663 1200 613 1184 c 128,-1,29
 563 1168 563 1168 524 1136 c 128,-1,30
 485 1104 485 1104 459.5 1059 c 128,-1,31
 434 1014 434 1014 424 957 c 1,32,-1
 63 957 l 1,33,34
 77 1071 77 1071 128.5 1171.5 c 128,-1,35
 180 1272 180 1272 266 1349 c 128,-1,36
 352 1426 352 1426 468.5 1469 c 128,-1,37
 585 1512 585 1512 730 1512 c 0,0,1
EndSplineSet
Position2: "'cpsp' Capital Spacing in Latin lookup 0 subtable" dx=0 dy=0 dh=0 dv=0
EndChar

StartChar: D
Encoding: 68 68 84
Width: 1462
GlyphClass: 2
Flags: W
AnchorPoint: "Anchor-1" 594 1490 basechar 0
AnchorPoint: "Anchor-0" 655 0 basechar 0
LayerCount: 2
Fore
SplineSet
657 0 m 2,0,-1
 261 0 l 1,1,-1
 261 301 l 1,2,-1
 641 301 l 2,3,4
 773 301 773 301 861.5 348 c 128,-1,5
 950 395 950 395 994 493.5 c 128,-1,6
 1038 592 1038 592 1038 745 c 0,7,8
 1038 900 1038 900 993 998.5 c 128,-1,9
 948 1097 948 1097 859 1143 c 128,-1,10
 770 1189 770 1189 636 1189 c 2,11,-1
 255 1189 l 1,12,-1
 255 1490 l 1,13,-1
 657 1490 l 2,14,15
 885 1490 885 1490 1050 1400 c 128,-1,16
 1215 1310 1215 1310 1305 1142.5 c 128,-1,17
 1395 975 1395 975 1395 745 c 256,18,19
 1395 515 1395 515 1305.5 348 c 128,-1,20
 1216 181 1216 181 1050.5 90.5 c 128,-1,21
 885 0 885 0 657 0 c 2,0,-1
462 1490 m 1,22,-1
 462 0 l 1,23,-1
 106 0 l 1,24,-1
 106 1490 l 1,25,-1
 462 1490 l 1,22,-1
EndSplineSet
Substitution2: "'ss06' Style Set 6 in Latin lookup 52 subtable" D.squared
Substitution2: "'ss05' Style Set 5 in Latin lookup 51 subtable" uni24B9
Position2: "'cpsp' Capital Spacing in Latin lookup 0 subtable" dx=0 dy=0 dh=0 dv=0
EndChar

StartChar: uni018A
Encoding: 394 394 85
Width: 1894
GlyphClass: 2
Flags: W
AnchorPoint: "Anchor-1" 1026 1490 basechar 0
AnchorPoint: "Anchor-0" 1087 0 basechar 0
LayerCount: 2
Fore
SplineSet
36 1036 m 1,0,-1
 36 1140 l 2,1,2
 36 1310 36 1310 131.5 1400 c 128,-1,3
 227 1490 227 1490 421 1490 c 2,4,-1
 538 1490 l 1,5,-1
 538 1199 l 1,6,-1
 473 1199 l 2,7,8
 418 1199 418 1199 390.5 1174.5 c 128,-1,9
 363 1150 363 1150 363 1102 c 2,10,-1
 363 1036 l 1,11,-1
 36 1036 l 1,0,-1
1089 0 m 2,12,-1
 693 0 l 1,13,-1
 693 301 l 1,14,-1
 1073 301 l 2,15,16
 1205 301 1205 301 1293.5 348 c 128,-1,17
 1382 395 1382 395 1426 493.5 c 128,-1,18
 1470 592 1470 592 1470 745 c 0,19,20
 1470 900 1470 900 1425.5 998.5 c 128,-1,21
 1381 1097 1381 1097 1291.5 1143 c 128,-1,22
 1202 1189 1202 1189 1068 1189 c 2,23,-1
 687 1189 l 1,24,-1
 687 1490 l 1,25,-1
 1089 1490 l 2,26,27
 1317 1490 1317 1490 1482.5 1400 c 128,-1,28
 1648 1310 1648 1310 1737.5 1142.5 c 128,-1,29
 1827 975 1827 975 1827 745 c 256,30,31
 1827 515 1827 515 1737.5 348 c 128,-1,32
 1648 181 1648 181 1482.5 90.5 c 128,-1,33
 1317 0 1317 0 1089 0 c 2,12,-1
894 1490 m 1,34,-1
 894 0 l 1,35,-1
 538 0 l 1,36,-1
 538 1490 l 1,37,-1
 894 1490 l 1,34,-1
EndSplineSet
Position2: "'cpsp' Capital Spacing in Latin lookup 0 subtable" dx=0 dy=0 dh=0 dv=0
EndChar

StartChar: E
Encoding: 69 69 95
Width: 1259
GlyphClass: 2
Flags: W
AnchorPoint: "Anchor-4" 1178 0 basechar 0
AnchorPoint: "Anchor-3" 644 0 basechar 0
AnchorPoint: "Anchor-1" 644 1490 basechar 0
AnchorPoint: "Anchor-0" 644 0 basechar 0
LayerCount: 2
Fore
SplineSet
106 0 m 1,0,-1
 106 1490 l 1,1,-1
 1179 1490 l 1,2,-1
 1179 1193 l 1,3,-1
 462 1193 l 1,4,-1
 462 896 l 1,5,-1
 1123 896 l 1,6,-1
 1123 607 l 1,7,-1
 462 607 l 1,8,-1
 462 297 l 1,9,-1
 1178 297 l 1,10,-1
 1178 0 l 1,11,-1
 106 0 l 1,0,-1
EndSplineSet
Substitution2: "'ss06' Style Set 6 in Latin lookup 52 subtable" E.squared
Substitution2: "'ss05' Style Set 5 in Latin lookup 51 subtable" uni24BA
Position2: "'cpsp' Capital Spacing in Latin lookup 0 subtable" dx=0 dy=0 dh=0 dv=0
EndChar

StartChar: uni0246
Encoding: 582 582 121
Width: 1259
GlyphClass: 2
Flags: W
AnchorPoint: "Anchor-4" 1178 0 basechar 0
AnchorPoint: "Anchor-3" 644 0 basechar 0
AnchorPoint: "Anchor-1" 644 1490 basechar 0
AnchorPoint: "Anchor-0" 644 0 basechar 0
LayerCount: 2
Fore
SplineSet
312 -190 m 1,0,-1
 852 1678 l 1,1,-1
 1016 1678 l 1,2,-1
 478 -190 l 1,3,-1
 312 -190 l 1,0,-1
106 0 m 1,4,-1
 106 1490 l 1,5,-1
 1179 1490 l 1,6,-1
 1179 1193 l 1,7,-1
 462 1193 l 1,8,-1
 462 896 l 1,9,-1
 1123 896 l 1,10,-1
 1123 607 l 1,11,-1
 462 607 l 1,12,-1
 462 297 l 1,13,-1
 1178 297 l 1,14,-1
 1178 0 l 1,15,-1
 106 0 l 1,4,-1
EndSplineSet
Position2: "'cpsp' Capital Spacing in Latin lookup 0 subtable" dx=0 dy=0 dh=0 dv=0
EndChar

StartChar: Eturn
Encoding: 398 398 122
Width: 1259
GlyphClass: 2
Flags: W
AnchorPoint: "Anchor-4" 81 1490 basechar 0
AnchorPoint: "Anchor-3" 629 0 basechar 0
AnchorPoint: "Anchor-1" 629 1490 basechar 0
AnchorPoint: "Anchor-0" 627 0 basechar 0
LayerCount: 2
Fore
SplineSet
1153 1490 m 1,0,-1
 1153 0 l 1,1,-1
 81 0 l 1,2,-1
 81 297 l 1,3,-1
 797 297 l 1,4,-1
 797 596 l 1,5,-1
 136 596 l 1,6,-1
 136 885 l 1,7,-1
 797 885 l 1,8,-1
 797 1193 l 1,9,-1
 81 1193 l 1,10,-1
 81 1490 l 1,11,-1
 1153 1490 l 1,0,-1
EndSplineSet
Position2: "'cpsp' Capital Spacing in Latin lookup 0 subtable" dx=0 dy=0 dh=0 dv=0
EndChar

StartChar: F
Encoding: 70 70 137
Width: 1207
GlyphClass: 2
Flags: W
AnchorPoint: "Anchor-1" 629 1490 basechar 0
AnchorPoint: "Anchor-0" 285 0 basechar 0
LayerCount: 2
Fore
SplineSet
106 0 m 1,0,-1
 106 1490 l 1,1,-1
 1151 1490 l 1,2,-1
 1151 1193 l 1,3,-1
 462 1193 l 1,4,-1
 462 846 l 1,5,-1
 1096 846 l 1,6,-1
 1096 558 l 1,7,-1
 462 558 l 1,8,-1
 462 0 l 1,9,-1
 106 0 l 1,0,-1
EndSplineSet
Substitution2: "'ss06' Style Set 6 in Latin lookup 52 subtable" F.squared
Substitution2: "'ss05' Style Set 5 in Latin lookup 51 subtable" uni24BB
Position2: "'cpsp' Capital Spacing in Latin lookup 0 subtable" dx=0 dy=0 dh=0 dv=0
EndChar

StartChar: uni0191
Encoding: 401 401 138
Width: 1207
GlyphClass: 2
Flags: W
AnchorPoint: "Anchor-1" 629 1490 basechar 0
AnchorPoint: "Anchor-0" 285 0 basechar 0
LayerCount: 2
Fore
SplineSet
-110 -417 m 1,0,-1
 -110 -144 l 1,1,2
 -88 -147 -88 -147 -58 -148 c 128,-1,3
 -28 -149 -28 -149 4 -149 c 0,4,5
 60 -149 60 -149 83 -129 c 128,-1,6
 106 -109 106 -109 106 -63 c 2,7,-1
 106 122 l 1,8,-1
 462 122 l 1,9,-1
 462 -83 l 2,10,11
 462 -254 462 -254 365 -340.5 c 128,-1,12
 268 -427 268 -427 73 -427 c 0,13,14
 18 -427 18 -427 -29 -424.5 c 128,-1,15
 -76 -422 -76 -422 -110 -417 c 1,0,-1
106 0 m 1,16,-1
 106 1490 l 1,17,-1
 1151 1490 l 1,18,-1
 1151 1193 l 1,19,-1
 462 1193 l 1,20,-1
 462 846 l 1,21,-1
 1096 846 l 1,22,-1
 1096 558 l 1,23,-1
 462 558 l 1,24,-1
 462 0 l 1,25,-1
 106 0 l 1,16,-1
EndSplineSet
Position2: "'cpsp' Capital Spacing in Latin lookup 0 subtable" dx=0 dy=0 dh=0 dv=0
EndChar

StartChar: Fturn
Encoding: 8498 8498 140
Width: 1207
GlyphClass: 2
Flags: W
AnchorPoint: "Anchor-1" 899 1490 basechar 0
AnchorPoint: "Anchor-0" 571 0 basechar 0
LayerCount: 2
Fore
SplineSet
1101 1490 m 1,0,-1
 1101 0 l 1,1,-1
 56 0 l 1,2,-1
 56 297 l 1,3,-1
 745 297 l 1,4,-1
 745 646 l 1,5,-1
 111 646 l 1,6,-1
 111 934 l 1,7,-1
 745 934 l 1,8,-1
 745 1490 l 1,9,-1
 1101 1490 l 1,0,-1
EndSplineSet
Position2: "'cpsp' Capital Spacing in Latin lookup 0 subtable" dx=0 dy=0 dh=0 dv=0
EndChar

StartChar: G
Encoding: 1114113 -1 141
Width: 1526
GlyphClass: 2
Flags: W
AnchorPoint: "Anchor-1" 771 1490 basechar 0
AnchorPoint: "Anchor-0" 768 0 basechar 0
LayerCount: 2
Fore
SplineSet
785 -22 m 0,0,1
 571 -22 571 -22 409.5 72 c 128,-1,2
 248 166 248 166 157.5 338 c 128,-1,3
 67 510 67 510 67 743 c 0,4,5
 67 987 67 987 162 1159.5 c 128,-1,6
 257 1332 257 1332 418.5 1422 c 128,-1,7
 580 1512 580 1512 779 1512 c 0,8,9
 910 1512 910 1512 1023.5 1475 c 128,-1,10
 1137 1438 1137 1438 1225 1369 c 128,-1,11
 1313 1300 1313 1300 1368 1205 c 128,-1,12
 1423 1110 1423 1110 1436 995 c 1,13,-1
 1075 995 l 1,14,15
 1063 1042 1063 1042 1039 1080 c 128,-1,16
 1015 1118 1015 1118 978.5 1145 c 128,-1,17
 942 1172 942 1172 894.5 1186 c 128,-1,18
 847 1200 847 1200 789 1200 c 0,19,20
 678 1200 678 1200 597 1146.5 c 128,-1,21
 516 1093 516 1093 473 991 c 128,-1,22
 430 889 430 889 430 746 c 0,23,24
 430 602 430 602 472.5 500 c 128,-1,25
 515 398 515 398 596 344 c 128,-1,26
 677 290 677 290 792 290 c 0,27,28
 891 290 891 290 960.5 323.5 c 128,-1,29
 1030 357 1030 357 1066.5 417 c 128,-1,30
 1103 477 1103 477 1103 558 c 1,31,-1
 1177 551 l 1,32,-1
 805 551 l 1,33,-1
 805 812 l 1,34,-1
 1449 812 l 1,35,-1
 1449 613 l 2,36,37
 1449 419 1449 419 1365 276.5 c 128,-1,38
 1281 134 1281 134 1130.5 56 c 128,-1,39
 980 -22 980 -22 785 -22 c 0,0,1
EndSplineSet
Substitution2: "'c2sc' Capitals to Small Capitals in Latin lookup 68 subtable" g.sc
Substitution2: "'cv10' Character Variants 10 in Latin lookup 64 subtable" G.1
Substitution2: "'ss06' Style Set 6 in Latin lookup 52 subtable" G.squared
Substitution2: "'ss05' Style Set 5 in Latin lookup 51 subtable" uni24BC
Substitution2: "'salt' Stylistic Alternatives in Latin lookup 46 subtable" G.1
Substitution2: "'aalt' Access All Alternates in Latin lookup 0 subtable" g.sc
Position2: "'cpsp' Capital Spacing in Latin lookup 0 subtable" dx=0 dy=0 dh=0 dv=0
EndChar

StartChar: uni0193
Encoding: 1114115 -1 143
Width: 1526
GlyphClass: 2
Flags: W
AnchorPoint: "Anchor-1" 771 1490 basechar 0
AnchorPoint: "Anchor-0" 768 0 basechar 0
LayerCount: 2
Fore
SplineSet
1093 995 m 1,0,-1
 1093 1336 l 2,1,2
 1093 1508 1093 1508 1187.5 1594 c 128,-1,3
 1282 1680 1282 1680 1476 1680 c 0,4,5
 1531 1680 1531 1680 1578 1678 c 128,-1,6
 1625 1676 1625 1676 1658 1671 c 1,7,-1
 1658 1411 l 1,8,9
 1636 1413 1636 1413 1605.5 1414 c 128,-1,10
 1575 1415 1575 1415 1543 1415 c 0,11,12
 1487 1415 1487 1415 1461.5 1394 c 128,-1,13
 1436 1373 1436 1373 1436 1328 c 2,14,-1
 1436 995 l 1,15,-1
 1093 995 l 1,0,-1
785 -22 m 0,16,17
 571 -22 571 -22 409.5 72 c 128,-1,18
 248 166 248 166 157.5 338 c 128,-1,19
 67 510 67 510 67 743 c 0,20,21
 67 987 67 987 162 1159.5 c 128,-1,22
 257 1332 257 1332 418.5 1422 c 128,-1,23
 580 1512 580 1512 779 1512 c 0,24,25
 910 1512 910 1512 1023.5 1475 c 128,-1,26
 1137 1438 1137 1438 1225 1369 c 128,-1,27
 1313 1300 1313 1300 1368 1205 c 128,-1,28
 1423 1110 1423 1110 1436 995 c 1,29,-1
 1075 995 l 1,30,31
 1063 1042 1063 1042 1039 1080 c 128,-1,32
 1015 1118 1015 1118 978.5 1145 c 128,-1,33
 942 1172 942 1172 894.5 1186 c 128,-1,34
 847 1200 847 1200 789 1200 c 0,35,36
 678 1200 678 1200 597 1146.5 c 128,-1,37
 516 1093 516 1093 473 991 c 128,-1,38
 430 889 430 889 430 746 c 0,39,40
 430 602 430 602 472.5 500 c 128,-1,41
 515 398 515 398 596 344 c 128,-1,42
 677 290 677 290 792 290 c 0,43,44
 891 290 891 290 960.5 323.5 c 128,-1,45
 1030 357 1030 357 1066.5 417 c 128,-1,46
 1103 477 1103 477 1103 558 c 1,47,-1
 1177 551 l 1,48,-1
 805 551 l 1,49,-1
 805 812 l 1,50,-1
 1449 812 l 1,51,-1
 1449 613 l 2,52,53
 1449 419 1449 419 1365 276.5 c 128,-1,54
 1281 134 1281 134 1130.5 56 c 128,-1,55
 980 -22 980 -22 785 -22 c 0,16,17
EndSplineSet
Substitution2: "'c2sc' Capitals to Small Capitals in Latin lookup 68 subtable" uni0260.sc
Substitution2: "'cv10' Character Variants 10 in Latin lookup 64 subtable" uni0193.1
Substitution2: "'salt' Stylistic Alternatives in Latin lookup 46 subtable" uni0193.1
Substitution2: "'aalt' Access All Alternates in Latin lookup 0 subtable" uni0260.sc
Position2: "'cpsp' Capital Spacing in Latin lookup 0 subtable" dx=0 dy=0 dh=0 dv=0
EndChar

StartChar: G.1
Encoding: 57346 57346 151
AltUni2: 000047.ffffffff.0
Width: 1544
GlyphClass: 2
Flags: W
AnchorPoint: "Anchor-1" 771 1490 basechar 0
AnchorPoint: "Anchor-0" 768 0 basechar 0
LayerCount: 2
Fore
SplineSet
744 -22 m 0,0,1
 554 -22 554 -22 401 72 c 128,-1,2
 248 166 248 166 157.5 338 c 128,-1,3
 67 510 67 510 67 743 c 0,4,5
 67 987 67 987 162 1159.5 c 128,-1,6
 257 1332 257 1332 418.5 1422 c 128,-1,7
 580 1512 580 1512 779 1512 c 0,8,9
 910 1512 910 1512 1023.5 1475 c 128,-1,10
 1137 1438 1137 1438 1225 1369 c 128,-1,11
 1313 1300 1313 1300 1368 1205 c 128,-1,12
 1423 1110 1423 1110 1436 995 c 1,13,-1
 1075 995 l 1,14,15
 1063 1042 1063 1042 1039 1080 c 128,-1,16
 1015 1118 1015 1118 978.5 1145 c 128,-1,17
 942 1172 942 1172 894.5 1186 c 128,-1,18
 847 1200 847 1200 789 1200 c 0,19,20
 678 1200 678 1200 597 1146.5 c 128,-1,21
 516 1093 516 1093 473 991 c 128,-1,22
 430 889 430 889 430 746 c 0,23,24
 430 602 430 602 472.5 500 c 128,-1,25
 515 398 515 398 597 344 c 128,-1,26
 679 290 679 290 795 290 c 0,27,28
 892 290 892 290 961 324 c 128,-1,29
 1030 358 1030 358 1067.5 419 c 128,-1,30
 1105 480 1105 480 1105 564 c 1,31,-1
 1227 564 l 1,32,-1
 1227 459 l 2,33,34
 1227 352 1227 352 1196 263.5 c 128,-1,35
 1165 175 1165 175 1103 111.5 c 128,-1,36
 1041 48 1041 48 951 13 c 128,-1,37
 861 -22 861 -22 744 -22 c 0,0,1
1225 0 m 1,38,-1
 1180 334 l 1,39,-1
 1180 551 l 1,40,-1
 806 551 l 1,41,-1
 806 812 l 1,42,-1
 1450 812 l 1,43,-1
 1450 0 l 1,44,-1
 1225 0 l 1,38,-1
EndSplineSet
Substitution2: "'ss06' Style Set 6 in Latin lookup 52 subtable" G.1.squared
EndChar

StartChar: uni0193.1
Encoding: 57348 57348 153
AltUni2: 000193.ffffffff.0
Width: 1544
GlyphClass: 2
Flags: W
AnchorPoint: "Anchor-1" 771 1490 basechar 0
AnchorPoint: "Anchor-0" 768 0 basechar 0
LayerCount: 2
Fore
SplineSet
1093 995 m 1,0,-1
 1093 1336 l 2,1,2
 1093 1508 1093 1508 1187.5 1594 c 128,-1,3
 1282 1680 1282 1680 1476 1680 c 0,4,5
 1531 1680 1531 1680 1578 1678 c 128,-1,6
 1625 1676 1625 1676 1658 1671 c 1,7,-1
 1658 1411 l 1,8,9
 1636 1413 1636 1413 1605.5 1414 c 128,-1,10
 1575 1415 1575 1415 1543 1415 c 0,11,12
 1487 1415 1487 1415 1461.5 1394 c 128,-1,13
 1436 1373 1436 1373 1436 1328 c 2,14,-1
 1436 995 l 1,15,-1
 1093 995 l 1,0,-1
744 -22 m 0,16,17
 554 -22 554 -22 401 72 c 128,-1,18
 248 166 248 166 157.5 338 c 128,-1,19
 67 510 67 510 67 743 c 0,20,21
 67 987 67 987 162 1159.5 c 128,-1,22
 257 1332 257 1332 418.5 1422 c 128,-1,23
 580 1512 580 1512 779 1512 c 0,24,25
 910 1512 910 1512 1023.5 1475 c 128,-1,26
 1137 1438 1137 1438 1225 1369 c 128,-1,27
 1313 1300 1313 1300 1368 1205 c 128,-1,28
 1423 1110 1423 1110 1436 995 c 1,29,-1
 1075 995 l 1,30,31
 1063 1042 1063 1042 1039 1080 c 128,-1,32
 1015 1118 1015 1118 978.5 1145 c 128,-1,33
 942 1172 942 1172 894.5 1186 c 128,-1,34
 847 1200 847 1200 789 1200 c 0,35,36
 678 1200 678 1200 597 1146.5 c 128,-1,37
 516 1093 516 1093 473 991 c 128,-1,38
 430 889 430 889 430 746 c 0,39,40
 430 602 430 602 472.5 500 c 128,-1,41
 515 398 515 398 597 344 c 128,-1,42
 679 290 679 290 795 290 c 0,43,44
 892 290 892 290 961 324 c 128,-1,45
 1030 358 1030 358 1067.5 419 c 128,-1,46
 1105 480 1105 480 1105 564 c 1,47,-1
 1227 564 l 1,48,-1
 1227 459 l 2,49,50
 1227 352 1227 352 1196 263.5 c 128,-1,51
 1165 175 1165 175 1103 111.5 c 128,-1,52
 1041 48 1041 48 951 13 c 128,-1,53
 861 -22 861 -22 744 -22 c 0,16,17
1225 0 m 1,54,-1
 1180 334 l 1,55,-1
 1180 551 l 1,56,-1
 806 551 l 1,57,-1
 806 812 l 1,58,-1
 1450 812 l 1,59,-1
 1450 0 l 1,60,-1
 1225 0 l 1,54,-1
EndSplineSet
EndChar

StartChar: H
Encoding: 72 72 161
Width: 1506
GlyphClass: 2
Flags: W
AnchorPoint: "Anchor-3" 284 1 basechar 0
AnchorPoint: "Anchor-1" 754 1490 basechar 0
AnchorPoint: "Anchor-0" 754 0 basechar 0
LayerCount: 2
Fore
SplineSet
106 0 m 1,0,-1
 106 1490 l 1,1,-1
 462 1490 l 1,2,-1
 462 909 l 1,3,-1
 1044 909 l 1,4,-1
 1044 1490 l 1,5,-1
 1400 1490 l 1,6,-1
 1400 0 l 1,7,-1
 1044 0 l 1,8,-1
 1044 612 l 1,9,-1
 462 612 l 1,10,-1
 462 0 l 1,11,-1
 106 0 l 1,0,-1
EndSplineSet
Substitution2: "'c2sc' Capitals to Small Capitals in Latin lookup 68 subtable" h.sc
Substitution2: "'ss06' Style Set 6 in Latin lookup 52 subtable" H.squared
Substitution2: "'ss05' Style Set 5 in Latin lookup 51 subtable" uni24BD
Substitution2: "'aalt' Access All Alternates in Latin lookup 0 subtable" h.sc
Position2: "'cpsp' Capital Spacing in Latin lookup 0 subtable" dx=0 dy=0 dh=0 dv=0
EndChar

StartChar: Hbar
Encoding: 294 294 169
Width: 1654
GlyphClass: 2
Flags: W
AnchorPoint: "Anchor-3" 355 1 basechar 0
AnchorPoint: "Anchor-1" 825 1490 basechar 0
AnchorPoint: "Anchor-0" 825 0 basechar 0
LayerCount: 2
Fore
SplineSet
1600 1246 m 1,0,-1
 1600 1064 l 1,1,-1
 54 1064 l 1,2,-1
 54 1246 l 1,3,-1
 1600 1246 l 1,0,-1
177 0 m 1,4,-1
 177 1490 l 1,5,-1
 533 1490 l 1,6,-1
 533 909 l 1,7,-1
 1115 909 l 1,8,-1
 1115 1490 l 1,9,-1
 1471 1490 l 1,10,-1
 1471 0 l 1,11,-1
 1115 0 l 1,12,-1
 1115 612 l 1,13,-1
 533 612 l 1,14,-1
 533 0 l 1,15,-1
 177 0 l 1,4,-1
EndSplineSet
Position2: "'cpsp' Capital Spacing in Latin lookup 0 subtable" dx=0 dy=0 dh=0 dv=0
EndChar

StartChar: uni04C7
Encoding: 1223 1223 170
Width: 1506
GlyphClass: 2
Flags: W
AnchorPoint: "Anchor-3" 284 1 basechar 0
AnchorPoint: "Anchor-1" 754 1490 basechar 0
AnchorPoint: "Anchor-0" 754 0 basechar 0
LayerCount: 2
Fore
SplineSet
828 -417 m 1,0,-1
 828 -144 l 1,1,2
 849 -147 849 -147 879.5 -148 c 128,-1,3
 910 -149 910 -149 942 -149 c 0,4,5
 998 -149 998 -149 1021 -129 c 128,-1,6
 1044 -109 1044 -109 1044 -63 c 2,7,-1
 1044 122 l 1,8,-1
 1400 122 l 1,9,-1
 1400 -83 l 2,10,11
 1400 -254 1400 -254 1302.5 -340.5 c 128,-1,12
 1205 -427 1205 -427 1011 -427 c 0,13,14
 956 -427 956 -427 908.5 -424.5 c 128,-1,15
 861 -422 861 -422 828 -417 c 1,0,-1
106 0 m 1,16,-1
 106 1490 l 1,17,-1
 462 1490 l 1,18,-1
 462 909 l 1,19,-1
 1044 909 l 1,20,-1
 1044 1490 l 1,21,-1
 1400 1490 l 1,22,-1
 1400 0 l 1,23,-1
 1044 0 l 1,24,-1
 1044 612 l 1,25,-1
 462 612 l 1,26,-1
 462 0 l 1,27,-1
 106 0 l 1,16,-1
EndSplineSet
Position2: "'cpsp' Capital Spacing in Latin lookup 0 subtable" dx=0 dy=0 dh=0 dv=0
EndChar

StartChar: uni04A4
Encoding: 1188 1188 173
Width: 2051
GlyphClass: 2
Flags: W
AnchorPoint: "Anchor-3" 284 1 basechar 0
AnchorPoint: "Anchor-1" 754 1490 basechar 0
AnchorPoint: "Anchor-0" 754 0 basechar 0
LayerCount: 2
Fore
SplineSet
1997 1490 m 1,0,-1
 1997 1204 l 1,1,-1
 1346 1204 l 1,2,-1
 1055 1490 l 1,3,-1
 1997 1490 l 1,0,-1
106 0 m 1,4,-1
 106 1490 l 1,5,-1
 462 1490 l 1,6,-1
 462 909 l 1,7,-1
 1044 909 l 1,8,-1
 1044 1490 l 1,9,-1
 1400 1490 l 1,10,-1
 1400 0 l 1,11,-1
 1044 0 l 1,12,-1
 1044 612 l 1,13,-1
 462 612 l 1,14,-1
 462 0 l 1,15,-1
 106 0 l 1,4,-1
EndSplineSet
Position2: "'cpsp' Capital Spacing in Latin lookup 0 subtable" dx=0 dy=0 dh=0 dv=0
EndChar

StartChar: uni01F6
Encoding: 502 502 174
Width: 2252
Flags: W
LayerCount: 2
Fore
SplineSet
1597 -22 m 256,0,1
 1430 -22 1430 -22 1306 39 c 128,-1,2
 1182 100 1182 100 1113 211 c 128,-1,3
 1044 322 1044 322 1044 472 c 2,4,-1
 1044 604 l 1,5,-1
 462 604 l 1,6,-1
 462 0 l 1,7,-1
 106 0 l 1,8,-1
 106 1490 l 1,9,-1
 462 1490 l 1,10,-1
 462 901 l 1,11,-1
 1044 901 l 1,12,-1
 1044 1490 l 1,13,-1
 1400 1490 l 1,14,-1
 1400 483 l 2,15,16
 1400 415 1400 415 1423.5 366.5 c 128,-1,17
 1447 318 1447 318 1492.5 292.5 c 128,-1,18
 1538 267 1538 267 1599 267 c 0,19,20
 1662 267 1662 267 1706.5 292.5 c 128,-1,21
 1751 318 1751 318 1774 366.5 c 128,-1,22
 1797 415 1797 415 1797 483 c 2,23,-1
 1797 1068 l 1,24,-1
 2146 1068 l 1,25,-1
 2146 472 l 2,26,27
 2147 321 2147 321 2079 210.5 c 128,-1,28
 2011 100 2011 100 1887.5 39 c 128,-1,29
 1764 -22 1764 -22 1597 -22 c 256,0,1
EndSplineSet
Position2: "'cpsp' Capital Spacing in Latin lookup 0 subtable" dx=0 dy=0 dh=0 dv=0
EndChar

StartChar: I
Encoding: 73 73 197
Width: 568
GlyphClass: 2
Flags: W
AnchorPoint: "Anchor-4" 462 0 basechar 0
AnchorPoint: "Anchor-1" 286 1490 basechar 0
AnchorPoint: "Anchor-0" 284 0 basechar 0
LayerCount: 2
Fore
SplineSet
462 1490 m 1,0,-1
 462 0 l 1,1,-1
 106 0 l 1,2,-1
 106 1490 l 1,3,-1
 462 1490 l 1,0,-1
EndSplineSet
Substitution2: "'c2sc' Capitals to Small Capitals in Latin lookup 68 subtable" i.sc
Substitution2: "'cv08' Character Variants 08 in Latin lookup 62 subtable" I.1
Substitution2: "'ss06' Style Set 6 in Latin lookup 52 subtable" I.squared
Substitution2: "'ss05' Style Set 5 in Latin lookup 51 subtable" uni24BE
Substitution2: "'ss04' Style Set 4 in Latin lookup 50 subtable" I.1
Substitution2: "'ss02' Style Set 2 in Latin lookup 48 subtable" I.1
Substitution2: "'salt' Stylistic Alternatives in Latin lookup 46 subtable" I.1
Substitution2: "'aalt' Access All Alternates in Latin lookup 0 subtable" i.sc
Position2: "'cpsp' Capital Spacing in Latin lookup 0 subtable" dx=0 dy=0 dh=0 dv=0
EndChar

StartChar: I.1
Encoding: 57356 57356 235
Width: 927
GlyphClass: 2
Flags: W
AnchorPoint: "Anchor-4" 865 0 basechar 0
AnchorPoint: "Anchor-1" 464 1490 basechar 0
AnchorPoint: "Anchor-0" 464 0 basechar 0
LayerCount: 2
Fore
SplineSet
62 0 m 1,0,-1
 62 287 l 1,1,-1
 285 287 l 1,2,-1
 285 1203 l 1,3,-1
 62 1203 l 1,4,-1
 62 1490 l 1,5,-1
 865 1490 l 1,6,-1
 865 1203 l 1,7,-1
 641 1203 l 1,8,-1
 641 287 l 1,9,-1
 865 287 l 1,10,-1
 865 0 l 1,11,-1
 62 0 l 1,0,-1
EndSplineSet
EndChar

StartChar: J
Encoding: 74 74 267
Width: 1191
GlyphClass: 2
Flags: W
AnchorPoint: "Anchor-1" 909 1490 basechar 0
LayerCount: 2
Fore
SplineSet
568 -22 m 0,0,1
 325 -22 325 -22 189.5 103 c 128,-1,2
 54 228 54 228 54 459 c 2,3,-1
 54 559 l 1,4,-1
 398 559 l 1,5,-1
 398 455 l 2,6,7
 398 364 398 364 442 316.5 c 128,-1,8
 486 269 486 269 565 269 c 0,9,10
 643 269 643 269 687.5 316.5 c 128,-1,11
 732 364 732 364 732 455 c 2,12,-1
 732 1490 l 1,13,-1
 1086 1490 l 1,14,-1
 1086 455 l 2,15,16
 1086 226 1086 226 949.5 102 c 128,-1,17
 813 -22 813 -22 568 -22 c 0,0,1
EndSplineSet
Substitution2: "'ss06' Style Set 6 in Latin lookup 52 subtable" J.squared
Substitution2: "'ss05' Style Set 5 in Latin lookup 51 subtable" uni24BF
Position2: "'cpsp' Capital Spacing in Latin lookup 0 subtable" dx=0 dy=0 dh=0 dv=0
EndChar

StartChar: K
Encoding: 75 75 272
Width: 1480
GlyphClass: 2
Flags: W
AnchorPoint: "Anchor-1" 728 1490 basechar 0
AnchorPoint: "Anchor-0" 728 0 basechar 0
LayerCount: 2
Fore
SplineSet
370 282 m 1,0,-1
 370 657 l 1,1,2
 417 734 417 734 463 801.5 c 128,-1,3
 509 869 509 869 561 937 c 128,-1,4
 613 1005 613 1005 675 1084 c 2,5,-1
 1008 1490 l 1,6,-1
 1431 1490 l 1,7,-1
 804 744 l 1,8,-1
 774 751 l 1,9,-1
 370 282 l 1,0,-1
106 0 m 1,10,-1
 106 1490 l 1,11,-1
 462 1490 l 1,12,-1
 462 1124 l 1,13,-1
 460 721 l 1,14,-1
 462 550 l 1,15,-1
 462 0 l 1,16,-1
 106 0 l 1,10,-1
1038 0 m 1,17,-1
 635 639 l 1,18,-1
 853 905 l 1,19,-1
 1453 0 l 1,20,-1
 1038 0 l 1,17,-1
EndSplineSet
Substitution2: "'ss06' Style Set 6 in Latin lookup 52 subtable" K.squared
Substitution2: "'ss05' Style Set 5 in Latin lookup 51 subtable" uni24C0
Position2: "'cpsp' Capital Spacing in Latin lookup 0 subtable" dx=0 dy=0 dh=0 dv=0
EndChar

StartChar: uni04A0
Encoding: 1184 1184 278
Width: 1822
GlyphClass: 2
Flags: W
AnchorPoint: "Anchor-1" 1038 1490 basechar 0
LayerCount: 2
Fore
SplineSet
619 1490 m 1,0,-1
 619 1194 l 1,1,-1
 54 1194 l 1,2,-1
 54 1490 l 1,3,-1
 619 1490 l 1,0,-1
449 0 m 1,4,-1
 449 1490 l 1,5,-1
 805 1490 l 1,6,-1
 805 909 l 1,7,-1
 942 909 l 1,8,-1
 1355 1490 l 1,9,-1
 1769 1490 l 1,10,-1
 1231 766 l 1,11,-1
 1795 0 l 1,12,-1
 1381 0 l 1,13,-1
 941 614 l 1,14,-1
 805 614 l 1,15,-1
 805 0 l 1,16,-1
 449 0 l 1,4,-1
EndSplineSet
Position2: "'cpsp' Capital Spacing in Latin lookup 0 subtable" dx=0 dy=0 dh=0 dv=0
EndChar

StartChar: uni0198
Encoding: 408 408 280
Width: 1506
Flags: W
LayerCount: 2
Fore
SplineSet
106 0 m 1,0,-1
 106 1490 l 1,1,-1
 458 1490 l 1,2,-1
 458 876 l 1,3,-1
 477 876 l 1,4,-1
 940 1357 l 2,5,6
 1021 1440 1021 1440 1112 1478 c 128,-1,7
 1203 1516 1203 1516 1301.5 1507 c 128,-1,8
 1400 1498 1400 1498 1504 1439 c 1,9,-1
 1395 1192 l 1,10,11
 1330 1224 1330 1224 1287.5 1206 c 128,-1,12
 1245 1188 1245 1188 1196 1138 c 2,13,-1
 864 799 l 1,14,-1
 1476 0 l 1,15,-1
 1055 0 l 1,16,-1
 639 548 l 1,17,-1
 458 357 l 1,18,-1
 458 0 l 1,19,-1
 106 0 l 1,0,-1
EndSplineSet
Position2: "'cpsp' Capital Spacing in Latin lookup 0 subtable" dx=0 dy=0 dh=0 dv=0
EndChar

StartChar: L
Encoding: 76 76 282
Width: 1158
GlyphClass: 2
Flags: W
AnchorPoint: "Anchor-1" 284 1490 basechar 0
AnchorPoint: "Anchor-0" 597 0 basechar 0
LayerCount: 2
Fore
SplineSet
106 0 m 1,0,-1
 106 1490 l 1,1,-1
 462 1490 l 1,2,-1
 462 297 l 1,3,-1
 1104 297 l 1,4,-1
 1104 0 l 1,5,-1
 106 0 l 1,0,-1
EndSplineSet
Substitution2: "'c2sc' Capitals to Small Capitals in Latin lookup 68 subtable" l.sc
Substitution2: "'ss06' Style Set 6 in Latin lookup 52 subtable" L.squared
Substitution2: "'ss05' Style Set 5 in Latin lookup 51 subtable" uni24C1
Substitution2: "'aalt' Access All Alternates in Latin lookup 0 subtable" l.sc
Position2: "'cpsp' Capital Spacing in Latin lookup 0 subtable" dx=0 dy=0 dh=0 dv=0
EndChar

StartChar: M
Encoding: 77 77 293
Width: 1896
GlyphClass: 2
Flags: W
AnchorPoint: "Anchor-1" 949 1490 basechar 0
AnchorPoint: "Anchor-0" 949 0 basechar 0
LayerCount: 2
Fore
SplineSet
106 0 m 1,0,-1
 106 1490 l 1,1,-1
 648 1490 l 1,2,-1
 838 908 l 2,3,4
 854 855 854 855 875.5 772.5 c 128,-1,5
 897 690 897 690 919 597.5 c 128,-1,6
 941 505 941 505 959.5 420.5 c 128,-1,7
 978 336 978 336 990 276 c 1,8,-1
 910 276 l 1,9,10
 922 336 922 336 940.5 421 c 128,-1,11
 959 506 959 506 980.5 598 c 128,-1,12
 1002 690 1002 690 1023 772 c 128,-1,13
 1044 854 1044 854 1061 908 c 2,14,-1
 1250 1490 l 1,15,-1
 1790 1490 l 1,16,-1
 1790 0 l 1,17,-1
 1436 0 l 1,18,-1
 1436 644 l 2,19,20
 1436 694 1436 694 1438.5 770.5 c 128,-1,21
 1441 847 1441 847 1443.5 936.5 c 128,-1,22
 1446 1026 1446 1026 1448 1117.5 c 128,-1,23
 1450 1209 1450 1209 1451 1288 c 1,24,-1
 1483 1288 l 1,25,26
 1462 1203 1462 1203 1438 1110.5 c 128,-1,27
 1414 1018 1414 1018 1390 930 c 128,-1,28
 1366 842 1366 842 1345 767.5 c 128,-1,29
 1324 693 1324 693 1308 644 c 2,30,-1
 1096 0 l 1,31,-1
 802 0 l 1,32,-1
 586 644 l 2,33,34
 571 694 571 694 549.5 767.5 c 128,-1,35
 528 841 528 841 503.5 929 c 128,-1,36
 479 1017 479 1017 454.5 1110 c 128,-1,37
 430 1203 430 1203 408 1288 c 1,38,-1
 445 1288 l 1,39,40
 446 1209 446 1209 448.5 1118.5 c 128,-1,41
 451 1028 451 1028 453 938 c 128,-1,42
 455 848 455 848 457.5 771 c 128,-1,43
 460 694 460 694 460 644 c 2,44,-1
 460 0 l 1,45,-1
 106 0 l 1,0,-1
EndSplineSet
Substitution2: "'c2sc' Capitals to Small Capitals in Latin lookup 68 subtable" m.sc
Substitution2: "'ss06' Style Set 6 in Latin lookup 52 subtable" M.squared
Substitution2: "'ss05' Style Set 5 in Latin lookup 51 subtable" uni24C2
Substitution2: "'aalt' Access All Alternates in Latin lookup 0 subtable" m.sc
Position2: "'cpsp' Capital Spacing in Latin lookup 0 subtable" dx=0 dy=0 dh=0 dv=0
EndChar

StartChar: N
Encoding: 78 78 301
Width: 1534
GlyphClass: 2
Flags: W
AnchorPoint: "Anchor-1" 768 1490 basechar 0
AnchorPoint: "Anchor-0" 768 0 basechar 0
LayerCount: 2
Fore
SplineSet
106 0 m 1,0,-1
 106 1490 l 1,1,-1
 487 1490 l 1,2,-1
 906 816 l 2,3,4
 938 764 938 764 974.5 697 c 128,-1,5
 1011 630 1011 630 1050 550.5 c 128,-1,6
 1089 471 1089 471 1125 384 c 1,7,-1
 1088 335 l 1,8,9
 1082 413 1082 413 1077.5 511 c 128,-1,10
 1073 609 1073 609 1070 700.5 c 128,-1,11
 1067 792 1067 792 1067 850 c 2,12,-1
 1067 1490 l 1,13,-1
 1428 1490 l 1,14,-1
 1428 0 l 1,15,-1
 1046 0 l 1,16,-1
 661 619 l 2,17,18
 623 684 623 684 580.5 759 c 128,-1,19
 538 834 538 834 492 923.5 c 128,-1,20
 446 1013 446 1013 392 1123 c 1,21,-1
 446 1138 l 1,22,23
 453 1030 453 1030 457.5 930.5 c 128,-1,24
 462 831 462 831 465 750 c 128,-1,25
 468 669 468 669 468 619 c 2,26,-1
 468 0 l 1,27,-1
 106 0 l 1,0,-1
EndSplineSet
Substitution2: "'c2sc' Capitals to Small Capitals in Latin lookup 68 subtable" n.sc
Substitution2: "'ss06' Style Set 6 in Latin lookup 52 subtable" N.squared
Substitution2: "'ss05' Style Set 5 in Latin lookup 51 subtable" uni24C3
Substitution2: "'aalt' Access All Alternates in Latin lookup 0 subtable" n.sc
Position2: "'cpsp' Capital Spacing in Latin lookup 0 subtable" dx=0 dy=0 dh=0 dv=0
EndChar

StartChar: Nhook
Encoding: 413 413 311
Width: 1534
GlyphClass: 2
Flags: W
AnchorPoint: "Anchor-1" 768 1490 basechar 0
AnchorPoint: "Anchor-0" 768 0 basechar 0
LayerCount: 2
Fore
SplineSet
-110 -417 m 1,0,-1
 -110 -144 l 1,1,2
 -88 -147 -88 -147 -58 -148 c 128,-1,3
 -28 -149 -28 -149 4 -149 c 0,4,5
 61 -149 61 -149 83.5 -129 c 128,-1,6
 106 -109 106 -109 106 -63 c 2,7,-1
 106 122 l 1,8,-1
 462 122 l 1,9,-1
 462 -83 l 2,10,11
 462 -254 462 -254 365 -340.5 c 128,-1,12
 268 -427 268 -427 73 -427 c 0,13,14
 18 -427 18 -427 -29 -424.5 c 128,-1,15
 -76 -422 -76 -422 -110 -417 c 1,0,-1
106 0 m 1,16,-1
 106 1490 l 1,17,-1
 487 1490 l 1,18,-1
 906 816 l 2,19,20
 938 764 938 764 974.5 697 c 128,-1,21
 1011 630 1011 630 1050 550.5 c 128,-1,22
 1089 471 1089 471 1125 384 c 1,23,-1
 1088 335 l 1,24,25
 1082 413 1082 413 1077.5 511 c 128,-1,26
 1073 609 1073 609 1070 700.5 c 128,-1,27
 1067 792 1067 792 1067 850 c 2,28,-1
 1067 1490 l 1,29,-1
 1428 1490 l 1,30,-1
 1428 0 l 1,31,-1
 1046 0 l 1,32,-1
 661 619 l 2,33,34
 623 684 623 684 580.5 759 c 128,-1,35
 538 834 538 834 492 923.5 c 128,-1,36
 446 1013 446 1013 392 1123 c 1,37,-1
 446 1138 l 1,38,39
 453 1030 453 1030 457.5 930.5 c 128,-1,40
 462 831 462 831 465 750 c 128,-1,41
 468 669 468 669 468 619 c 2,42,-1
 468 0 l 1,43,-1
 106 0 l 1,16,-1
EndSplineSet
Position2: "'cpsp' Capital Spacing in Latin lookup 0 subtable" dx=0 dy=0 dh=0 dv=0
EndChar

StartChar: Eng
Encoding: 330 330 312
Width: 1534
GlyphClass: 2
Flags: W
AnchorPoint: "Anchor-1" 768 1490 basechar 0
AnchorPoint: "Anchor-0" 768 0 basechar 0
LayerCount: 2
Fore
SplineSet
856 -417 m 1,0,-1
 856 -144 l 1,1,2
 878 -147 878 -147 908 -148 c 128,-1,3
 938 -149 938 -149 970 -149 c 0,4,5
 1027 -149 1027 -149 1049.5 -129 c 128,-1,6
 1072 -109 1072 -109 1072 -63 c 2,7,-1
 1072 122 l 1,8,-1
 1428 122 l 1,9,-1
 1428 -83 l 2,10,11
 1428 -254 1428 -254 1331 -340.5 c 128,-1,12
 1234 -427 1234 -427 1039 -427 c 0,13,14
 984 -427 984 -427 937 -424.5 c 128,-1,15
 890 -422 890 -422 856 -417 c 1,0,-1
106 0 m 1,16,-1
 106 1490 l 1,17,-1
 487 1490 l 1,18,-1
 906 816 l 2,19,20
 938 764 938 764 974.5 697 c 128,-1,21
 1011 630 1011 630 1050 550.5 c 128,-1,22
 1089 471 1089 471 1125 384 c 1,23,-1
 1088 335 l 1,24,25
 1082 413 1082 413 1077.5 511 c 128,-1,26
 1073 609 1073 609 1070 700.5 c 128,-1,27
 1067 792 1067 792 1067 850 c 2,28,-1
 1067 1490 l 1,29,-1
 1428 1490 l 1,30,-1
 1428 0 l 1,31,-1
 1046 0 l 1,32,-1
 661 619 l 2,33,34
 623 684 623 684 580.5 759 c 128,-1,35
 538 834 538 834 492 923.5 c 128,-1,36
 446 1013 446 1013 392 1123 c 1,37,-1
 446 1138 l 1,38,39
 453 1030 453 1030 457.5 930.5 c 128,-1,40
 462 831 462 831 465 750 c 128,-1,41
 468 669 468 669 468 619 c 2,42,-1
 468 0 l 1,43,-1
 106 0 l 1,16,-1
EndSplineSet
Position2: "'cpsp' Capital Spacing in Latin lookup 0 subtable" dx=0 dy=0 dh=0 dv=0
EndChar

StartChar: uni0418
Encoding: 1048 1048 313
Width: 1534
GlyphClass: 2
Flags: W
AnchorPoint: "Anchor-1" 749 1490 basechar 0
AnchorPoint: "Anchor-0" 766 0 basechar 0
LayerCount: 2
Fore
SplineSet
1428 0 m 1,0,-1
 1066 0 l 1,1,-1
 1066 619 l 2,2,3
 1066 669 1066 669 1069 750 c 128,-1,4
 1072 831 1072 831 1076.5 930.5 c 128,-1,5
 1081 1030 1081 1030 1088 1138 c 1,6,-1
 1142 1123 l 1,7,8
 1088 1013 1088 1013 1042 923.5 c 128,-1,9
 996 834 996 834 954.5 759 c 128,-1,10
 913 684 913 684 873 619 c 2,11,-1
 488 0 l 1,12,-1
 106 0 l 1,13,-1
 106 1490 l 1,14,-1
 467 1490 l 1,15,-1
 467 850 l 2,16,17
 467 792 467 792 464 700.5 c 128,-1,18
 461 609 461 609 456 511 c 128,-1,19
 451 413 451 413 446 335 c 1,20,-1
 409 384 l 1,21,22
 446 471 446 471 484.5 550.5 c 128,-1,23
 523 630 523 630 560 697 c 128,-1,24
 597 764 597 764 628 816 c 2,25,-1
 1047 1490 l 1,26,-1
 1428 1490 l 1,27,-1
 1428 0 l 1,0,-1
EndSplineSet
Position2: "'cpsp' Capital Spacing in Latin lookup 0 subtable" dx=0 dy=0 dh=0 dv=0
EndChar

StartChar: O
Encoding: 79 79 322
Width: 1556
GlyphClass: 2
Flags: W
AnchorPoint: "Anchor-4" 1489 744 basechar 0
AnchorPoint: "Anchor-1" 779 1490 basechar 0
AnchorPoint: "Anchor-0" 779 0 basechar 0
LayerCount: 2
Fore
SplineSet
779 -22 m 0,0,1
 578 -22 578 -22 416.5 68.5 c 128,-1,2
 255 159 255 159 161 330.5 c 128,-1,3
 67 502 67 502 67 744 c 0,4,5
 67 989 67 989 161 1160.5 c 128,-1,6
 255 1332 255 1332 416.5 1422 c 128,-1,7
 578 1512 578 1512 779 1512 c 0,8,9
 979 1512 979 1512 1140.5 1422 c 128,-1,10
 1302 1332 1302 1332 1395.5 1160.5 c 128,-1,11
 1489 989 1489 989 1489 744 c 0,12,13
 1489 501 1489 501 1395.5 330 c 128,-1,14
 1302 159 1302 159 1140.5 68.5 c 128,-1,15
 979 -22 979 -22 779 -22 c 0,0,1
779 290 m 0,16,17
 886 290 886 290 964.5 343 c 128,-1,18
 1043 396 1043 396 1085.5 497.5 c 128,-1,19
 1128 599 1128 599 1128 744 c 0,20,21
 1128 891 1128 891 1085.5 992.5 c 128,-1,22
 1043 1094 1043 1094 964.5 1147 c 128,-1,23
 886 1200 886 1200 779 1200 c 0,24,25
 671 1200 671 1200 592.5 1147.5 c 128,-1,26
 514 1095 514 1095 472 993 c 128,-1,27
 430 891 430 891 430 744 c 0,28,29
 430 599 430 599 472 498 c 128,-1,30
 514 397 514 397 592.5 343.5 c 128,-1,31
 671 290 671 290 779 290 c 0,16,17
EndSplineSet
Substitution2: "'ss06' Style Set 6 in Latin lookup 52 subtable" O.squared
Substitution2: "'ss05' Style Set 5 in Latin lookup 51 subtable" uni24C4
Substitution2: "Single Substitution lookup 44 subtable" ordmasculine
Substitution2: "'aalt' Access All Alternates in Latin lookup 0 subtable" ordmasculine
Position2: "'cpsp' Capital Spacing in Latin lookup 0 subtable" dx=0 dy=0 dh=0 dv=0
EndChar

StartChar: Ohorn
Encoding: 416 416 326
Width: 1571
GlyphClass: 2
Flags: W
AnchorPoint: "Anchor-4" 1489 744 basechar 0
AnchorPoint: "Anchor-1" 779 1490 basechar 0
AnchorPoint: "Anchor-0" 779 0 basechar 0
LayerCount: 2
Fore
SplineSet
786 1300 m 1,0,-1
 786 1512 l 1,1,2
 833 1512 833 1512 869.5 1509 c 128,-1,3
 906 1506 906 1506 944.5 1501.5 c 128,-1,4
 983 1497 983 1497 1034.5 1493.5 c 128,-1,5
 1086 1490 1086 1490 1162 1490 c 0,6,7
 1190 1490 1190 1490 1190 1519 c 2,8,-1
 1190 1714 l 1,9,-1
 1496 1714 l 1,10,-1
 1496 1489 l 2,11,12
 1496 1379 1496 1379 1429 1331 c 128,-1,13
 1362 1283 1362 1283 1259 1283 c 0,14,15
 1205 1283 1205 1283 1152.5 1286 c 128,-1,16
 1100 1289 1100 1289 1044 1292.5 c 128,-1,17
 988 1296 988 1296 925 1298 c 128,-1,18
 862 1300 862 1300 786 1300 c 1,0,-1
779 -22 m 0,19,20
 578 -22 578 -22 416.5 68.5 c 128,-1,21
 255 159 255 159 161 330.5 c 128,-1,22
 67 502 67 502 67 744 c 0,23,24
 67 989 67 989 161 1160.5 c 128,-1,25
 255 1332 255 1332 416.5 1422 c 128,-1,26
 578 1512 578 1512 779 1512 c 0,27,28
 979 1512 979 1512 1140.5 1422 c 128,-1,29
 1302 1332 1302 1332 1395.5 1160.5 c 128,-1,30
 1489 989 1489 989 1489 744 c 0,31,32
 1489 501 1489 501 1395.5 330 c 128,-1,33
 1302 159 1302 159 1140.5 68.5 c 128,-1,34
 979 -22 979 -22 779 -22 c 0,19,20
779 290 m 0,35,36
 886 290 886 290 964.5 343 c 128,-1,37
 1043 396 1043 396 1085.5 497.5 c 128,-1,38
 1128 599 1128 599 1128 744 c 0,39,40
 1128 891 1128 891 1085.5 992.5 c 128,-1,41
 1043 1094 1043 1094 964.5 1147 c 128,-1,42
 886 1200 886 1200 779 1200 c 0,43,44
 671 1200 671 1200 592.5 1147.5 c 128,-1,45
 514 1095 514 1095 472 993 c 128,-1,46
 430 891 430 891 430 744 c 0,47,48
 430 599 430 599 472 498 c 128,-1,49
 514 397 514 397 592.5 343.5 c 128,-1,50
 671 290 671 290 779 290 c 0,35,36
EndSplineSet
Position2: "'cpsp' Capital Spacing in Latin lookup 0 subtable" dx=0 dy=0 dh=0 dv=0
EndChar

StartChar: uni03F4
Encoding: 1012 1012 368
Width: 1556
GlyphClass: 2
Flags: W
AnchorPoint: "Anchor-4" 1489 744 basechar 0
AnchorPoint: "Anchor-1" 779 1490 basechar 0
AnchorPoint: "Anchor-0" 779 0 basechar 0
LayerCount: 2
Fore
SplineSet
1267 853 m 1,0,-1
 1267 637 l 1,1,-1
 326 637 l 1,2,-1
 326 853 l 1,3,-1
 1267 853 l 1,0,-1
779 -22 m 0,4,5
 578 -22 578 -22 416.5 68.5 c 128,-1,6
 255 159 255 159 161 330.5 c 128,-1,7
 67 502 67 502 67 744 c 0,8,9
 67 989 67 989 161 1160.5 c 128,-1,10
 255 1332 255 1332 416.5 1422 c 128,-1,11
 578 1512 578 1512 779 1512 c 0,12,13
 979 1512 979 1512 1140.5 1422 c 128,-1,14
 1302 1332 1302 1332 1395.5 1160.5 c 128,-1,15
 1489 989 1489 989 1489 744 c 0,16,17
 1489 501 1489 501 1395.5 330 c 128,-1,18
 1302 159 1302 159 1140.5 68.5 c 128,-1,19
 979 -22 979 -22 779 -22 c 0,4,5
779 290 m 0,20,21
 886 290 886 290 964.5 343 c 128,-1,22
 1043 396 1043 396 1085.5 497.5 c 128,-1,23
 1128 599 1128 599 1128 744 c 0,24,25
 1128 891 1128 891 1085.5 992.5 c 128,-1,26
 1043 1094 1043 1094 964.5 1147 c 128,-1,27
 886 1200 886 1200 779 1200 c 0,28,29
 671 1200 671 1200 592.5 1147.5 c 128,-1,30
 514 1095 514 1095 472 993 c 128,-1,31
 430 891 430 891 430 744 c 0,32,33
 430 599 430 599 472 498 c 128,-1,34
 514 397 514 397 592.5 343.5 c 128,-1,35
 671 290 671 290 779 290 c 0,20,21
EndSplineSet
Position2: "'cpsp' Capital Spacing in Latin lookup 0 subtable" dx=0 dy=0 dh=0 dv=0
EndChar

StartChar: OE
Encoding: 338 338 375
Width: 2117
GlyphClass: 2
Flags: W
AnchorPoint: "Anchor-4" 2036 0 basechar 0
AnchorPoint: "Anchor-3" 1503 0 basechar 0
AnchorPoint: "Anchor-1" 1500 1490 basechar 0
AnchorPoint: "Anchor-0" 1500 0 basechar 0
LayerCount: 2
Fore
SplineSet
801 0 m 2,0,1
 577 0 577 0 412.5 91 c 128,-1,2
 248 182 248 182 157.5 349.5 c 128,-1,3
 67 517 67 517 67 744 c 0,4,5
 67 974 67 974 158 1141.5 c 128,-1,6
 249 1309 249 1309 414 1399.5 c 128,-1,7
 579 1490 579 1490 803 1490 c 2,8,-1
 1171 1490 l 1,9,-1
 1171 1189 l 1,10,-1
 823 1189 l 2,11,12
 692 1189 692 1189 603.5 1142.5 c 128,-1,13
 515 1096 515 1096 470 997.5 c 128,-1,14
 425 899 425 899 425 744 c 0,15,16
 425 592 425 592 469.5 493.5 c 128,-1,17
 514 395 514 395 601 348 c 128,-1,18
 688 301 688 301 816 301 c 2,19,-1
 1165 301 l 1,20,-1
 1165 0 l 1,21,-1
 801 0 l 2,0,1
965 0 m 1,22,-1
 965 1490 l 1,23,-1
 2036 1490 l 1,24,-1
 2036 1193 l 1,25,-1
 1321 1193 l 1,26,-1
 1321 896 l 1,27,-1
 1981 896 l 1,28,-1
 1981 607 l 1,29,-1
 1321 607 l 1,30,-1
 1321 297 l 1,31,-1
 2036 297 l 1,32,-1
 2036 0 l 1,33,-1
 965 0 l 1,22,-1
EndSplineSet
Substitution2: "'c2sc' Capitals to Small Capitals in Latin lookup 68 subtable" oe.sc
Substitution2: "'aalt' Access All Alternates in Latin lookup 0 subtable" oe.sc
Position2: "'cpsp' Capital Spacing in Latin lookup 0 subtable" dx=0 dy=0 dh=0 dv=0
EndChar

StartChar: P
Encoding: 80 80 376
Width: 1323
GlyphClass: 2
Flags: W
AnchorPoint: "Anchor-1" 651 1490 basechar 0
LayerCount: 2
Fore
SplineSet
106 0 m 1,0,-1
 106 1490 l 1,1,-1
 716 1490 l 2,2,3
 887 1490 887 1490 1010.5 1427 c 128,-1,4
 1134 1364 1134 1364 1201 1249.5 c 128,-1,5
 1268 1135 1268 1135 1268 981 c 256,6,7
 1268 827 1268 827 1200.5 713.5 c 128,-1,8
 1133 600 1133 600 1007.5 537 c 128,-1,9
 882 474 882 474 710 474 c 2,10,-1
 319 474 l 1,11,-1
 319 763 l 1,12,-1
 666 763 l 2,13,14
 744 763 744 763 798.5 790 c 128,-1,15
 853 817 853 817 881.5 866 c 128,-1,16
 910 915 910 915 910 981 c 0,17,18
 910 1049 910 1049 881.5 1097 c 128,-1,19
 853 1145 853 1145 798.5 1172 c 128,-1,20
 744 1199 744 1199 666 1199 c 2,21,-1
 462 1199 l 1,22,-1
 462 0 l 1,23,-1
 106 0 l 1,0,-1
EndSplineSet
Substitution2: "'ss06' Style Set 6 in Latin lookup 52 subtable" P.squared
Substitution2: "'ss05' Style Set 5 in Latin lookup 51 subtable" uni24C5
Position2: "'cpsp' Capital Spacing in Latin lookup 0 subtable" dx=0 dy=0 dh=0 dv=0
EndChar

StartChar: uni048E
Encoding: 1166 1166 379
Width: 1349
GlyphClass: 2
Flags: W
AnchorPoint: "Anchor-1" 660 1490 basechar 0
LayerCount: 2
Fore
SplineSet
732 984 m 1,0,-1
 1118 386 l 1,1,-1
 987 302 l 1,2,-1
 600 899 l 1,3,-1
 732 984 l 1,0,-1
115 0 m 1,4,-1
 115 1490 l 1,5,-1
 726 1490 l 2,6,7
 896 1490 896 1490 1019.5 1427 c 128,-1,8
 1143 1364 1143 1364 1210 1249.5 c 128,-1,9
 1277 1135 1277 1135 1277 981 c 256,10,11
 1277 827 1277 827 1209.5 713.5 c 128,-1,12
 1142 600 1142 600 1016.5 537 c 128,-1,13
 891 474 891 474 719 474 c 2,14,-1
 328 474 l 1,15,-1
 328 763 l 1,16,-1
 675 763 l 2,17,18
 754 763 754 763 808.5 790 c 128,-1,19
 863 817 863 817 891.5 866 c 128,-1,20
 920 915 920 915 920 981 c 0,21,22
 920 1049 920 1049 891.5 1097 c 128,-1,23
 863 1145 863 1145 808.5 1172 c 128,-1,24
 754 1199 754 1199 675 1199 c 2,25,-1
 471 1199 l 1,26,-1
 471 0 l 1,27,-1
 115 0 l 1,4,-1
EndSplineSet
Position2: "'cpsp' Capital Spacing in Latin lookup 0 subtable" dx=0 dy=0 dh=0 dv=0
EndChar

StartChar: uni01A4
Encoding: 420 420 380
Width: 1755
GlyphClass: 2
Flags: W
AnchorPoint: "Anchor-1" 1083 1490 basechar 0
LayerCount: 2
Fore
SplineSet
38 1036 m 1,0,-1
 38 1140 l 2,1,2
 38 1310 38 1310 133.5 1400 c 128,-1,3
 229 1490 229 1490 422 1490 c 2,4,-1
 540 1490 l 1,5,-1
 540 1199 l 1,6,-1
 474 1199 l 2,7,8
 419 1199 419 1199 392 1174.5 c 128,-1,9
 365 1150 365 1150 365 1102 c 2,10,-1
 365 1036 l 1,11,-1
 38 1036 l 1,0,-1
538 0 m 1,12,-1
 538 1490 l 1,13,-1
 1148 1490 l 2,14,15
 1319 1490 1319 1490 1442.5 1427 c 128,-1,16
 1566 1364 1566 1364 1633 1249.5 c 128,-1,17
 1700 1135 1700 1135 1700 981 c 256,18,19
 1700 827 1700 827 1632.5 713.5 c 128,-1,20
 1565 600 1565 600 1439.5 537 c 128,-1,21
 1314 474 1314 474 1142 474 c 2,22,-1
 751 474 l 1,23,-1
 751 763 l 1,24,-1
 1098 763 l 2,25,26
 1176 763 1176 763 1230.5 790 c 128,-1,27
 1285 817 1285 817 1313.5 866 c 128,-1,28
 1342 915 1342 915 1342 981 c 0,29,30
 1342 1049 1342 1049 1313.5 1097 c 128,-1,31
 1285 1145 1285 1145 1230.5 1172 c 128,-1,32
 1176 1199 1176 1199 1098 1199 c 2,33,-1
 894 1199 l 1,34,-1
 894 0 l 1,35,-1
 538 0 l 1,12,-1
EndSplineSet
Position2: "'cpsp' Capital Spacing in Latin lookup 0 subtable" dx=0 dy=0 dh=0 dv=0
EndChar

StartChar: Q
Encoding: 81 81 383
Width: 1565
GlyphClass: 2
Flags: W
AnchorPoint: "Anchor-4" 1489 744 basechar 0
AnchorPoint: "Anchor-1" 779 1490 basechar 0
AnchorPoint: "Anchor-0" 779 0 basechar 0
LayerCount: 2
Fore
SplineSet
656 531 m 1,0,-1
 942 531 l 1,1,-1
 1068 371 l 1,2,-1
 1224 192 l 1,3,-1
 1477 -117 l 1,4,-1
 1160 -117 l 1,5,-1
 989 92 l 1,6,-1
 880 236 l 1,7,-1
 656 531 l 1,0,-1
779 -22 m 0,8,9
 578 -22 578 -22 416.5 68.5 c 128,-1,10
 255 159 255 159 161 330.5 c 128,-1,11
 67 502 67 502 67 744 c 0,12,13
 67 989 67 989 161 1160.5 c 128,-1,14
 255 1332 255 1332 416.5 1422 c 128,-1,15
 578 1512 578 1512 779 1512 c 0,16,17
 979 1512 979 1512 1140.5 1422 c 128,-1,18
 1302 1332 1302 1332 1395.5 1160.5 c 128,-1,19
 1489 989 1489 989 1489 744 c 0,20,21
 1489 501 1489 501 1395.5 330 c 128,-1,22
 1302 159 1302 159 1140.5 68.5 c 128,-1,23
 979 -22 979 -22 779 -22 c 0,8,9
779 290 m 0,24,25
 886 290 886 290 964.5 343 c 128,-1,26
 1043 396 1043 396 1085.5 497.5 c 128,-1,27
 1128 599 1128 599 1128 744 c 0,28,29
 1128 891 1128 891 1085.5 992.5 c 128,-1,30
 1043 1094 1043 1094 964.5 1147 c 128,-1,31
 886 1200 886 1200 779 1200 c 0,32,33
 671 1200 671 1200 592.5 1147.5 c 128,-1,34
 514 1095 514 1095 472 993 c 128,-1,35
 430 891 430 891 430 744 c 0,36,37
 430 599 430 599 472 498 c 128,-1,38
 514 397 514 397 592.5 343.5 c 128,-1,39
 671 290 671 290 779 290 c 0,24,25
EndSplineSet
Substitution2: "'ss06' Style Set 6 in Latin lookup 52 subtable" Q.squared
Substitution2: "'ss05' Style Set 5 in Latin lookup 51 subtable" uni24C6
Position2: "'cpsp' Capital Spacing in Latin lookup 0 subtable" dx=0 dy=0 dh=0 dv=0
EndChar

StartChar: Q_rthook
Encoding: 586 586 384
Width: 1567
GlyphClass: 2
Flags: W
LayerCount: 2
Fore
SplineSet
1461 1490 m 1,0,-1
 1461 0 l 1,1,-1
 1114 0 l 1,2,-1
 1114 214 l 1,3,-1
 1108 214 l 1,4,5
 1051 108 1051 108 945 43.5 c 128,-1,6
 839 -21 839 -21 694 -21 c 0,7,8
 557 -21 557 -21 442.5 37 c 128,-1,9
 328 95 328 95 243.5 198.5 c 128,-1,10
 159 302 159 302 113 442 c 128,-1,11
 67 582 67 582 67 746 c 0,12,13
 67 909 67 909 114 1048.5 c 128,-1,14
 161 1188 161 1188 245.5 1292 c 128,-1,15
 330 1396 330 1396 444.5 1453 c 128,-1,16
 559 1510 559 1510 694 1510 c 0,17,18
 838 1510 838 1510 944 1446 c 128,-1,19
 1050 1382 1050 1382 1108 1279 c 1,20,-1
 1114 1279 l 1,21,-1
 1114 1490 l 1,22,-1
 1461 1490 l 1,0,-1
770 288 m 0,23,24
 882 288 882 288 958.5 343.5 c 128,-1,25
 1035 399 1035 399 1074.5 501.5 c 128,-1,26
 1114 604 1114 604 1114 745 c 0,27,28
 1114 888 1114 888 1074.5 990.5 c 128,-1,29
 1035 1093 1035 1093 958.5 1147.5 c 128,-1,30
 882 1202 882 1202 770 1202 c 0,31,32
 663 1202 663 1202 586 1147.5 c 128,-1,33
 509 1093 509 1093 468.5 991 c 128,-1,34
 428 889 428 889 428 745 c 256,35,36
 428 601 428 601 469 498.5 c 128,-1,37
 510 396 510 396 586.5 342 c 128,-1,38
 663 288 663 288 770 288 c 0,23,24
1497 -427 m 0,39,40
 1304 -427 1304 -427 1209 -340.5 c 128,-1,41
 1114 -254 1114 -254 1114 -83 c 2,42,-1
 1114 0 l 1,43,-1
 1461 0 l 1,44,-1
 1461 -74 l 2,45,46
 1461 -121 1461 -121 1485.5 -141.5 c 128,-1,47
 1510 -162 1510 -162 1565 -162 c 0,48,49
 1597 -162 1597 -162 1627.5 -161.5 c 128,-1,50
 1658 -161 1658 -161 1680 -159 c 1,51,-1
 1680 -417 l 1,52,53
 1646 -422 1646 -422 1599.5 -424.5 c 128,-1,54
 1553 -427 1553 -427 1497 -427 c 0,39,40
EndSplineSet
Position2: "'cpsp' Capital Spacing in Latin lookup 0 subtable" dx=0 dy=0 dh=0 dv=0
EndChar

StartChar: R
Encoding: 82 82 385
Width: 1352
GlyphClass: 2
Flags: W
AnchorPoint: "Anchor-1" 671 1490 basechar 0
AnchorPoint: "Anchor-0" 686 0 basechar 0
LayerCount: 2
Fore
SplineSet
106 0 m 1,0,-1
 106 1490 l 1,1,-1
 719 1490 l 2,2,3
 889 1490 889 1490 1013 1429.5 c 128,-1,4
 1137 1369 1137 1369 1204 1256.5 c 128,-1,5
 1271 1144 1271 1144 1271 991 c 0,6,7
 1271 839 1271 839 1201.5 729.5 c 128,-1,8
 1132 620 1132 620 1005 562 c 128,-1,9
 878 504 878 504 703 504 c 2,10,-1
 321 504 l 1,11,-1
 321 785 l 1,12,-1
 669 785 l 2,13,14
 747 785 747 785 801 809 c 128,-1,15
 855 833 855 833 883.5 879 c 128,-1,16
 912 925 912 925 912 991 c 0,17,18
 912 1058 912 1058 884 1104.5 c 128,-1,19
 856 1151 856 1151 801.5 1175.5 c 128,-1,20
 747 1200 747 1200 669 1200 c 2,21,-1
 462 1200 l 1,22,-1
 462 0 l 1,23,-1
 106 0 l 1,0,-1
933 0 m 1,24,-1
 585 679 l 1,25,-1
 961 679 l 1,26,-1
 1317 0 l 1,27,-1
 933 0 l 1,24,-1
EndSplineSet
Substitution2: "'c2sc' Capitals to Small Capitals in Latin lookup 68 subtable" r.sc
Substitution2: "'ss06' Style Set 6 in Latin lookup 52 subtable" R.squared
Substitution2: "'ss05' Style Set 5 in Latin lookup 51 subtable" uni24C7
Substitution2: "'aalt' Access All Alternates in Latin lookup 0 subtable" r.sc
Position2: "'cpsp' Capital Spacing in Latin lookup 0 subtable" dx=0 dy=0 dh=0 dv=0
EndChar

StartChar: uni211F
Encoding: 8479 8479 395
Width: 1349
GlyphClass: 2
Flags: W
AnchorPoint: "Anchor-1" 677 1490 basechar 0
AnchorPoint: "Anchor-0" 692 0 basechar 0
LayerCount: 2
Fore
SplineSet
938 1702 m 1,0,-1
 526 -370 l 1,1,-1
 407 -355 l 1,2,-1
 807 1623 l 1,3,-1
 485 1694 l 1,4,-1
 516 1802 l 1,5,-1
 938 1702 l 1,0,-1
112 0 m 1,6,-1
 112 1490 l 1,7,-1
 725 1490 l 2,8,9
 895 1490 895 1490 1019 1429.5 c 128,-1,10
 1143 1369 1143 1369 1210 1256.5 c 128,-1,11
 1277 1144 1277 1144 1277 991 c 0,12,13
 1277 839 1277 839 1207.5 729.5 c 128,-1,14
 1138 620 1138 620 1011 562 c 128,-1,15
 884 504 884 504 710 504 c 2,16,-1
 327 504 l 1,17,-1
 327 785 l 1,18,-1
 676 785 l 2,19,20
 753 785 753 785 807 809 c 128,-1,21
 861 833 861 833 889.5 879 c 128,-1,22
 918 925 918 925 918 991 c 0,23,24
 918 1058 918 1058 890 1104.5 c 128,-1,25
 862 1151 862 1151 807.5 1175.5 c 128,-1,26
 753 1200 753 1200 675 1200 c 2,27,-1
 468 1200 l 1,28,-1
 468 0 l 1,29,-1
 112 0 l 1,6,-1
939 0 m 1,30,-1
 592 679 l 1,31,-1
 967 679 l 1,32,-1
 1323 0 l 1,33,-1
 939 0 l 1,30,-1
EndSplineSet
EndChar

StartChar: Rx
Encoding: 8478 8478 396
Width: 1597
Flags: W
LayerCount: 2
Fore
SplineSet
106 1490 m 1,0,-1
 702 1490 l 2,1,2
 884 1490 884 1490 1008 1435 c 128,-1,3
 1132 1380 1132 1380 1195 1276 c 128,-1,4
 1258 1172 1258 1172 1258 1024 c 0,5,6
 1258 905 1258 905 1214.5 817 c 128,-1,7
 1171 729 1171 729 1098 670 c 128,-1,8
 1025 611 1025 611 934 577 c 1,9,-1
 864 546 l 1,10,-1
 327 546 l 1,11,-1
 325 831 l 1,12,-1
 703 831 l 2,13,14
 765 830 765 830 811.5 849.5 c 128,-1,15
 858 869 858 869 884 910.5 c 128,-1,16
 910 952 910 952 910 1016 c 0,17,18
 910 1079 910 1079 884 1120.5 c 128,-1,19
 858 1162 858 1162 811.5 1183 c 128,-1,20
 765 1204 765 1204 702 1204 c 2,21,-1
 458 1204 l 1,22,-1
 458 0 l 1,23,-1
 106 0 l 1,24,-1
 106 1490 l 1,0,-1
1216 0 m 1,25,-1
 728 679 l 1,26,-1
 1011 679 l 1,27,-1
 1507 0 l 1,28,-1
 1216 0 l 1,25,-1
973 0 m 1,29,-1
 748 0 l 1,30,-1
 1243 679 l 1,31,-1
 1458 679 l 1,32,-1
 973 0 l 1,29,-1
EndSplineSet
EndChar

StartChar: uni024C
Encoding: 588 588 397
Width: 1379
GlyphClass: 2
Flags: W
AnchorPoint: "Anchor-1" 708 1490 basechar 0
AnchorPoint: "Anchor-0" 724 0 basechar 0
LayerCount: 2
Fore
SplineSet
352 539 m 1,0,-1
 5 539 l 1,1,-1
 5 796 l 1,2,-1
 352 796 l 1,3,-1
 352 539 l 1,0,-1
144 0 m 1,4,-1
 144 1490 l 1,5,-1
 757 1490 l 2,6,7
 927 1490 927 1490 1051 1429.5 c 128,-1,8
 1175 1369 1175 1369 1242 1256.5 c 128,-1,9
 1309 1144 1309 1144 1309 991 c 0,10,11
 1309 839 1309 839 1239.5 729.5 c 128,-1,12
 1170 620 1170 620 1043 562 c 128,-1,13
 916 504 916 504 741 504 c 2,14,-1
 359 504 l 1,15,-1
 359 785 l 1,16,-1
 707 785 l 2,17,18
 785 785 785 785 839 809 c 128,-1,19
 893 833 893 833 921.5 879 c 128,-1,20
 950 925 950 925 950 991 c 0,21,22
 950 1058 950 1058 921.5 1104.5 c 128,-1,23
 893 1151 893 1151 838.5 1175.5 c 128,-1,24
 784 1200 784 1200 707 1200 c 2,25,-1
 500 1200 l 1,26,-1
 500 0 l 1,27,-1
 144 0 l 1,4,-1
971 0 m 1,28,-1
 623 679 l 1,29,-1
 999 679 l 1,30,-1
 1355 0 l 1,31,-1
 971 0 l 1,28,-1
EndSplineSet
Position2: "'cpsp' Capital Spacing in Latin lookup 0 subtable" dx=0 dy=0 dh=0 dv=0
EndChar

StartChar: S
Encoding: 83 83 398
Width: 1360
GlyphClass: 2
Flags: W
AnchorPoint: "Anchor-3" 682 0 basechar 0
AnchorPoint: "Anchor-1" 680 1490 basechar 0
AnchorPoint: "Anchor-0" 686 0 basechar 0
LayerCount: 2
Fore
SplineSet
691 -22 m 0,0,1
 498 -22 498 -22 359.5 36.5 c 128,-1,2
 221 95 221 95 146.5 209.5 c 128,-1,3
 72 324 72 324 70 492 c 1,4,-1
 411 492 l 1,5,6
 415 421 415 421 449.5 371 c 128,-1,7
 484 321 484 321 546 295 c 128,-1,8
 608 269 608 269 690 269 c 0,9,10
 765 269 765 269 820 289.5 c 128,-1,11
 875 310 875 310 905 346 c 128,-1,12
 935 382 935 382 935 430 c 0,13,14
 935 473 935 473 908.5 504 c 128,-1,15
 882 535 882 535 827 558 c 128,-1,16
 772 581 772 581 686 599 c 2,17,-1
 530 633 l 2,18,19
 325 678 325 678 214 781.5 c 128,-1,20
 103 885 103 885 103 1050 c 0,21,22
 103 1188 103 1188 178 1292 c 128,-1,23
 253 1396 253 1396 384 1454 c 128,-1,24
 515 1512 515 1512 687 1512 c 0,25,26
 862 1512 862 1512 990.5 1454 c 128,-1,27
 1119 1396 1119 1396 1189.5 1288.5 c 128,-1,28
 1260 1181 1260 1181 1264 1036 c 1,29,-1
 927 1036 l 1,30,31
 921 1123 921 1123 858.5 1172.5 c 128,-1,32
 796 1222 796 1222 689 1222 c 0,33,34
 620 1222 620 1222 570 1202 c 128,-1,35
 520 1182 520 1182 493.5 1148.5 c 128,-1,36
 467 1115 467 1115 467 1071 c 256,37,38
 467 1027 467 1027 492.5 996.5 c 128,-1,39
 518 966 518 966 570 945 c 128,-1,40
 622 924 622 924 696 907 c 2,41,-1
 827 879 l 2,42,43
 943 855 943 855 1030 816.5 c 128,-1,44
 1117 778 1117 778 1175 724 c 128,-1,45
 1233 670 1233 670 1262 600 c 128,-1,46
 1291 530 1291 530 1291 442 c 0,47,48
 1291 297 1291 297 1219.5 193 c 128,-1,49
 1148 89 1148 89 1013.5 33.5 c 128,-1,50
 879 -22 879 -22 691 -22 c 0,0,1
EndSplineSet
Substitution2: "'ss06' Style Set 6 in Latin lookup 52 subtable" S.squared
Substitution2: "'ss05' Style Set 5 in Latin lookup 51 subtable" uni24C8
Position2: "'cpsp' Capital Spacing in Latin lookup 0 subtable" dx=0 dy=0 dh=0 dv=0
EndChar

StartChar: uni01A7
Encoding: 423 423 410
Width: 1360
GlyphClass: 2
Flags: W
AnchorPoint: "Anchor-3" 679 0 basechar 0
AnchorPoint: "Anchor-1" 680 1490 basechar 0
AnchorPoint: "Anchor-0" 676 0 basechar 0
LayerCount: 2
Fore
SplineSet
671 -22 m 0,0,1
 482 -22 482 -22 347.5 33.5 c 128,-1,2
 213 89 213 89 141.5 193 c 128,-1,3
 70 297 70 297 70 442 c 0,4,5
 70 530 70 530 99 600 c 128,-1,6
 128 670 128 670 186 724 c 128,-1,7
 244 778 244 778 331.5 816.5 c 128,-1,8
 419 855 419 855 534 879 c 2,9,-1
 664 907 l 2,10,11
 741 924 741 924 792 945 c 128,-1,12
 843 966 843 966 868.5 996.5 c 128,-1,13
 894 1027 894 1027 894 1071 c 256,14,15
 894 1115 894 1115 867 1148.5 c 128,-1,16
 840 1182 840 1182 790.5 1202 c 128,-1,17
 741 1222 741 1222 672 1222 c 0,18,19
 566 1222 566 1222 503.5 1172.5 c 128,-1,20
 441 1123 441 1123 433 1036 c 1,21,-1
 97 1036 l 1,22,23
 100 1181 100 1181 171 1288.5 c 128,-1,24
 242 1396 242 1396 370 1454 c 128,-1,25
 498 1512 498 1512 673 1512 c 0,26,27
 845 1512 845 1512 977 1454 c 128,-1,28
 1109 1396 1109 1396 1183 1292 c 128,-1,29
 1257 1188 1257 1188 1257 1050 c 0,30,31
 1257 885 1257 885 1146.5 781.5 c 128,-1,32
 1036 678 1036 678 830 633 c 2,33,-1
 675 599 l 2,34,35
 590 581 590 581 534.5 558 c 128,-1,36
 479 535 479 535 453 504 c 128,-1,37
 427 473 427 473 427 430 c 0,38,39
 427 382 427 382 457 346 c 128,-1,40
 487 310 487 310 542 289.5 c 128,-1,41
 597 269 597 269 671 269 c 0,42,43
 755 269 755 269 816 295 c 128,-1,44
 877 321 877 321 912 371 c 128,-1,45
 947 421 947 421 951 492 c 1,46,-1
 1291 492 l 1,47,48
 1289 324 1289 324 1214.5 209.5 c 128,-1,49
 1140 95 1140 95 1002 36.5 c 128,-1,50
 864 -22 864 -22 671 -22 c 0,0,1
EndSplineSet
Position2: "'cpsp' Capital Spacing in Latin lookup 0 subtable" dx=0 dy=0 dh=0 dv=0
EndChar

StartChar: uni1E9E
Encoding: 7838 7838 411
Width: 1476
Flags: W
LayerCount: 2
Fore
SplineSet
106 0 m 1,0,-1
 106 979 l 2,1,2
 106 1145 106 1145 173.5 1264.5 c 128,-1,3
 241 1384 241 1384 367 1447.5 c 128,-1,4
 493 1511 493 1511 669 1511 c 0,5,6
 784 1511 784 1511 902.5 1478 c 128,-1,7
 1021 1445 1021 1445 1133.5 1384.5 c 128,-1,8
 1246 1324 1246 1324 1342 1243 c 1,9,-1
 1010 868 l 1,10,11
 1130 850 1130 850 1219 789 c 128,-1,12
 1308 728 1308 728 1357.5 636.5 c 128,-1,13
 1407 545 1407 545 1407 436 c 0,14,15
 1407 298 1407 298 1338 196 c 128,-1,16
 1269 94 1269 94 1147.5 37 c 128,-1,17
 1026 -20 1026 -20 869 -20 c 0,18,19
 784 -20 784 -20 689.5 -2.5 c 128,-1,20
 595 15 595 15 526 43 c 1,21,-1
 620 299 l 1,22,23
 673 278 673 278 730.5 265.5 c 128,-1,24
 788 253 788 253 840 253 c 0,25,26
 949 253 949 253 1010 301 c 128,-1,27
 1071 349 1071 349 1071 437 c 0,28,29
 1071 499 1071 499 1047.5 542.5 c 128,-1,30
 1024 586 1024 586 984.5 613 c 128,-1,31
 945 640 945 640 896 652 c 128,-1,32
 847 664 847 664 795 664 c 2,33,-1
 661 664 l 1,34,-1
 661 862 l 1,35,-1
 924 1156 l 1,36,37
 881 1189 881 1189 814.5 1212 c 128,-1,38
 748 1235 748 1235 671 1235 c 0,39,40
 595 1235 595 1235 547.5 1203.5 c 128,-1,41
 500 1172 500 1172 479 1113.5 c 128,-1,42
 458 1055 458 1055 458 973 c 2,43,-1
 458 0 l 1,44,-1
 106 0 l 1,0,-1
EndSplineSet
Position2: "'cpsp' Capital Spacing in Latin lookup 0 subtable" dx=0 dy=0 dh=0 dv=0
EndChar

StartChar: T
Encoding: 84 84 412
Width: 1354
GlyphClass: 2
Flags: W
AnchorPoint: "Anchor-3" 678 0 basechar 0
AnchorPoint: "Anchor-1" 677 1490 basechar 0
AnchorPoint: "Anchor-0" 677 0 basechar 0
LayerCount: 2
Fore
SplineSet
54 1193 m 1,0,-1
 54 1490 l 1,1,-1
 1299 1490 l 1,2,-1
 1299 1193 l 1,3,-1
 856 1193 l 1,4,-1
 856 0 l 1,5,-1
 500 0 l 1,6,-1
 500 1193 l 1,7,-1
 54 1193 l 1,0,-1
EndSplineSet
Substitution2: "'c2sc' Capitals to Small Capitals in Latin lookup 68 subtable" t.sc
Substitution2: "'ss06' Style Set 6 in Latin lookup 52 subtable" T.squared
Substitution2: "'ss05' Style Set 5 in Latin lookup 51 subtable" uni24C9
Substitution2: "'aalt' Access All Alternates in Latin lookup 0 subtable" t.sc
Position2: "'cpsp' Capital Spacing in Latin lookup 0 subtable" dx=0 dy=0 dh=0 dv=0
EndChar

StartChar: uni01AC
Encoding: 428 428 420
Width: 1513
GlyphClass: 2
Flags: W
AnchorPoint: "Anchor-1" 830 1490 basechar 0
LayerCount: 2
Fore
SplineSet
111 1036 m 1,0,-1
 111 1140 l 2,1,2
 111 1310 111 1310 207 1400 c 128,-1,3
 303 1490 303 1490 496 1490 c 2,4,-1
 613 1490 l 1,5,-1
 613 1199 l 1,6,-1
 548 1199 l 2,7,8
 493 1199 493 1199 465.5 1174.5 c 128,-1,9
 438 1150 438 1150 438 1102 c 2,10,-1
 438 1036 l 1,11,-1
 111 1036 l 1,0,-1
613 1194 m 1,12,-1
 613 1490 l 1,13,-1
 1459 1490 l 1,14,-1
 1459 1194 l 1,15,-1
 1007 1194 l 1,16,-1
 1007 0 l 1,17,-1
 651 0 l 1,18,-1
 651 1194 l 1,19,-1
 613 1194 l 1,12,-1
EndSplineSet
Position2: "'cpsp' Capital Spacing in Latin lookup 0 subtable" dx=0 dy=0 dh=0 dv=0
EndChar

StartChar: uni01AC.base
Encoding: 60940 60940 421
Width: 1370
GlyphClass: 2
Flags: W
AnchorPoint: "Anchor-1" 686 1490 basechar 0
LayerCount: 2
Fore
SplineSet
471 1194 m 1,0,-1
 471 1490 l 1,1,-1
 1316 1490 l 1,2,-1
 1316 1194 l 1,3,-1
 864 1194 l 1,4,-1
 864 0 l 1,5,-1
 508 0 l 1,6,-1
 508 1194 l 1,7,-1
 471 1194 l 1,0,-1
EndSplineSet
EndChar

StartChar: Trthook
Encoding: 430 430 422
Width: 1354
GlyphClass: 2
Flags: W
AnchorPoint: "Anchor-3" 678 0 basechar 0
AnchorPoint: "Anchor-1" 677 1490 basechar 0
AnchorPoint: "Anchor-0" 677 0 basechar 0
LayerCount: 2
Fore
SplineSet
883 -427 m 0,0,1
 689 -427 689 -427 594.5 -340.5 c 128,-1,2
 500 -254 500 -254 500 -83 c 2,3,-1
 500 200 l 1,4,-1
 856 200 l 1,5,-1
 856 -68 l 2,6,7
 856 -115 856 -115 879.5 -135.5 c 128,-1,8
 903 -156 903 -156 959 -156 c 0,9,10
 991 -156 991 -156 1021 -155 c 128,-1,11
 1051 -154 1051 -154 1073 -152 c 1,12,-1
 1073 -417 l 1,13,14
 1040 -422 1040 -422 989.5 -424.5 c 128,-1,15
 939 -427 939 -427 883 -427 c 0,0,1
54 1193 m 1,16,-1
 54 1490 l 1,17,-1
 1299 1490 l 1,18,-1
 1299 1193 l 1,19,-1
 856 1193 l 1,20,-1
 856 0 l 1,21,-1
 500 0 l 1,22,-1
 500 1193 l 1,23,-1
 54 1193 l 1,16,-1
EndSplineSet
Position2: "'cpsp' Capital Spacing in Latin lookup 0 subtable" dx=0 dy=0 dh=0 dv=0
EndChar

StartChar: uni023E
Encoding: 574 574 423
Width: 1354
GlyphClass: 2
Flags: W
AnchorPoint: "Anchor-3" 678 0 basechar 0
AnchorPoint: "Anchor-1" 677 1490 basechar 0
AnchorPoint: "Anchor-0" 677 0 basechar 0
LayerCount: 2
Fore
SplineSet
204 -209 m 1,0,-1
 994 1699 l 1,1,-1
 1157 1699 l 1,2,-1
 366 -209 l 1,3,-1
 204 -209 l 1,0,-1
54 1193 m 1,4,-1
 54 1490 l 1,5,-1
 1299 1490 l 1,6,-1
 1299 1193 l 1,7,-1
 856 1193 l 1,8,-1
 856 0 l 1,9,-1
 500 0 l 1,10,-1
 500 1193 l 1,11,-1
 54 1193 l 1,4,-1
EndSplineSet
Position2: "'cpsp' Capital Spacing in Latin lookup 0 subtable" dx=0 dy=0 dh=0 dv=0
EndChar

StartChar: U
Encoding: 85 85 425
Width: 1466
GlyphClass: 2
Flags: W
AnchorPoint: "Anchor-4" 1361 528 basechar 0
AnchorPoint: "Anchor-1" 734 1490 basechar 0
AnchorPoint: "Anchor-0" 734 0 basechar 0
LayerCount: 2
Fore
SplineSet
734 -22 m 0,0,1
 544 -22 544 -22 402.5 46.5 c 128,-1,2
 261 115 261 115 183 238.5 c 128,-1,3
 105 362 105 362 105 528 c 2,4,-1
 105 1490 l 1,5,-1
 457 1490 l 1,6,-1
 457 556 l 2,7,8
 457 478 457 478 492.5 417 c 128,-1,9
 528 356 528 356 589.5 321 c 128,-1,10
 651 286 651 286 734 286 c 0,11,12
 816 286 816 286 878 321 c 128,-1,13
 940 356 940 356 974.5 416.5 c 128,-1,14
 1009 477 1009 477 1009 556 c 2,15,-1
 1009 1490 l 1,16,-1
 1361 1490 l 1,17,-1
 1361 528 l 2,18,19
 1361 362 1361 362 1283 238.5 c 128,-1,20
 1205 115 1205 115 1063.5 46.5 c 128,-1,21
 922 -22 922 -22 734 -22 c 0,0,1
EndSplineSet
Substitution2: "'ss06' Style Set 6 in Latin lookup 52 subtable" U.squared
Substitution2: "'ss05' Style Set 5 in Latin lookup 51 subtable" uni24CA
Position2: "'cpsp' Capital Spacing in Latin lookup 0 subtable" dx=0 dy=0 dh=0 dv=0
EndChar

StartChar: Uhorn
Encoding: 431 431 426
Width: 1465
GlyphClass: 2
Flags: W
AnchorPoint: "Anchor-4" 1361 528 basechar 0
AnchorPoint: "Anchor-1" 734 1490 basechar 0
AnchorPoint: "Anchor-0" 734 0 basechar 0
LayerCount: 2
Fore
SplineSet
1010 1277 m 1,0,-1
 1010 1490 l 1,1,-1
 1193 1490 l 2,2,3
 1222 1490 1222 1490 1222 1519 c 2,4,-1
 1222 1714 l 1,5,-1
 1527 1714 l 1,6,-1
 1527 1489 l 2,7,8
 1527 1379 1527 1379 1460 1328 c 128,-1,9
 1393 1277 1393 1277 1290 1277 c 2,10,-1
 1010 1277 l 1,0,-1
734 -22 m 0,11,12
 544 -22 544 -22 402.5 46.5 c 128,-1,13
 261 115 261 115 183 238.5 c 128,-1,14
 105 362 105 362 105 528 c 2,15,-1
 105 1490 l 1,16,-1
 457 1490 l 1,17,-1
 457 556 l 2,18,19
 457 478 457 478 492.5 417 c 128,-1,20
 528 356 528 356 589.5 321 c 128,-1,21
 651 286 651 286 734 286 c 0,22,23
 816 286 816 286 878 321 c 128,-1,24
 940 356 940 356 974.5 416.5 c 128,-1,25
 1009 477 1009 477 1009 556 c 2,26,-1
 1009 1490 l 1,27,-1
 1361 1490 l 1,28,-1
 1361 528 l 2,29,30
 1361 362 1361 362 1283 238.5 c 128,-1,31
 1205 115 1205 115 1063.5 46.5 c 128,-1,32
 922 -22 922 -22 734 -22 c 0,11,12
EndSplineSet
Position2: "'cpsp' Capital Spacing in Latin lookup 0 subtable" dx=0 dy=0 dh=0 dv=0
EndChar

StartChar: uni0244
Encoding: 580 580 456
Width: 1547
GlyphClass: 2
Flags: W
AnchorPoint: "Anchor-4" 1408 528 basechar 0
AnchorPoint: "Anchor-1" 781 1490 basechar 0
AnchorPoint: "Anchor-0" 781 0 basechar 0
LayerCount: 2
Fore
SplineSet
1567 841 m 1,0,-1
 1567 645 l 1,1,-1
 -20 645 l 1,2,-1
 -20 841 l 1,3,-1
 1567 841 l 1,0,-1
781 -22 m 0,4,5
 591 -22 591 -22 450 46.5 c 128,-1,6
 309 115 309 115 230.5 238.5 c 128,-1,7
 152 362 152 362 152 528 c 2,8,-1
 152 1490 l 1,9,-1
 504 1490 l 1,10,-1
 504 556 l 2,11,12
 504 478 504 478 539.5 417 c 128,-1,13
 575 356 575 356 636.5 321 c 128,-1,14
 698 286 698 286 781 286 c 0,15,16
 863 286 863 286 925 321 c 128,-1,17
 987 356 987 356 1021.5 416.5 c 128,-1,18
 1056 477 1056 477 1056 556 c 2,19,-1
 1056 1490 l 1,20,-1
 1408 1490 l 1,21,-1
 1408 528 l 2,22,23
 1408 362 1408 362 1330 238.5 c 128,-1,24
 1252 115 1252 115 1110.5 46.5 c 128,-1,25
 969 -22 969 -22 781 -22 c 0,4,5
EndSplineSet
Position2: "'cpsp' Capital Spacing in Latin lookup 0 subtable" dx=0 dy=0 dh=0 dv=0
EndChar

StartChar: V
Encoding: 86 86 457
Width: 1533
GlyphClass: 2
Flags: W
AnchorPoint: "Anchor-1" 767 1490 basechar 0
AnchorPoint: "Anchor-0" 767 0 basechar 0
LayerCount: 2
Fore
SplineSet
538 0 m 1,0,-1
 26 1490 l 1,1,-1
 421 1490 l 1,2,-1
 630 837 l 2,3,4
 678 677 678 677 725.5 501 c 128,-1,5
 773 325 773 325 823 133 c 1,6,-1
 731 133 l 1,7,8
 780 327 780 327 825 502 c 128,-1,9
 870 677 870 677 916 837 c 2,10,-1
 1117 1490 l 1,11,-1
 1507 1490 l 1,12,-1
 1009 0 l 1,13,-1
 538 0 l 1,0,-1
EndSplineSet
Substitution2: "'ss06' Style Set 6 in Latin lookup 52 subtable" V.squared
Substitution2: "'ss05' Style Set 5 in Latin lookup 51 subtable" uni24CB
Position2: "'cpsp' Capital Spacing in Latin lookup 0 subtable" dx=0 dy=0 dh=0 dv=0
EndChar

StartChar: W
Encoding: 87 87 460
Width: 2125
GlyphClass: 2
Flags: W
AnchorPoint: "Anchor-1" 1063 1490 basechar 0
AnchorPoint: "Anchor-0" 1063 0 basechar 0
LayerCount: 2
Fore
SplineSet
424 0 m 1,0,-1
 26 1490 l 1,1,-1
 415 1490 l 1,2,-1
 563 829 l 2,3,4
 585 730 585 730 603.5 621 c 128,-1,5
 622 512 622 512 640 404 c 128,-1,6
 658 296 658 296 675 194 c 1,7,-1
 603 194 l 1,8,9
 623 296 623 296 642 404 c 128,-1,10
 661 512 661 512 681 621 c 128,-1,11
 701 730 701 730 725 829 c 2,12,-1
 884 1490 l 1,13,-1
 1242 1490 l 1,14,-1
 1400 829 l 2,15,16
 1424 730 1424 730 1444 621 c 128,-1,17
 1464 512 1464 512 1484 404 c 128,-1,18
 1504 296 1504 296 1523 194 c 1,19,-1
 1450 194 l 1,20,21
 1468 296 1468 296 1485.5 404 c 128,-1,22
 1503 512 1503 512 1522 621 c 128,-1,23
 1541 730 1541 730 1562 829 c 2,24,-1
 1709 1490 l 1,25,-1
 2099 1490 l 1,26,-1
 1700 0 l 1,27,-1
 1302 0 l 1,28,-1
 1119 721 l 2,29,30
 1091 834 1091 834 1069 972.5 c 128,-1,31
 1047 1111 1047 1111 1014 1268 c 1,32,-1
 1110 1268 l 1,33,34
 1077 1112 1077 1112 1056 974 c 128,-1,35
 1035 836 1035 836 1007 721 c 2,36,-1
 823 0 l 1,37,-1
 424 0 l 1,0,-1
EndSplineSet
Substitution2: "'ss06' Style Set 6 in Latin lookup 52 subtable" W.squared
Substitution2: "'ss05' Style Set 5 in Latin lookup 51 subtable" uni24CC
Position2: "'cpsp' Capital Spacing in Latin lookup 0 subtable" dx=0 dy=0 dh=0 dv=0
EndChar

StartChar: X
Encoding: 88 88 467
Width: 1516
GlyphClass: 2
Flags: W
AnchorPoint: "Anchor-1" 758 1490 basechar 0
AnchorPoint: "Anchor-0" 758 -2 basechar 0
LayerCount: 2
Fore
SplineSet
27 0 m 1,0,-1
 656 892 l 1,1,-1
 656 624 l 1,2,-1
 82 1490 l 1,3,-1
 489 1490 l 1,4,-1
 631 1266 l 2,5,6
 670 1206 670 1206 699.5 1151 c 128,-1,7
 729 1096 729 1096 756 1043.5 c 128,-1,8
 783 991 783 991 811 940 c 1,9,-1
 711 940 l 1,10,11
 741 992 741 992 768.5 1044 c 128,-1,12
 796 1096 796 1096 826 1151 c 128,-1,13
 856 1206 856 1206 895 1266 c 2,14,-1
 1039 1490 l 1,15,-1
 1437 1490 l 1,16,-1
 878 645 l 1,17,-1
 878 897 l 1,18,-1
 1488 0 l 1,19,-1
 1070 0 l 1,20,-1
 884 286 l 2,21,22
 850 338 850 338 825.5 380 c 128,-1,23
 801 422 801 422 779 460.5 c 128,-1,24
 757 499 757 499 732 540 c 1,25,-1
 782 540 l 1,26,27
 758 498 758 498 736 459.5 c 128,-1,28
 714 421 714 421 688.5 379.5 c 128,-1,29
 663 338 663 338 628 286 c 2,30,-1
 435 0 l 1,31,-1
 27 0 l 1,0,-1
EndSplineSet
Substitution2: "'ss06' Style Set 6 in Latin lookup 52 subtable" X.squared
Substitution2: "'ss05' Style Set 5 in Latin lookup 51 subtable" uni24CD
Position2: "'cpsp' Capital Spacing in Latin lookup 0 subtable" dx=0 dy=0 dh=0 dv=0
EndChar

StartChar: Y
Encoding: 89 89 473
Width: 1497
GlyphClass: 2
Flags: W
AnchorPoint: "Anchor-4" 929 0 basechar 0
AnchorPoint: "Anchor-1" 749 1490 basechar 0
AnchorPoint: "Anchor-0" 753 0 basechar 0
LayerCount: 2
Fore
SplineSet
579 0 m 1,0,-1
 579 537 l 1,1,-1
 26 1490 l 1,2,-1
 439 1490 l 1,3,-1
 673 1045 l 2,4,5
 706 984 706 984 733.5 922.5 c 128,-1,6
 761 861 761 861 790 788 c 1,7,-1
 726 788 l 1,8,9
 752 861 752 861 779 922.5 c 128,-1,10
 806 984 806 984 836 1045 c 2,11,-1
 1060 1490 l 1,12,-1
 1471 1490 l 1,13,-1
 929 537 l 1,14,-1
 929 0 l 1,15,-1
 579 0 l 1,0,-1
EndSplineSet
Substitution2: "'c2sc' Capitals to Small Capitals in Latin lookup 68 subtable" y.sc
Substitution2: "'ss06' Style Set 6 in Latin lookup 52 subtable" Y.squared
Substitution2: "'ss05' Style Set 5 in Latin lookup 51 subtable" uni24CE
Substitution2: "'aalt' Access All Alternates in Latin lookup 0 subtable" y.sc
Position2: "'cpsp' Capital Spacing in Latin lookup 0 subtable" dx=0 dy=0 dh=0 dv=0
EndChar

StartChar: uni01B3
Encoding: 435 435 474
Width: 1644
Flags: W
LayerCount: 2
Fore
SplineSet
789 829 m 1,0,-1
 789 863 l 1,1,-1
 825 863 l 1,2,-1
 825 829 l 1,3,-1
 789 829 l 1,0,-1
43 1490 m 1,4,-1
 424 1490 l 1,5,-1
 807 849 l 1,6,-1
 1075 1295 l 2,7,8
 1143 1405 1143 1405 1234.5 1455 c 128,-1,9
 1326 1505 1326 1505 1428.5 1506 c 128,-1,10
 1531 1507 1531 1507 1627 1472 c 1,11,-1
 1553 1210 l 1,12,13
 1474 1233 1474 1233 1429.5 1213 c 128,-1,14
 1385 1193 1385 1193 1342 1124 c 2,15,-1
 982 566 l 1,16,-1
 982 0 l 1,17,-1
 634 0 l 1,18,-1
 634 566 l 1,19,-1
 43 1490 l 1,4,-1
EndSplineSet
Position2: "'cpsp' Capital Spacing in Latin lookup 0 subtable" dx=0 dy=0 dh=0 dv=0
EndChar

StartChar: uni024E
Encoding: 590 590 484
Width: 1499
GlyphClass: 2
Flags: W
AnchorPoint: "Anchor-4" 929 0 basechar 0
AnchorPoint: "Anchor-1" 749 1490 basechar 0
AnchorPoint: "Anchor-0" 753 0 basechar 0
LayerCount: 2
Fore
SplineSet
1486 1178 m 1,0,-1
 1486 1005 l 1,1,-1
 11 1005 l 1,2,-1
 11 1178 l 1,3,-1
 1486 1178 l 1,0,-1
579 0 m 1,4,-1
 579 537 l 1,5,-1
 26 1490 l 1,6,-1
 439 1490 l 1,7,-1
 673 1045 l 2,8,9
 706 984 706 984 733.5 922.5 c 128,-1,10
 761 861 761 861 790 788 c 1,11,-1
 726 788 l 1,12,13
 752 861 752 861 779 922.5 c 128,-1,14
 806 984 806 984 836 1045 c 2,15,-1
 1060 1490 l 1,16,-1
 1471 1490 l 1,17,-1
 929 537 l 1,18,-1
 929 0 l 1,19,-1
 579 0 l 1,4,-1
EndSplineSet
Position2: "'cpsp' Capital Spacing in Latin lookup 0 subtable" dx=0 dy=0 dh=0 dv=0
EndChar

StartChar: Z
Encoding: 90 90 497
Width: 1353
GlyphClass: 2
Flags: W
AnchorPoint: "Anchor-1" 679 1490 basechar 0
AnchorPoint: "Anchor-0" 676 0 basechar 0
LayerCount: 2
Fore
SplineSet
80 0 m 1,0,-1
 80 238 l 1,1,-1
 676 1003 l 2,2,3
 738 1082 738 1082 808 1160.5 c 128,-1,4
 878 1239 878 1239 950 1318 c 1,5,-1
 983 1201 l 1,6,7
 882 1196 882 1196 780.5 1194.5 c 128,-1,8
 679 1193 679 1193 578 1193 c 2,9,-1
 89 1193 l 1,10,-1
 89 1490 l 1,11,-1
 1270 1490 l 1,12,-1
 1270 1252 l 1,13,-1
 685 496 l 2,14,15
 623 416 623 416 551 335 c 128,-1,16
 479 254 479 254 405 173 c 1,17,-1
 373 291 l 1,18,19
 477 296 477 296 581.5 296.5 c 128,-1,20
 686 297 686 297 790 297 c 2,21,-1
 1273 297 l 1,22,-1
 1273 0 l 1,23,-1
 80 0 l 1,0,-1
EndSplineSet
Substitution2: "'ss06' Style Set 6 in Latin lookup 52 subtable" Z.squared
Substitution2: "'ss05' Style Set 5 in Latin lookup 51 subtable" uni24CF
Position2: "'cpsp' Capital Spacing in Latin lookup 0 subtable" dx=0 dy=0 dh=0 dv=0
EndChar

StartChar: uni0224
Encoding: 548 548 504
Width: 1353
GlyphClass: 2
Flags: W
AnchorPoint: "Anchor-1" 679 1490 basechar 0
AnchorPoint: "Anchor-0" 676 0 basechar 0
LayerCount: 2
Fore
SplineSet
701 -417 m 1,0,-1
 701 -144 l 1,1,2
 723 -147 723 -147 753 -148 c 128,-1,3
 783 -149 783 -149 815 -149 c 0,4,5
 872 -149 872 -149 894.5 -129 c 128,-1,6
 917 -109 917 -109 917 -63 c 2,7,-1
 917 0 l 1,8,-1
 1273 0 l 1,9,-1
 1273 -83 l 2,10,11
 1273 -254 1273 -254 1176 -340.5 c 128,-1,12
 1079 -427 1079 -427 884 -427 c 0,13,14
 829 -427 829 -427 782 -424.5 c 128,-1,15
 735 -422 735 -422 701 -417 c 1,0,-1
80 0 m 1,16,-1
 80 238 l 1,17,-1
 676 1003 l 2,18,19
 738 1082 738 1082 808 1160.5 c 128,-1,20
 878 1239 878 1239 950 1318 c 1,21,-1
 983 1201 l 1,22,23
 882 1196 882 1196 780.5 1194.5 c 128,-1,24
 679 1193 679 1193 578 1193 c 2,25,-1
 89 1193 l 1,26,-1
 89 1490 l 1,27,-1
 1270 1490 l 1,28,-1
 1270 1252 l 1,29,-1
 685 496 l 2,30,31
 623 416 623 416 551 335 c 128,-1,32
 479 254 479 254 405 173 c 1,33,-1
 373 291 l 1,34,35
 477 296 477 296 581.5 296.5 c 128,-1,36
 686 297 686 297 790 297 c 2,37,-1
 1273 297 l 1,38,-1
 1273 0 l 1,39,-1
 80 0 l 1,16,-1
EndSplineSet
Position2: "'cpsp' Capital Spacing in Latin lookup 0 subtable" dx=0 dy=0 dh=0 dv=0
EndChar

StartChar: uni2C7F
Encoding: 11391 11391 507
Width: 1357
Flags: W
LayerCount: 2
Fore
SplineSet
1130 -427 m 0,0,1
 1031 -427 1031 -427 957.5 -396 c 128,-1,2
 884 -365 884 -365 824.5 -316.5 c 128,-1,3
 765 -268 765 -268 708.5 -213.5 c 128,-1,4
 652 -159 652 -159 589.5 -110 c 128,-1,5
 527 -61 527 -61 448 -30.5 c 128,-1,6
 369 0 369 0 261 0 c 2,7,-1
 82 0 l 1,8,-1
 82 229 l 1,9,-1
 809 1196 l 1,10,-1
 82 1196 l 1,11,-1
 82 1490 l 1,12,-1
 1253 1490 l 1,13,-1
 1253 1264 l 1,14,-1
 512 266 l 1,15,16
 601 248 601 248 667 212 c 128,-1,17
 733 176 733 176 784.5 129.5 c 128,-1,18
 836 83 836 83 880 35.5 c 128,-1,19
 924 -12 924 -12 966.5 -52.5 c 128,-1,20
 1009 -93 1009 -93 1056 -117.5 c 128,-1,21
 1103 -142 1103 -142 1163 -142 c 0,22,23
 1189 -142 1189 -142 1205.5 -141 c 128,-1,24
 1222 -140 1222 -140 1238 -137.5 c 128,-1,25
 1254 -135 1254 -135 1278 -131 c 1,26,-1
 1278 -411 l 1,27,28
 1248 -417 1248 -417 1208.5 -422 c 128,-1,29
 1169 -427 1169 -427 1130 -427 c 0,0,1
EndSplineSet
Position2: "'cpsp' Capital Spacing in Latin lookup 0 subtable" dx=0 dy=0 dh=0 dv=0
EndChar

StartChar: a
Encoding: 97 97 508
Width: 1183
GlyphClass: 2
Flags: W
AnchorPoint: "Anchor-4" 1078 0 basechar 0
AnchorPoint: "Anchor-1" 589 1087 basechar 0
AnchorPoint: "Anchor-0" 584 0 basechar 0
LayerCount: 2
Fore
SplineSet
424 -19 m 0,0,1
 318 -19 318 -19 235.5 16.5 c 128,-1,2
 153 52 153 52 105.5 124 c 128,-1,3
 58 196 58 196 58 303 c 0,4,5
 58 394 58 394 91 456.5 c 128,-1,6
 124 519 124 519 181 558 c 128,-1,7
 238 597 238 597 312.5 617 c 128,-1,8
 387 637 387 637 472 644 c 0,9,10
 567 652 567 652 624.5 661.5 c 128,-1,11
 682 671 682 671 707.5 689 c 128,-1,12
 733 707 733 707 733 741 c 2,13,-1
 733 746 l 2,14,15
 733 781 733 781 715 806 c 128,-1,16
 697 831 697 831 663.5 844.5 c 128,-1,17
 630 858 630 858 583 858 c 256,18,19
 536 858 536 858 499.5 844 c 128,-1,20
 463 830 463 830 441 804 c 128,-1,21
 419 778 419 778 412 742 c 1,22,-1
 94 763 l 1,23,24
 109 867 109 867 171 944.5 c 128,-1,25
 233 1022 233 1022 339 1064 c 128,-1,26
 445 1106 445 1106 592 1106 c 0,27,28
 701 1106 701 1106 790.5 1081.5 c 128,-1,29
 880 1057 880 1057 944.5 1009.5 c 128,-1,30
 1009 962 1009 962 1043.5 893 c 128,-1,31
 1078 824 1078 824 1078 736 c 2,32,-1
 1078 0 l 1,33,-1
 746 0 l 1,34,-1
 746 153 l 1,35,-1
 740 153 l 1,36,37
 709 96 709 96 664.5 58 c 128,-1,38
 620 20 620 20 560 0.5 c 128,-1,39
 500 -19 500 -19 424 -19 c 0,0,1
529 210 m 0,40,41
 587 210 587 210 634 232.5 c 128,-1,42
 681 255 681 255 708.5 295.5 c 128,-1,43
 736 336 736 336 736 389 c 2,44,-1
 736 491 l 1,45,46
 722 484 722 484 701 477.5 c 128,-1,47
 680 471 680 471 655 466 c 128,-1,48
 630 461 630 461 602 456 c 128,-1,49
 574 451 574 451 547 447 c 0,50,51
 498 440 498 440 462.5 423.5 c 128,-1,52
 427 407 427 407 407.5 381.5 c 128,-1,53
 388 356 388 356 388 319 c 0,54,55
 388 284 388 284 405.5 260 c 128,-1,56
 423 236 423 236 455 223 c 128,-1,57
 487 210 487 210 529 210 c 0,40,41
EndSplineSet
Substitution2: "'smcp' Lowercase to Small Capitals in Latin lookup 69 subtable" a.sc
Substitution2: "'c2sc' Capitals to Small Capitals in Latin lookup 68 subtable" a.sc
Substitution2: "'cv11' Character Variants 11 in Latin lookup 65 subtable" a.1
Substitution2: "'salt' Stylistic Alternatives in Latin lookup 46 subtable" a.1
Substitution2: "Single Substitution lookup 44 subtable" ordfeminine
Substitution2: "'sups' Superscript in Latin lookup 39 subtable" a.sups
Substitution2: "'subs' Subscript in Latin lookup 38 subtable" a.subs
Substitution2: "'sinf' Scientific Inferiors in Latin lookup 18 subtable" a.subs
AlternateSubs2: "'aalt' Access All Alternates in Latin lookup 1 subtable" ordfeminine a.sups a.subs a.sc
EndChar

StartChar: aturn
Encoding: 592 592 540
Width: 1183
GlyphClass: 2
Flags: W
AnchorPoint: "Anchor-4" 106 1087 basechar 0
AnchorPoint: "Anchor-1" 611 1087 basechar 0
AnchorPoint: "Anchor-0" 599 0 basechar 0
LayerCount: 2
Fore
SplineSet
761 1106 m 0,0,1
 867 1106 867 1106 949.5 1071 c 128,-1,2
 1032 1036 1032 1036 1078.5 964 c 128,-1,3
 1125 892 1125 892 1125 784 c 0,4,5
 1125 694 1125 694 1093 632 c 128,-1,6
 1061 570 1061 570 1003.5 531 c 128,-1,7
 946 492 946 492 871.5 471.5 c 128,-1,8
 797 451 797 451 713 444 c 0,9,10
 618 436 618 436 560 426.5 c 128,-1,11
 502 417 502 417 476.5 399 c 128,-1,12
 451 381 451 381 451 348 c 2,13,-1
 451 343 l 2,14,15
 451 308 451 308 469 282.5 c 128,-1,16
 487 257 487 257 521 243 c 128,-1,17
 555 229 555 229 600 229 c 0,18,19
 649 229 649 229 684.5 243 c 128,-1,20
 720 257 720 257 743 283.5 c 128,-1,21
 766 310 766 310 771 345 c 1,22,-1
 1090 326 l 1,23,24
 1076 221 1076 221 1013.5 143.5 c 128,-1,25
 951 66 951 66 845.5 23.5 c 128,-1,26
 740 -19 740 -19 593 -19 c 0,27,28
 484 -19 484 -19 394 6 c 128,-1,29
 304 31 304 31 239.5 78.5 c 128,-1,30
 175 126 175 126 140.5 195 c 128,-1,31
 106 264 106 264 106 353 c 2,32,-1
 106 1087 l 1,33,-1
 439 1087 l 1,34,-1
 439 934 l 1,35,-1
 445 934 l 1,36,37
 476 992 476 992 520.5 1030.5 c 128,-1,38
 565 1069 565 1069 625 1087.5 c 128,-1,39
 685 1106 685 1106 761 1106 c 0,0,1
654 879 m 0,40,41
 598 879 598 879 550.5 856 c 128,-1,42
 503 833 503 833 475 792.5 c 128,-1,43
 447 752 447 752 447 698 c 2,44,-1
 447 597 l 1,45,46
 462 604 462 604 482.5 610.5 c 128,-1,47
 503 617 503 617 528.5 622.5 c 128,-1,48
 554 628 554 628 581.5 632.5 c 128,-1,49
 609 637 609 637 638 642 c 0,50,51
 686 649 686 649 722 665.5 c 128,-1,52
 758 682 758 682 777.5 707.5 c 128,-1,53
 797 733 797 733 797 769 c 0,54,55
 797 804 797 804 778.5 828.5 c 128,-1,56
 760 853 760 853 728.5 866 c 128,-1,57
 697 879 697 879 654 879 c 0,40,41
EndSplineSet
EndChar

StartChar: ae
Encoding: 230 230 544
Width: 1840
GlyphClass: 2
Flags: W
AnchorPoint: "Anchor-1" 902 1087 basechar 0
LayerCount: 2
Fore
SplineSet
452 -18 m 0,0,1
 331 -18 331 -18 243 17.5 c 128,-1,2
 155 53 155 53 106.5 125 c 128,-1,3
 58 197 58 197 58 303 c 0,4,5
 58 399 58 399 100 467 c 128,-1,6
 142 535 142 535 216.5 578.5 c 128,-1,7
 291 622 291 622 391 643 c 128,-1,8
 491 664 491 664 610 664 c 2,9,-1
 1570 664 l 1,10,-1
 1458 617 l 1,11,12
 1460 691 1460 691 1435.5 743.5 c 128,-1,13
 1411 796 1411 796 1364.5 824.5 c 128,-1,14
 1318 853 1318 853 1251 853 c 0,15,16
 1185 853 1185 853 1138 824.5 c 128,-1,17
 1091 796 1091 796 1066.5 744.5 c 128,-1,18
 1042 693 1042 693 1042 622 c 2,19,-1
 1042 472 l 2,20,21
 1042 394 1042 394 1068.5 339.5 c 128,-1,22
 1095 285 1095 285 1145.5 256.5 c 128,-1,23
 1196 228 1196 228 1265 228 c 0,24,25
 1314 228 1314 228 1353 242 c 128,-1,26
 1392 256 1392 256 1419.5 281.5 c 128,-1,27
 1447 307 1447 307 1461 343 c 1,28,-1
 1775 338 l 1,29,30
 1755 230 1755 230 1685 149.5 c 128,-1,31
 1615 69 1615 69 1505 23.5 c 128,-1,32
 1395 -22 1395 -22 1256 -22 c 0,33,34
 1156 -22 1156 -22 1071 6 c 128,-1,35
 986 34 986 34 923 85.5 c 128,-1,36
 860 137 860 137 822 206 c 1,37,-1
 825 888 l 1,38,39
 871 957 871 957 932.5 1005.5 c 128,-1,40
 994 1054 994 1054 1072 1080 c 128,-1,41
 1150 1106 1150 1106 1245 1106 c 0,42,43
 1364 1106 1364 1106 1462.5 1068 c 128,-1,44
 1561 1030 1561 1030 1632.5 957 c 128,-1,45
 1704 884 1704 884 1743 781.5 c 128,-1,46
 1782 679 1782 679 1782 549 c 2,47,-1
 1782 459 l 1,48,-1
 592 459 l 2,49,50
 525 459 525 459 479.5 441 c 128,-1,51
 434 423 434 423 411 392.5 c 128,-1,52
 388 362 388 362 388 323 c 0,53,54
 388 267 388 267 427.5 238.5 c 128,-1,55
 467 210 467 210 529 210 c 0,56,57
 587 210 587 210 633.5 232.5 c 128,-1,58
 680 255 680 255 707.5 295.5 c 128,-1,59
 735 336 735 336 735 389 c 2,60,-1
 735 746 l 2,61,62
 735 780 735 780 716.5 805.5 c 128,-1,63
 698 831 698 831 664 844.5 c 128,-1,64
 630 858 630 858 583 858 c 256,65,66
 536 858 536 858 499.5 844 c 128,-1,67
 463 830 463 830 441 804 c 128,-1,68
 419 778 419 778 412 742 c 1,69,-1
 94 763 l 1,70,71
 109 860 109 860 169.5 937.5 c 128,-1,72
 230 1015 230 1015 334.5 1060.5 c 128,-1,73
 439 1106 439 1106 583 1106 c 0,74,75
 715 1106 715 1106 803.5 1062.5 c 128,-1,76
 892 1019 892 1019 939 940.5 c 128,-1,77
 986 862 986 862 990 754 c 1,78,-1
 982 236 l 1,79,-1
 904 236 l 1,80,81
 876 165 876 165 828.5 116 c 128,-1,82
 781 67 781 67 720.5 37.5 c 128,-1,83
 660 8 660 8 591 -5 c 128,-1,84
 522 -18 522 -18 452 -18 c 0,0,1
EndSplineSet
EndChar

StartChar: a.1
Encoding: 57388 57388 548
Width: 1276
GlyphClass: 2
Flags: W
AnchorPoint: "Anchor-4" 1171 0 basechar 0
AnchorPoint: "Anchor-1" 633 1087 basechar 0
AnchorPoint: "Anchor-0" 636 0 basechar 0
LayerCount: 2
Fore
SplineSet
514 -20 m 0,0,1
 384 -20 384 -20 282 47 c 128,-1,2
 180 114 180 114 121 240 c 128,-1,3
 62 366 62 366 62 544 c 0,4,5
 62 723 62 723 122.5 848.5 c 128,-1,6
 183 974 183 974 285 1040 c 128,-1,7
 387 1106 387 1106 512 1106 c 0,8,9
 592 1106 592 1106 651.5 1081.5 c 128,-1,10
 711 1057 711 1057 753.5 1016 c 128,-1,11
 796 975 796 975 823 923 c 1,12,-1
 830 923 l 1,13,-1
 830 1087 l 1,14,-1
 1171 1087 l 1,15,-1
 1171 0 l 1,16,-1
 830 0 l 1,17,-1
 830 170 l 1,18,-1
 823 170 l 1,19,20
 799 115 799 115 756 72.5 c 128,-1,21
 713 30 713 30 652.5 5 c 128,-1,22
 592 -20 592 -20 514 -20 c 0,0,1
623 254 m 256,23,24
 689 254 689 254 737 290.5 c 128,-1,25
 785 327 785 327 811 392 c 128,-1,26
 837 457 837 457 837 544 c 0,27,28
 837 632 837 632 811 697 c 128,-1,29
 785 762 785 762 737.5 797.5 c 128,-1,30
 690 833 690 833 623 833 c 0,31,32
 558 833 558 833 511.5 797.5 c 128,-1,33
 465 762 465 762 440.5 698 c 128,-1,34
 416 634 416 634 416 544 c 0,35,36
 416 456 416 456 440.5 391 c 128,-1,37
 465 326 465 326 511 290 c 128,-1,38
 557 254 557 254 623 254 c 256,23,24
EndSplineSet
EndChar

StartChar: b
Encoding: 98 98 579
Width: 1278
GlyphClass: 2
Flags: W
AnchorPoint: "Anchor-1" 788 1299 basechar 0
AnchorPoint: "Anchor-0" 649 0 basechar 0
LayerCount: 2
Fore
SplineSet
765 -20 m 0,0,1
 688 -20 688 -20 627 4.5 c 128,-1,2
 566 29 566 29 523 72.5 c 128,-1,3
 480 116 480 116 455 173 c 1,4,-1
 448 173 l 1,5,-1
 448 0 l 1,6,-1
 106 0 l 1,7,-1
 106 1490 l 1,8,-1
 452 1490 l 1,9,-1
 452 921 l 1,10,-1
 457 921 l 1,11,12
 485 974 485 974 527 1016 c 128,-1,13
 569 1058 569 1058 629 1082 c 128,-1,14
 689 1106 689 1106 767 1106 c 0,15,16
 893 1106 893 1106 995 1040 c 128,-1,17
 1097 974 1097 974 1156.5 848.5 c 128,-1,18
 1216 723 1216 723 1216 544 c 0,19,20
 1216 366 1216 366 1158 240 c 128,-1,21
 1100 114 1100 114 998 47 c 128,-1,22
 896 -20 896 -20 765 -20 c 0,0,1
656 254 m 0,23,24
 723 254 723 254 768.5 290 c 128,-1,25
 814 326 814 326 838.5 391 c 128,-1,26
 863 456 863 456 863 544 c 0,27,28
 863 633 863 633 838.5 697.5 c 128,-1,29
 814 762 814 762 768 797.5 c 128,-1,30
 722 833 722 833 656 833 c 0,31,32
 591 833 591 833 542.5 797.5 c 128,-1,33
 494 762 494 762 467.5 697 c 128,-1,34
 441 632 441 632 441 544 c 0,35,36
 441 457 441 457 467.5 392 c 128,-1,37
 494 327 494 327 543 290.5 c 128,-1,38
 592 254 592 254 656 254 c 0,23,24
EndSplineSet
Substitution2: "'sups' Superscript in Latin lookup 39 subtable" b.sups
Substitution2: "'subs' Subscript in Latin lookup 38 subtable" b.subs
Substitution2: "'sinf' Scientific Inferiors in Latin lookup 18 subtable" b.subs
AlternateSubs2: "'aalt' Access All Alternates in Latin lookup 1 subtable" b.sups b.subs
EndChar

StartChar: uni0183
Encoding: 387 387 581
Width: 1278
GlyphClass: 2
Flags: W
AnchorPoint: "Anchor-1" 788 1299 basechar 0
AnchorPoint: "Anchor-0" 649 0 basechar 0
LayerCount: 2
Fore
SplineSet
282 1228 m 1,0,-1
 106 1490 l 1,1,-1
 986 1490 l 1,2,-1
 986 1228 l 1,3,-1
 282 1228 l 1,0,-1
765 -20 m 0,4,5
 688 -20 688 -20 627 4.5 c 128,-1,6
 566 29 566 29 523 72.5 c 128,-1,7
 480 116 480 116 455 173 c 1,8,-1
 448 173 l 1,9,-1
 448 0 l 1,10,-1
 106 0 l 1,11,-1
 106 1490 l 1,12,-1
 452 1490 l 1,13,-1
 452 921 l 1,14,-1
 457 921 l 1,15,16
 485 974 485 974 527 1016 c 128,-1,17
 569 1058 569 1058 629 1082 c 128,-1,18
 689 1106 689 1106 767 1106 c 0,19,20
 893 1106 893 1106 995 1040 c 128,-1,21
 1097 974 1097 974 1156.5 848.5 c 128,-1,22
 1216 723 1216 723 1216 544 c 0,23,24
 1216 366 1216 366 1158 240 c 128,-1,25
 1100 114 1100 114 998 47 c 128,-1,26
 896 -20 896 -20 765 -20 c 0,4,5
656 254 m 0,27,28
 723 254 723 254 768.5 290 c 128,-1,29
 814 326 814 326 838.5 391 c 128,-1,30
 863 456 863 456 863 544 c 0,31,32
 863 633 863 633 838.5 697.5 c 128,-1,33
 814 762 814 762 768 797.5 c 128,-1,34
 722 833 722 833 656 833 c 0,35,36
 591 833 591 833 542.5 797.5 c 128,-1,37
 494 762 494 762 467.5 697 c 128,-1,38
 441 632 441 632 441 544 c 0,39,40
 441 457 441 457 467.5 392 c 128,-1,41
 494 327 494 327 543 290.5 c 128,-1,42
 592 254 592 254 656 254 c 0,27,28
EndSplineSet
EndChar

StartChar: uni0253
Encoding: 595 595 582
Width: 1277
GlyphClass: 2
Flags: W
AnchorPoint: "Anchor-1" 458 1490 basechar 0
AnchorPoint: "Anchor-0" 633 0 basechar 0
LayerCount: 2
Fore
SplineSet
763 -20 m 0,0,1
 686 -20 686 -20 625.5 4.5 c 128,-1,2
 565 29 565 29 522.5 72 c 128,-1,3
 480 115 480 115 455 169 c 1,4,-1
 447 169 l 1,5,-1
 447 0 l 1,6,-1
 106 0 l 1,7,-1
 106 1087 l 1,8,-1
 451 1087 l 1,9,-1
 451 905 l 1,10,-1
 458 909 l 1,11,12
 485 959 485 959 526.5 1000 c 128,-1,13
 568 1041 568 1041 627.5 1064 c 128,-1,14
 687 1087 687 1087 766 1087 c 0,15,16
 893 1087 893 1087 994.5 1023 c 128,-1,17
 1096 959 1096 959 1155.5 836.5 c 128,-1,18
 1215 714 1215 714 1215 538 c 0,19,20
 1215 364 1215 364 1157 239 c 128,-1,21
 1099 114 1099 114 997 47 c 128,-1,22
 895 -20 895 -20 763 -20 c 0,0,1
656 254 m 0,23,24
 722 254 722 254 768 288.5 c 128,-1,25
 814 323 814 323 838.5 387 c 128,-1,26
 863 451 863 451 863 538 c 256,27,28
 863 625 863 625 838.5 689 c 128,-1,29
 814 753 814 753 768.5 787.5 c 128,-1,30
 723 822 723 822 656 822 c 0,31,32
 591 822 591 822 542 787.5 c 128,-1,33
 493 753 493 753 466.5 689 c 128,-1,34
 440 625 440 625 440 538 c 0,35,36
 440 453 440 453 466.5 388.5 c 128,-1,37
 493 324 493 324 542 289 c 128,-1,38
 591 254 591 254 656 254 c 0,23,24
106 844 m 1,39,-1
 106 1153 l 2,40,41
 106 1325 106 1325 202.5 1411 c 128,-1,42
 299 1497 299 1497 492 1497 c 0,43,44
 547 1497 547 1497 593.5 1495 c 128,-1,45
 640 1493 640 1493 674 1488 c 1,46,-1
 674 1228 l 1,47,48
 652 1230 652 1230 622 1231 c 128,-1,49
 592 1232 592 1232 560 1232 c 0,50,51
 503 1232 503 1232 477.5 1211.5 c 128,-1,52
 452 1191 452 1191 452 1145 c 2,53,-1
 452 844 l 1,54,-1
 106 844 l 1,39,-1
EndSplineSet
EndChar

StartChar: thorn
Encoding: 254 254 586
Width: 1279
Flags: W
LayerCount: 2
Fore
SplineSet
765 -20 m 0,0,1
 688 -20 688 -20 628 4.5 c 128,-1,2
 568 29 568 29 526 72 c 128,-1,3
 484 115 484 115 459 170 c 1,4,-1
 453 170 l 1,5,-1
 453 -418 l 1,6,-1
 106 -418 l 1,7,-1
 106 1490 l 1,8,-1
 453 1490 l 1,9,-1
 453 923 l 1,10,-1
 460 923 l 1,11,12
 487 975 487 975 528.5 1016.5 c 128,-1,13
 570 1058 570 1058 629.5 1082 c 128,-1,14
 689 1106 689 1106 768 1106 c 0,15,16
 894 1106 894 1106 996 1040 c 128,-1,17
 1098 974 1098 974 1157.5 848.5 c 128,-1,18
 1217 723 1217 723 1217 544 c 0,19,20
 1217 366 1217 366 1159 240 c 128,-1,21
 1101 114 1101 114 999 47 c 128,-1,22
 897 -20 897 -20 765 -20 c 0,0,1
657 254 m 0,23,24
 723 254 723 254 769 290 c 128,-1,25
 815 326 815 326 839.5 391 c 128,-1,26
 864 456 864 456 864 544 c 0,27,28
 864 633 864 633 839.5 697.5 c 128,-1,29
 815 762 815 762 769 797.5 c 128,-1,30
 723 833 723 833 657 833 c 0,31,32
 592 833 592 833 543.5 797.5 c 128,-1,33
 495 762 495 762 468.5 697 c 128,-1,34
 442 632 442 632 442 544 c 0,35,36
 442 457 442 457 468.5 392 c 128,-1,37
 495 327 495 327 543.5 290.5 c 128,-1,38
 592 254 592 254 657 254 c 0,23,24
EndSplineSet
EndChar

StartChar: c
Encoding: 99 99 587
Width: 1192
GlyphClass: 2
Flags: W
AnchorPoint: "Anchor-3" 617 0 basechar 0
AnchorPoint: "Anchor-1" 617 1087 basechar 0
AnchorPoint: "Anchor-0" 617 0 basechar 0
LayerCount: 2
Fore
SplineSet
617 -22 m 0,0,1
 447 -22 447 -22 323 49 c 128,-1,2
 199 120 199 120 130.5 247 c 128,-1,3
 62 374 62 374 62 541 c 0,4,5
 62 710 62 710 130.5 837.5 c 128,-1,6
 199 965 199 965 323 1035.5 c 128,-1,7
 447 1106 447 1106 617 1106 c 0,8,9
 725 1106 725 1106 815.5 1076.5 c 128,-1,10
 906 1047 906 1047 974 991.5 c 128,-1,11
 1042 936 1042 936 1082.5 859 c 128,-1,12
 1123 782 1123 782 1133 688 c 1,13,-1
 805 661 l 1,14,15
 800 702 800 702 785 734 c 128,-1,16
 770 766 770 766 746.5 789 c 128,-1,17
 723 812 723 812 691.5 824.5 c 128,-1,18
 660 837 660 837 622 837 c 0,19,20
 556 837 556 837 510 802 c 128,-1,21
 464 767 464 767 439.5 701 c 128,-1,22
 415 635 415 635 415 542 c 0,23,24
 415 451 415 451 439.5 385 c 128,-1,25
 464 319 464 319 510 283.5 c 128,-1,26
 556 248 556 248 622 248 c 0,27,28
 660 248 660 248 691.5 260.5 c 128,-1,29
 723 273 723 273 746.5 296 c 128,-1,30
 770 319 770 319 785 352.5 c 128,-1,31
 800 386 800 386 806 428 c 1,32,-1
 1133 401 l 1,33,34
 1125 306 1125 306 1085 228 c 128,-1,35
 1045 150 1045 150 977.5 94.5 c 128,-1,36
 910 39 910 39 818 8.5 c 128,-1,37
 726 -22 726 -22 617 -22 c 0,0,1
EndSplineSet
Substitution2: "'sups' Superscript in Latin lookup 39 subtable" c.sups
Substitution2: "'subs' Subscript in Latin lookup 38 subtable" c.subs
Substitution2: "'sinf' Scientific Inferiors in Latin lookup 18 subtable" c.subs
AlternateSubs2: "'aalt' Access All Alternates in Latin lookup 1 subtable" c.sups c.subs
EndChar

StartChar: uni023C
Encoding: 572 572 588
Width: 1192
GlyphClass: 2
Flags: W
AnchorPoint: "Anchor-3" 617 0 basechar 0
AnchorPoint: "Anchor-1" 617 1087 basechar 0
AnchorPoint: "Anchor-0" 617 0 basechar 0
LayerCount: 2
Fore
SplineSet
247 -418 m 1,0,-1
 824 1490 l 1,1,-1
 986 1490 l 1,2,-1
 409 -418 l 1,3,-1
 247 -418 l 1,0,-1
617 -22 m 0,4,5
 447 -22 447 -22 323 49 c 128,-1,6
 199 120 199 120 130.5 247 c 128,-1,7
 62 374 62 374 62 541 c 0,8,9
 62 710 62 710 130.5 837.5 c 128,-1,10
 199 965 199 965 323 1035.5 c 128,-1,11
 447 1106 447 1106 617 1106 c 0,12,13
 725 1106 725 1106 815.5 1076.5 c 128,-1,14
 906 1047 906 1047 974 991.5 c 128,-1,15
 1042 936 1042 936 1082.5 859 c 128,-1,16
 1123 782 1123 782 1133 688 c 1,17,-1
 805 661 l 1,18,19
 800 702 800 702 785 734 c 128,-1,20
 770 766 770 766 746.5 789 c 128,-1,21
 723 812 723 812 691.5 824.5 c 128,-1,22
 660 837 660 837 622 837 c 0,23,24
 556 837 556 837 510 802 c 128,-1,25
 464 767 464 767 439.5 701 c 128,-1,26
 415 635 415 635 415 542 c 0,27,28
 415 451 415 451 439.5 385 c 128,-1,29
 464 319 464 319 510 283.5 c 128,-1,30
 556 248 556 248 622 248 c 0,31,32
 660 248 660 248 691.5 260.5 c 128,-1,33
 723 273 723 273 746.5 296 c 128,-1,34
 770 319 770 319 785 352.5 c 128,-1,35
 800 386 800 386 806 428 c 1,36,-1
 1133 401 l 1,37,38
 1125 306 1125 306 1085 228 c 128,-1,39
 1045 150 1045 150 977.5 94.5 c 128,-1,40
 910 39 910 39 818 8.5 c 128,-1,41
 726 -22 726 -22 617 -22 c 0,4,5
EndSplineSet
Ligature2: "'ccmp' Glyph Composition/Decomposition in Latin lookup 6 subtable" c uni0338
EndChar

StartChar: uni0188
Encoding: 392 392 589
Width: 1342
GlyphClass: 2
Flags: W
AnchorPoint: "Anchor-3" 617 0 basechar 0
AnchorPoint: "Anchor-1" 617 1087 basechar 0
AnchorPoint: "Anchor-0" 617 0 basechar 0
LayerCount: 2
Fore
SplineSet
844 685 m 1,0,-1
 819 952 l 2,1,2
 801 1123 801 1123 876.5 1205 c 128,-1,3
 952 1287 952 1287 1147 1287 c 0,4,5
 1193 1287 1193 1287 1234 1286 c 128,-1,6
 1275 1285 1275 1285 1304 1282 c 1,7,-1
 1301 1018 l 1,8,9
 1281 1021 1281 1021 1252 1021.5 c 128,-1,10
 1223 1022 1223 1022 1193 1022 c 0,11,12
 1141 1022 1141 1022 1121 1000.5 c 128,-1,13
 1101 979 1101 979 1107 931 c 2,14,-1
 1133 688 l 1,15,-1
 844 685 l 1,0,-1
617 -22 m 0,16,17
 447 -22 447 -22 323 49 c 128,-1,18
 199 120 199 120 130.5 247 c 128,-1,19
 62 374 62 374 62 541 c 0,20,21
 62 710 62 710 130.5 837.5 c 128,-1,22
 199 965 199 965 323 1035.5 c 128,-1,23
 447 1106 447 1106 617 1106 c 0,24,25
 725 1106 725 1106 815.5 1076.5 c 128,-1,26
 906 1047 906 1047 974 991.5 c 128,-1,27
 1042 936 1042 936 1082.5 859 c 128,-1,28
 1123 782 1123 782 1133 688 c 1,29,-1
 805 661 l 1,30,31
 800 702 800 702 785 734 c 128,-1,32
 770 766 770 766 746.5 789 c 128,-1,33
 723 812 723 812 691.5 824.5 c 128,-1,34
 660 837 660 837 622 837 c 0,35,36
 556 837 556 837 510 802 c 128,-1,37
 464 767 464 767 439.5 701 c 128,-1,38
 415 635 415 635 415 542 c 0,39,40
 415 451 415 451 439.5 385 c 128,-1,41
 464 319 464 319 510 283.5 c 128,-1,42
 556 248 556 248 622 248 c 0,43,44
 660 248 660 248 691.5 260.5 c 128,-1,45
 723 273 723 273 746.5 296 c 128,-1,46
 770 319 770 319 785 352.5 c 128,-1,47
 800 386 800 386 806 428 c 1,48,-1
 1133 401 l 1,49,50
 1125 306 1125 306 1085 228 c 128,-1,51
 1045 150 1045 150 977.5 94.5 c 128,-1,52
 910 39 910 39 818 8.5 c 128,-1,53
 726 -22 726 -22 617 -22 c 0,16,17
EndSplineSet
EndChar

StartChar: d
Encoding: 100 100 598
Width: 1278
GlyphClass: 2
Flags: W
AnchorPoint: "Anchor-1" 490 1299 basechar 0
LayerCount: 2
Fore
SplineSet
515 -20 m 0,0,1
 384 -20 384 -20 281.5 47 c 128,-1,2
 179 114 179 114 120.5 240 c 128,-1,3
 62 366 62 366 62 544 c 0,4,5
 62 723 62 723 122.5 848.5 c 128,-1,6
 183 974 183 974 284.5 1040 c 128,-1,7
 386 1106 386 1106 511 1106 c 0,8,9
 591 1106 591 1106 650.5 1082 c 128,-1,10
 710 1058 710 1058 752.5 1016 c 128,-1,11
 795 974 795 974 822 921 c 1,12,-1
 826 921 l 1,13,-1
 826 1490 l 1,14,-1
 1173 1490 l 1,15,-1
 1173 0 l 1,16,-1
 830 0 l 1,17,-1
 830 173 l 1,18,-1
 824 173 l 1,19,20
 799 116 799 116 756 72.5 c 128,-1,21
 713 29 713 29 653 4.5 c 128,-1,22
 593 -20 593 -20 515 -20 c 0,0,1
623 254 m 256,23,24
 688 254 688 254 736.5 290.5 c 128,-1,25
 785 327 785 327 811 392 c 128,-1,26
 837 457 837 457 837 544 c 0,27,28
 837 632 837 632 811 697 c 128,-1,29
 785 762 785 762 737 797.5 c 128,-1,30
 689 833 689 833 623 833 c 0,31,32
 558 833 558 833 511.5 797.5 c 128,-1,33
 465 762 465 762 440.5 697.5 c 128,-1,34
 416 633 416 633 416 544 c 0,35,36
 416 456 416 456 440.5 391 c 128,-1,37
 465 326 465 326 511.5 290 c 128,-1,38
 558 254 558 254 623 254 c 256,23,24
EndSplineSet
Substitution2: "'sups' Superscript in Latin lookup 39 subtable" d.sups
Substitution2: "'subs' Subscript in Latin lookup 38 subtable" d.subs
Substitution2: "'sinf' Scientific Inferiors in Latin lookup 18 subtable" d.subs
AlternateSubs2: "'aalt' Access All Alternates in Latin lookup 1 subtable" d.sups d.subs
EndChar

StartChar: drthook
Encoding: 598 598 600
Width: 1278
GlyphClass: 2
Flags: W
AnchorPoint: "Anchor-1" 490 1299 basechar 0
LayerCount: 2
Fore
SplineSet
1208 -427 m 0,0,1
 1015 -427 1015 -427 921.5 -340.5 c 128,-1,2
 828 -254 828 -254 828 -83 c 2,3,-1
 828 203 l 1,4,-1
 1172 203 l 1,5,-1
 1172 -74 l 2,6,7
 1172 -121 1172 -121 1196 -141.5 c 128,-1,8
 1220 -162 1220 -162 1276 -162 c 0,9,10
 1308 -162 1308 -162 1338 -161.5 c 128,-1,11
 1368 -161 1368 -161 1390 -159 c 1,12,-1
 1390 -417 l 1,13,14
 1356 -422 1356 -422 1309.5 -424.5 c 128,-1,15
 1263 -427 1263 -427 1208 -427 c 0,0,1
515 -20 m 0,16,17
 384 -20 384 -20 281.5 47 c 128,-1,18
 179 114 179 114 120.5 240 c 128,-1,19
 62 366 62 366 62 544 c 0,20,21
 62 723 62 723 122.5 848.5 c 128,-1,22
 183 974 183 974 284.5 1040 c 128,-1,23
 386 1106 386 1106 511 1106 c 0,24,25
 591 1106 591 1106 650.5 1082 c 128,-1,26
 710 1058 710 1058 752.5 1016 c 128,-1,27
 795 974 795 974 822 921 c 1,28,-1
 826 921 l 1,29,-1
 826 1490 l 1,30,-1
 1173 1490 l 1,31,-1
 1173 0 l 1,32,-1
 830 0 l 1,33,-1
 830 173 l 1,34,-1
 824 173 l 1,35,36
 799 116 799 116 756 72.5 c 128,-1,37
 713 29 713 29 653 4.5 c 128,-1,38
 593 -20 593 -20 515 -20 c 0,16,17
623 254 m 256,39,40
 688 254 688 254 736.5 290.5 c 128,-1,41
 785 327 785 327 811 392 c 128,-1,42
 837 457 837 457 837 544 c 0,43,44
 837 632 837 632 811 697 c 128,-1,45
 785 762 785 762 737 797.5 c 128,-1,46
 689 833 689 833 623 833 c 0,47,48
 558 833 558 833 511.5 797.5 c 128,-1,49
 465 762 465 762 440.5 697.5 c 128,-1,50
 416 633 416 633 416 544 c 0,51,52
 416 456 416 456 440.5 391 c 128,-1,53
 465 326 465 326 511.5 290 c 128,-1,54
 558 254 558 254 623 254 c 256,39,40
EndSplineSet
EndChar

StartChar: uni0257
Encoding: 599 599 601
Width: 1276
GlyphClass: 2
Flags: W
AnchorPoint: "Anchor-4" 1171 0 basechar 0
AnchorPoint: "Anchor-1" 633 1087 basechar 0
AnchorPoint: "Anchor-0" 636 0 basechar 0
LayerCount: 2
Fore
SplineSet
824 844 m 1,0,-1
 824 1153 l 2,1,2
 824 1325 824 1325 920.5 1411 c 128,-1,3
 1017 1497 1017 1497 1210 1497 c 0,4,5
 1265 1497 1265 1497 1312 1495 c 128,-1,6
 1359 1493 1359 1493 1392 1488 c 1,7,-1
 1392 1228 l 1,8,9
 1371 1230 1371 1230 1340.5 1231 c 128,-1,10
 1310 1232 1310 1232 1278 1232 c 0,11,12
 1221 1232 1221 1232 1196 1211.5 c 128,-1,13
 1171 1191 1171 1191 1171 1145 c 2,14,-1
 1171 844 l 1,15,-1
 824 844 l 1,0,-1
514 -20 m 0,16,17
 384 -20 384 -20 282 47 c 128,-1,18
 180 114 180 114 121 240 c 128,-1,19
 62 366 62 366 62 544 c 0,20,21
 62 723 62 723 122.5 848.5 c 128,-1,22
 183 974 183 974 285 1040 c 128,-1,23
 387 1106 387 1106 512 1106 c 0,24,25
 592 1106 592 1106 651.5 1081.5 c 128,-1,26
 711 1057 711 1057 753.5 1016 c 128,-1,27
 796 975 796 975 823 923 c 1,28,-1
 830 923 l 1,29,-1
 830 1087 l 1,30,-1
 1171 1087 l 1,31,-1
 1171 0 l 1,32,-1
 830 0 l 1,33,-1
 830 170 l 1,34,-1
 823 170 l 1,35,36
 799 115 799 115 756 72.5 c 128,-1,37
 713 30 713 30 652.5 5 c 128,-1,38
 592 -20 592 -20 514 -20 c 0,16,17
623 254 m 256,39,40
 689 254 689 254 737 290.5 c 128,-1,41
 785 327 785 327 811 392 c 128,-1,42
 837 457 837 457 837 544 c 0,43,44
 837 632 837 632 811 697 c 128,-1,45
 785 762 785 762 737.5 797.5 c 128,-1,46
 690 833 690 833 623 833 c 0,47,48
 558 833 558 833 511.5 797.5 c 128,-1,49
 465 762 465 762 440.5 698 c 128,-1,50
 416 634 416 634 416 544 c 0,51,52
 416 456 416 456 440.5 391 c 128,-1,53
 465 326 465 326 511 290 c 128,-1,54
 557 254 557 254 623 254 c 256,39,40
EndSplineSet
EndChar

StartChar: uni018C
Encoding: 396 396 602
Width: 1278
GlyphClass: 2
Flags: W
AnchorPoint: "Anchor-1" 490 1299 basechar 0
LayerCount: 2
Fore
SplineSet
998 1228 m 1,0,-1
 294 1228 l 1,1,-1
 294 1490 l 1,2,-1
 1173 1490 l 1,3,-1
 998 1228 l 1,0,-1
515 -20 m 0,4,5
 384 -20 384 -20 281.5 47 c 128,-1,6
 179 114 179 114 120.5 240 c 128,-1,7
 62 366 62 366 62 544 c 0,8,9
 62 723 62 723 122.5 848.5 c 128,-1,10
 183 974 183 974 284.5 1040 c 128,-1,11
 386 1106 386 1106 511 1106 c 0,12,13
 591 1106 591 1106 650.5 1082 c 128,-1,14
 710 1058 710 1058 752.5 1016 c 128,-1,15
 795 974 795 974 822 921 c 1,16,-1
 826 921 l 1,17,-1
 826 1490 l 1,18,-1
 1173 1490 l 1,19,-1
 1173 0 l 1,20,-1
 830 0 l 1,21,-1
 830 173 l 1,22,-1
 824 173 l 1,23,24
 799 116 799 116 756 72.5 c 128,-1,25
 713 29 713 29 653 4.5 c 128,-1,26
 593 -20 593 -20 515 -20 c 0,4,5
623 254 m 256,27,28
 688 254 688 254 736.5 290.5 c 128,-1,29
 785 327 785 327 811 392 c 128,-1,30
 837 457 837 457 837 544 c 0,31,32
 837 632 837 632 811 697 c 128,-1,33
 785 762 785 762 737 797.5 c 128,-1,34
 689 833 689 833 623 833 c 0,35,36
 558 833 558 833 511.5 797.5 c 128,-1,37
 465 762 465 762 440.5 697.5 c 128,-1,38
 416 633 416 633 416 544 c 0,39,40
 416 456 416 456 440.5 391 c 128,-1,41
 465 326 465 326 511.5 290 c 128,-1,42
 558 254 558 254 623 254 c 256,27,28
EndSplineSet
EndChar

StartChar: uni0221
Encoding: 545 545 603
Width: 1598
GlyphClass: 2
Flags: W
AnchorPoint: "Anchor-1" 490 1299 basechar 0
LayerCount: 2
Fore
SplineSet
1261 -418 m 0,0,1
 1109 -418 1109 -418 1013 -373 c 128,-1,2
 917 -328 917 -328 871 -242 c 128,-1,3
 825 -156 825 -156 825 -34 c 2,4,-1
 825 204 l 1,5,-1
 1172 204 l 1,6,-1
 1172 -122 l 2,7,8
 1172 -168 1172 -168 1200.5 -192.5 c 128,-1,9
 1229 -217 1229 -217 1270 -217 c 0,10,11
 1308 -217 1308 -217 1332.5 -198 c 128,-1,12
 1357 -179 1357 -179 1357 -146 c 0,13,14
 1357 -114 1357 -114 1333 -92.5 c 128,-1,15
 1309 -71 1309 -71 1260 -69 c 0,16,17
 1229 -68 1229 -68 1196 -76.5 c 128,-1,18
 1163 -85 1163 -85 1118 -111 c 128,-1,19
 1073 -137 1073 -137 1005 -186 c 2,20,-1
 698 -419 l 1,21,-1
 545 -221 l 1,22,-1
 855 10 l 2,23,24
 932 66 932 66 1031.5 108 c 128,-1,25
 1131 150 1131 150 1244 150 c 0,26,27
 1432 150 1432 150 1540.5 62 c 128,-1,28
 1649 -26 1649 -26 1649 -160 c 0,29,30
 1649 -284 1649 -284 1549 -351 c 128,-1,31
 1449 -418 1449 -418 1261 -418 c 0,0,1
515 -20 m 0,32,33
 384 -20 384 -20 281.5 47 c 128,-1,34
 179 114 179 114 120.5 240 c 128,-1,35
 62 366 62 366 62 544 c 0,36,37
 62 723 62 723 122.5 848.5 c 128,-1,38
 183 974 183 974 284.5 1040 c 128,-1,39
 386 1106 386 1106 511 1106 c 0,40,41
 591 1106 591 1106 650.5 1082 c 128,-1,42
 710 1058 710 1058 752.5 1016 c 128,-1,43
 795 974 795 974 822 921 c 1,44,-1
 826 921 l 1,45,-1
 826 1490 l 1,46,-1
 1173 1490 l 1,47,-1
 1173 0 l 1,48,-1
 830 0 l 1,49,-1
 830 173 l 1,50,-1
 824 173 l 1,51,52
 799 116 799 116 756 72.5 c 128,-1,53
 713 29 713 29 653 4.5 c 128,-1,54
 593 -20 593 -20 515 -20 c 0,32,33
623 254 m 256,55,56
 688 254 688 254 736.5 290.5 c 128,-1,57
 785 327 785 327 811 392 c 128,-1,58
 837 457 837 457 837 544 c 0,59,60
 837 632 837 632 811 697 c 128,-1,61
 785 762 785 762 737 797.5 c 128,-1,62
 689 833 689 833 623 833 c 0,63,64
 558 833 558 833 511.5 797.5 c 128,-1,65
 465 762 465 762 440.5 697.5 c 128,-1,66
 416 633 416 633 416 544 c 0,67,68
 416 456 416 456 440.5 391 c 128,-1,69
 465 326 465 326 511.5 290 c 128,-1,70
 558 254 558 254 623 254 c 256,55,56
EndSplineSet
EndChar

StartChar: uni02A3
Encoding: 675 675 611
Width: 2337
GlyphClass: 2
Flags: W
AnchorPoint: "Anchor-1" 490 1299 basechar 0
LayerCount: 2
Fore
SplineSet
1296 0 m 1,0,-1
 1296 213 l 1,1,-1
 1808 813 l 1,2,-1
 1808 818 l 1,3,-1
 1084 818 l 1,4,-1
 1084 1087 l 1,5,-1
 2216 1087 l 1,6,-1
 2216 857 l 1,7,-1
 1729 273 l 1,8,-1
 1729 268 l 1,9,-1
 2230 268 l 1,10,-1
 2230 0 l 1,11,-1
 1296 0 l 1,0,-1
515 -20 m 0,12,13
 384 -20 384 -20 281.5 47 c 128,-1,14
 179 114 179 114 120.5 240 c 128,-1,15
 62 366 62 366 62 544 c 0,16,17
 62 723 62 723 122.5 848.5 c 128,-1,18
 183 974 183 974 284.5 1040 c 128,-1,19
 386 1106 386 1106 511 1106 c 0,20,21
 591 1106 591 1106 650.5 1082 c 128,-1,22
 710 1058 710 1058 752.5 1016 c 128,-1,23
 795 974 795 974 822 921 c 1,24,-1
 826 921 l 1,25,-1
 826 1490 l 1,26,-1
 1173 1490 l 1,27,-1
 1173 0 l 1,28,-1
 830 0 l 1,29,-1
 830 173 l 1,30,-1
 824 173 l 1,31,32
 799 116 799 116 756 72.5 c 128,-1,33
 713 29 713 29 653 4.5 c 128,-1,34
 593 -20 593 -20 515 -20 c 0,12,13
623 254 m 256,35,36
 688 254 688 254 736.5 290.5 c 128,-1,37
 785 327 785 327 811 392 c 128,-1,38
 837 457 837 457 837 544 c 0,39,40
 837 632 837 632 811 697 c 128,-1,41
 785 762 785 762 737 797.5 c 128,-1,42
 689 833 689 833 623 833 c 0,43,44
 558 833 558 833 511.5 797.5 c 128,-1,45
 465 762 465 762 440.5 697.5 c 128,-1,46
 416 633 416 633 416 544 c 0,47,48
 416 456 416 456 440.5 391 c 128,-1,49
 465 326 465 326 511.5 290 c 128,-1,50
 558 254 558 254 623 254 c 256,35,36
EndSplineSet
EndChar

StartChar: dyogh
Encoding: 676 676 613
Width: 2068
GlyphClass: 2
Flags: W
AnchorPoint: "Anchor-1" 490 1299 basechar 0
LayerCount: 2
Fore
SplineSet
1184 -70 m 1,0,1
 1194 -99 1194 -99 1224 -120.5 c 128,-1,2
 1254 -142 1254 -142 1299.5 -154 c 128,-1,3
 1345 -166 1345 -166 1399 -166 c 0,4,5
 1470 -166 1470 -166 1524.5 -141.5 c 128,-1,6
 1579 -117 1579 -117 1609 -71 c 128,-1,7
 1639 -25 1639 -25 1639 37 c 0,8,9
 1639 94 1639 94 1608.5 138 c 128,-1,10
 1578 182 1578 182 1520.5 206 c 128,-1,11
 1463 230 1463 230 1382 230 c 2,12,-1
 1266 230 l 1,13,-1
 1266 498 l 1,14,-1
 1553 793 l 1,15,-1
 1553 798 l 1,16,-1
 1071 798 l 1,17,-1
 1071 1088 l 1,18,-1
 1953 1088 l 1,19,-1
 1953 834 l 1,20,-1
 1546 437 l 1,21,-1
 1546 431 l 1,22,23
 1712 413 1712 413 1812 348.5 c 128,-1,24
 1912 284 1912 284 1956 194.5 c 128,-1,25
 2000 105 2000 105 2000 12 c 0,26,27
 2000 -124 2000 -124 1920.5 -224.5 c 128,-1,28
 1841 -325 1841 -325 1704.5 -379.5 c 128,-1,29
 1568 -434 1568 -434 1395 -434 c 0,30,31
 1236 -434 1236 -434 1115.5 -387.5 c 128,-1,32
 995 -341 995 -341 922.5 -258.5 c 128,-1,33
 850 -176 850 -176 834 -70 c 1,34,-1
 1184 -70 l 1,0,1
515 -20 m 0,35,36
 384 -20 384 -20 281.5 47 c 128,-1,37
 179 114 179 114 120.5 240 c 128,-1,38
 62 366 62 366 62 544 c 0,39,40
 62 723 62 723 122.5 848.5 c 128,-1,41
 183 974 183 974 284.5 1040 c 128,-1,42
 386 1106 386 1106 511 1106 c 0,43,44
 591 1106 591 1106 650.5 1082 c 128,-1,45
 710 1058 710 1058 752.5 1016 c 128,-1,46
 795 974 795 974 822 921 c 1,47,-1
 826 921 l 1,48,-1
 826 1490 l 1,49,-1
 1173 1490 l 1,50,-1
 1173 0 l 1,51,-1
 830 0 l 1,52,-1
 830 173 l 1,53,-1
 824 173 l 1,54,55
 799 116 799 116 756 72.5 c 128,-1,56
 713 29 713 29 653 4.5 c 128,-1,57
 593 -20 593 -20 515 -20 c 0,35,36
623 254 m 256,58,59
 688 254 688 254 736.5 290.5 c 128,-1,60
 785 327 785 327 811 392 c 128,-1,61
 837 457 837 457 837 544 c 0,62,63
 837 632 837 632 811 697 c 128,-1,64
 785 762 785 762 737 797.5 c 128,-1,65
 689 833 689 833 623 833 c 0,66,67
 558 833 558 833 511.5 797.5 c 128,-1,68
 465 762 465 762 440.5 697.5 c 128,-1,69
 416 633 416 633 416 544 c 0,70,71
 416 456 416 456 440.5 391 c 128,-1,72
 465 326 465 326 511.5 290 c 128,-1,73
 558 254 558 254 623 254 c 256,58,59
EndSplineSet
EndChar

StartChar: e
Encoding: 101 101 615
Width: 1201
GlyphClass: 2
Flags: W
AnchorPoint: "Anchor-4" 1131 317 basechar 0
AnchorPoint: "Anchor-3" 610 0 basechar 0
AnchorPoint: "Anchor-1" 603 1087 basechar 0
AnchorPoint: "Anchor-0" 603 0 basechar 0
LayerCount: 2
Fore
SplineSet
616 -22 m 0,0,1
 448 -22 448 -22 323.5 47.5 c 128,-1,2
 199 117 199 117 130.5 244.5 c 128,-1,3
 62 372 62 372 62 541 c 0,4,5
 62 709 62 709 130.5 836 c 128,-1,6
 199 963 199 963 321.5 1034.5 c 128,-1,7
 444 1106 444 1106 606 1106 c 0,8,9
 724 1106 724 1106 822.5 1068 c 128,-1,10
 921 1030 921 1030 993 957 c 128,-1,11
 1065 884 1065 884 1104 781.5 c 128,-1,12
 1143 679 1143 679 1143 549 c 2,13,-1
 1143 459 l 1,14,-1
 180 459 l 1,15,-1
 180 664 l 1,16,-1
 979 664 l 1,17,-1
 820 618 l 1,18,19
 820 691 820 691 795.5 743.5 c 128,-1,20
 771 796 771 796 725 824.5 c 128,-1,21
 679 853 679 853 612 853 c 256,22,23
 545 853 545 853 498.5 824.5 c 128,-1,24
 452 796 452 796 426.5 744.5 c 128,-1,25
 401 693 401 693 401 622 c 2,26,-1
 401 472 l 2,27,28
 401 395 401 395 428.5 340 c 128,-1,29
 456 285 456 285 506.5 256.5 c 128,-1,30
 557 228 557 228 626 228 c 0,31,32
 674 228 674 228 713.5 242 c 128,-1,33
 753 256 753 256 780.5 281.5 c 128,-1,34
 808 307 808 307 820 342 c 1,35,-1
 1131 317 l 1,36,37
 1108 217 1108 217 1037 140 c 128,-1,38
 966 63 966 63 858.5 20.5 c 128,-1,39
 751 -22 751 -22 616 -22 c 0,0,1
EndSplineSet
Substitution2: "'sups' Superscript in Latin lookup 39 subtable" e.sups
Substitution2: "'subs' Subscript in Latin lookup 38 subtable" e.subs
Substitution2: "'sinf' Scientific Inferiors in Latin lookup 18 subtable" e.subs
AlternateSubs2: "'aalt' Access All Alternates in Latin lookup 1 subtable" e.sups e.subs
EndChar

StartChar: uni0247
Encoding: 583 583 617
Width: 1201
GlyphClass: 2
Flags: W
AnchorPoint: "Anchor-4" 1131 317 basechar 0
AnchorPoint: "Anchor-3" 610 0 basechar 0
AnchorPoint: "Anchor-1" 603 1087 basechar 0
AnchorPoint: "Anchor-0" 603 0 basechar 0
LayerCount: 2
Fore
SplineSet
218 -418 m 1,0,-1
 843 1490 l 1,1,-1
 999 1490 l 1,2,-1
 373 -418 l 1,3,-1
 218 -418 l 1,0,-1
616 -22 m 0,4,5
 448 -22 448 -22 323.5 47.5 c 128,-1,6
 199 117 199 117 130.5 244.5 c 128,-1,7
 62 372 62 372 62 541 c 0,8,9
 62 709 62 709 130.5 836 c 128,-1,10
 199 963 199 963 321.5 1034.5 c 128,-1,11
 444 1106 444 1106 606 1106 c 0,12,13
 724 1106 724 1106 822.5 1068 c 128,-1,14
 921 1030 921 1030 993 957 c 128,-1,15
 1065 884 1065 884 1104 781.5 c 128,-1,16
 1143 679 1143 679 1143 549 c 2,17,-1
 1143 459 l 1,18,-1
 180 459 l 1,19,-1
 180 664 l 1,20,-1
 979 664 l 1,21,-1
 820 618 l 1,22,23
 820 691 820 691 795.5 743.5 c 128,-1,24
 771 796 771 796 725 824.5 c 128,-1,25
 679 853 679 853 612 853 c 256,26,27
 545 853 545 853 498.5 824.5 c 128,-1,28
 452 796 452 796 426.5 744.5 c 128,-1,29
 401 693 401 693 401 622 c 2,30,-1
 401 472 l 2,31,32
 401 395 401 395 428.5 340 c 128,-1,33
 456 285 456 285 506.5 256.5 c 128,-1,34
 557 228 557 228 626 228 c 0,35,36
 674 228 674 228 713.5 242 c 128,-1,37
 753 256 753 256 780.5 281.5 c 128,-1,38
 808 307 808 307 820 342 c 1,39,-1
 1131 317 l 1,40,41
 1108 217 1108 217 1037 140 c 128,-1,42
 966 63 966 63 858.5 20.5 c 128,-1,43
 751 -22 751 -22 616 -22 c 0,4,5
EndSplineSet
EndChar

StartChar: eturn
Encoding: 477 477 646
Width: 1201
GlyphClass: 2
Flags: W
AnchorPoint: "Anchor-4" 915 38 basechar 0
AnchorPoint: "Anchor-3" 626 0 basechar 0
AnchorPoint: "Anchor-1" 617 1087 basechar 0
AnchorPoint: "Anchor-0" 621 0 basechar 0
LayerCount: 2
Fore
SplineSet
585 1109 m 0,0,1
 755 1109 755 1109 879 1039.5 c 128,-1,2
 1003 970 1003 970 1071 843.5 c 128,-1,3
 1139 717 1139 717 1139 546 c 0,4,5
 1139 380 1139 380 1071 252.5 c 128,-1,6
 1003 125 1003 125 880.5 53 c 128,-1,7
 758 -19 758 -19 596 -19 c 0,8,9
 478 -19 478 -19 379.5 20 c 128,-1,10
 281 59 281 59 209 131 c 128,-1,11
 137 203 137 203 97.5 306.5 c 128,-1,12
 58 410 58 410 58 539 c 2,13,-1
 58 629 l 1,14,-1
 1021 629 l 1,15,-1
 1021 425 l 1,16,-1
 222 425 l 1,17,-1
 383 470 l 1,18,19
 383 397 383 397 407.5 344 c 128,-1,20
 432 291 432 291 478 262.5 c 128,-1,21
 524 234 524 234 591 234 c 0,22,23
 657 234 657 234 704 263 c 128,-1,24
 751 292 751 292 775 344 c 128,-1,25
 799 396 799 396 799 466 c 2,26,-1
 799 615 l 2,27,28
 799 694 799 694 772.5 748.5 c 128,-1,29
 746 803 746 803 696 831 c 128,-1,30
 646 859 646 859 576 859 c 0,31,32
 527 859 527 859 488 845.5 c 128,-1,33
 449 832 449 832 421.5 806.5 c 128,-1,34
 394 781 394 781 380 745 c 1,35,-1
 70 770 l 1,36,37
 95 872 95 872 165.5 948 c 128,-1,38
 236 1024 236 1024 343.5 1066.5 c 128,-1,39
 451 1109 451 1109 585 1109 c 0,0,1
EndSplineSet
EndChar

StartChar: _part.f_base
Encoding: 1114123 -1 647
Width: 805
GlyphClass: 2
Flags: W
AnchorPoint: "Anchor-1" 421 1521 basechar 0
AnchorPoint: "Anchor-0" 359 0 basechar 0
LayerCount: 2
Fore
SplineSet
186 0 m 1,0,-1
 186 1176 l 2,1,2
 186 1293 186 1293 230.5 1370.5 c 128,-1,3
 275 1448 275 1448 358.5 1486.5 c 128,-1,4
 442 1525 442 1525 560 1525 c 0,5,6
 628 1525 628 1525 688 1519.5 c 128,-1,7
 748 1514 748 1514 774 1509 c 1,8,-1
 746 1248 l 1,9,10
 730 1252 730 1252 700 1254.5 c 128,-1,11
 670 1257 670 1257 644 1257 c 0,12,13
 582 1257 582 1257 557 1229.5 c 128,-1,14
 532 1202 532 1202 532 1148 c 2,15,-1
 532 0 l 1,16,-1
 186 0 l 1,0,-1
EndSplineSet
EndChar

StartChar: f
Encoding: 102 102 648
Width: 827
GlyphClass: 2
Flags: W
AnchorPoint: "Anchor-1" 445 1521 basechar 0
AnchorPoint: "Anchor-0" 383 0 basechar 0
LayerCount: 2
Fore
SplineSet
777 1087 m 1,0,-1
 777 825 l 1,1,-1
 20 825 l 1,2,-1
 20 1087 l 1,3,-1
 777 1087 l 1,0,-1
211 0 m 1,4,-1
 211 1176 l 2,5,6
 211 1293 211 1293 254.5 1370.5 c 128,-1,7
 298 1448 298 1448 382.5 1486.5 c 128,-1,8
 467 1525 467 1525 585 1525 c 0,9,10
 652 1525 652 1525 712 1519.5 c 128,-1,11
 772 1514 772 1514 799 1509 c 1,12,-1
 771 1248 l 1,13,14
 753 1252 753 1252 723 1254.5 c 128,-1,15
 693 1257 693 1257 667 1257 c 0,16,17
 606 1257 606 1257 581.5 1229.5 c 128,-1,18
 557 1202 557 1202 557 1148 c 2,19,-1
 557 0 l 1,20,-1
 211 0 l 1,4,-1
EndSplineSet
Substitution2: "'cv12' Character Variants 12 in Latin lookup 66 subtable" f.1
Substitution2: "'salt' Stylistic Alternatives in Latin lookup 46 subtable" f.1
Substitution2: "'sups' Superscript in Latin lookup 39 subtable" f.sups
Substitution2: "'subs' Subscript in Latin lookup 38 subtable" f.subs
Substitution2: "Single Substitution lookup 36 subtable" f.1
Substitution2: "Single Substitution lookup 35 subtable" f.i.1
Substitution2: "Single Substitution lookup 34 subtable" f.i
Substitution2: "'sinf' Scientific Inferiors in Latin lookup 18 subtable" f.subs
AlternateSubs2: "'aalt' Access All Alternates in Latin lookup 1 subtable" f.sups f.subs
EndChar

StartChar: f.1
Encoding: 60941 60941 649
Width: 722
GlyphClass: 2
Flags: W
AnchorPoint: "Anchor-1" 341 1521 basechar 0
AnchorPoint: "Anchor-0" 279 0 basechar 0
LayerCount: 2
Fore
SplineSet
672 1087 m 1,0,-1
 672 825 l 1,1,-1
 275 825 l 1,2,-1
 275 1087 l 1,3,-1
 672 1087 l 1,0,-1
106 0 m 1,4,-1
 106 1176 l 2,5,6
 106 1293 106 1293 150.5 1370.5 c 128,-1,7
 195 1448 195 1448 278.5 1486.5 c 128,-1,8
 362 1525 362 1525 480 1525 c 0,9,10
 548 1525 548 1525 608 1519.5 c 128,-1,11
 668 1514 668 1514 694 1509 c 1,12,-1
 666 1248 l 1,13,14
 650 1252 650 1252 620 1254.5 c 128,-1,15
 590 1257 590 1257 564 1257 c 0,16,17
 502 1257 502 1257 477 1229.5 c 128,-1,18
 452 1202 452 1202 452 1148 c 2,19,-1
 452 0 l 1,20,-1
 106 0 l 1,4,-1
EndSplineSet
EndChar

StartChar: f.i
Encoding: 60942 60942 650
Width: 762
GlyphClass: 2
Flags: W
AnchorPoint: "Anchor-1" 445 1521 basechar 0
AnchorPoint: "Anchor-0" 382 0 basechar 0
LayerCount: 2
Fore
SplineSet
210 0 m 1,0,-1
 210 1176 l 2,1,2
 210 1293 210 1293 254 1370.5 c 128,-1,3
 298 1448 298 1448 382 1486.5 c 128,-1,4
 466 1525 466 1525 585 1525 c 0,5,6
 621 1525 621 1525 657 1523 c 128,-1,7
 693 1521 693 1521 726 1519 c 1,8,-1
 723 1253 l 1,9,10
 710 1255 710 1255 695.5 1256 c 128,-1,11
 681 1257 681 1257 667 1257 c 0,12,13
 606 1257 606 1257 581 1229.5 c 128,-1,14
 556 1202 556 1202 556 1148 c 2,15,-1
 556 0 l 1,16,-1
 210 0 l 1,0,-1
20 825 m 1,17,-1
 20 1087 l 1,18,-1
 1039 1087 l 1,19,-1
 1039 825 l 1,20,-1
 20 825 l 1,17,-1
EndSplineSet
Substitution2: "Single Substitution lookup 35 subtable" f.i.1
EndChar

StartChar: f.i.1
Encoding: 60943 60943 651
Width: 661
GlyphClass: 2
Flags: W
AnchorPoint: "Anchor-1" 341 1521 basechar 0
AnchorPoint: "Anchor-0" 279 0 basechar 0
LayerCount: 2
Fore
SplineSet
106 0 m 1,0,-1
 106 1176 l 2,1,2
 106 1293 106 1293 150.5 1370.5 c 128,-1,3
 195 1448 195 1448 278.5 1486.5 c 128,-1,4
 362 1525 362 1525 480 1525 c 0,5,6
 517 1525 517 1525 553 1523 c 128,-1,7
 589 1521 589 1521 622 1519 c 1,8,-1
 619 1253 l 1,9,10
 605 1255 605 1255 591 1256 c 128,-1,11
 577 1257 577 1257 564 1257 c 0,12,13
 502 1257 502 1257 477 1229.5 c 128,-1,14
 452 1202 452 1202 452 1148 c 2,15,-1
 452 0 l 1,16,-1
 106 0 l 1,0,-1
279 825 m 1,17,-1
 279 1087 l 1,18,-1
 966 1087 l 1,19,-1
 966 825 l 1,20,-1
 279 825 l 1,17,-1
EndSplineSet
EndChar

StartChar: g
Encoding: 103 103 659
Width: 1280
GlyphClass: 2
Flags: W
AnchorPoint: "Anchor-1" 623 1087 basechar 0
AnchorPoint: "Anchor-0" 625 -421 basechar 0
LayerCount: 2
Fore
SplineSet
624 -437 m 0,0,1
 470 -437 470 -437 361 -396 c 128,-1,2
 252 -355 252 -355 189 -282 c 128,-1,3
 126 -209 126 -209 108 -115 c 1,4,-1
 424 -84 l 1,5,6
 433 -115 433 -115 459 -140 c 128,-1,7
 485 -165 485 -165 526.5 -179 c 128,-1,8
 568 -193 568 -193 623 -193 c 0,9,10
 724 -193 724 -193 778 -142.5 c 128,-1,11
 832 -92 832 -92 832 12 c 2,12,-1
 832 191 l 1,13,-1
 818 191 l 1,14,15
 794 135 794 135 752 94.5 c 128,-1,16
 710 54 710 54 650.5 32.5 c 128,-1,17
 591 11 591 11 514 11 c 0,18,19
 385 11 385 11 282.5 74 c 128,-1,20
 180 137 180 137 121 257.5 c 128,-1,21
 62 378 62 378 62 549 c 0,22,23
 62 726 62 726 122.5 850.5 c 128,-1,24
 183 975 183 975 285 1040.5 c 128,-1,25
 387 1106 387 1106 512 1106 c 0,26,27
 592 1106 592 1106 652 1081.5 c 128,-1,28
 712 1057 712 1057 755.5 1014 c 128,-1,29
 799 971 799 971 826 917 c 1,30,-1
 832 917 l 1,31,-1
 832 1087 l 1,32,-1
 1174 1087 l 1,33,-1
 1174 42 l 2,34,35
 1174 -121 1174 -121 1106 -227.5 c 128,-1,36
 1038 -334 1038 -334 914 -385.5 c 128,-1,37
 790 -437 790 -437 624 -437 c 0,0,1
623 275 m 256,38,39
 689 275 689 275 737 308 c 128,-1,40
 785 341 785 341 811 404.5 c 128,-1,41
 837 468 837 468 837 553 c 0,42,43
 837 640 837 640 811 703 c 128,-1,44
 785 766 785 766 737.5 801 c 128,-1,45
 690 836 690 836 623 836 c 0,46,47
 558 836 558 836 511.5 801.5 c 128,-1,48
 465 767 465 767 440.5 703 c 128,-1,49
 416 639 416 639 416 553 c 0,50,51
 416 466 416 466 440.5 403 c 128,-1,52
 465 340 465 340 511 307.5 c 128,-1,53
 557 275 557 275 623 275 c 256,38,39
EndSplineSet
Substitution2: "'smcp' Lowercase to Small Capitals in Latin lookup 69 subtable" g.sc
Substitution2: "'sups' Superscript in Latin lookup 39 subtable" g.sups
Substitution2: "'subs' Subscript in Latin lookup 38 subtable" g.subs
Substitution2: "'sinf' Scientific Inferiors in Latin lookup 18 subtable" g.subs
AlternateSubs2: "'aalt' Access All Alternates in Latin lookup 1 subtable" g.sc g.sups g.subs
EndChar

StartChar: uni0260
Encoding: 608 608 660
Width: 1280
GlyphClass: 2
Flags: W
AnchorPoint: "Anchor-1" 623 1087 basechar 0
AnchorPoint: "Anchor-0" 625 -421 basechar 0
LayerCount: 2
Fore
SplineSet
828 844 m 1,0,-1
 828 1153 l 2,1,2
 828 1325 828 1325 924.5 1411 c 128,-1,3
 1021 1497 1021 1497 1214 1497 c 0,4,5
 1269 1497 1269 1497 1316 1495 c 128,-1,6
 1363 1493 1363 1493 1396 1488 c 1,7,-1
 1396 1228 l 1,8,9
 1375 1230 1375 1230 1344.5 1231 c 128,-1,10
 1314 1232 1314 1232 1282 1232 c 0,11,12
 1225 1232 1225 1232 1199.5 1211.5 c 128,-1,13
 1174 1191 1174 1191 1174 1145 c 2,14,-1
 1174 844 l 1,15,-1
 828 844 l 1,0,-1
624 -437 m 0,16,17
 470 -437 470 -437 361 -396 c 128,-1,18
 252 -355 252 -355 189 -282 c 128,-1,19
 126 -209 126 -209 108 -115 c 1,20,-1
 424 -84 l 1,21,22
 433 -115 433 -115 459 -140 c 128,-1,23
 485 -165 485 -165 526.5 -179 c 128,-1,24
 568 -193 568 -193 623 -193 c 0,25,26
 724 -193 724 -193 778 -142.5 c 128,-1,27
 832 -92 832 -92 832 12 c 2,28,-1
 832 191 l 1,29,-1
 818 191 l 1,30,31
 794 135 794 135 752 94.5 c 128,-1,32
 710 54 710 54 650.5 32.5 c 128,-1,33
 591 11 591 11 514 11 c 0,34,35
 385 11 385 11 282.5 74 c 128,-1,36
 180 137 180 137 121 257.5 c 128,-1,37
 62 378 62 378 62 549 c 0,38,39
 62 726 62 726 122.5 850.5 c 128,-1,40
 183 975 183 975 285 1040.5 c 128,-1,41
 387 1106 387 1106 512 1106 c 0,42,43
 592 1106 592 1106 652 1081.5 c 128,-1,44
 712 1057 712 1057 755.5 1014 c 128,-1,45
 799 971 799 971 826 917 c 1,46,-1
 832 917 l 1,47,-1
 832 1087 l 1,48,-1
 1174 1087 l 1,49,-1
 1174 42 l 2,50,51
 1174 -121 1174 -121 1106 -227.5 c 128,-1,52
 1038 -334 1038 -334 914 -385.5 c 128,-1,53
 790 -437 790 -437 624 -437 c 0,16,17
623 275 m 256,54,55
 689 275 689 275 737 308 c 128,-1,56
 785 341 785 341 811 404.5 c 128,-1,57
 837 468 837 468 837 553 c 0,58,59
 837 640 837 640 811 703 c 128,-1,60
 785 766 785 766 737.5 801 c 128,-1,61
 690 836 690 836 623 836 c 0,62,63
 558 836 558 836 511.5 801.5 c 128,-1,64
 465 767 465 767 440.5 703 c 128,-1,65
 416 639 416 639 416 553 c 0,66,67
 416 466 416 466 440.5 403 c 128,-1,68
 465 340 465 340 511 307.5 c 128,-1,69
 557 275 557 275 623 275 c 256,54,55
EndSplineSet
Substitution2: "'smcp' Lowercase to Small Capitals in Latin lookup 69 subtable" uni0260.sc
Substitution2: "'c2sc' Capitals to Small Capitals in Latin lookup 68 subtable" uni0260.sc
Substitution2: "'aalt' Access All Alternates in Latin lookup 0 subtable" uni0260.sc
EndChar

StartChar: g.sc
Encoding: 610 610 669
Width: 1129
GlyphClass: 2
Flags: W
AnchorPoint: "Anchor-1" 572 1087 basechar 0
AnchorPoint: "Anchor-0" 569 0 basechar 0
LayerCount: 2
Fore
SplineSet
582 -16 m 0,0,1
 419 -16 419 -16 296 52 c 128,-1,2
 173 120 173 120 104.5 245 c 128,-1,3
 36 370 36 370 36 542 c 0,4,5
 36 723 36 723 110 848.5 c 128,-1,6
 184 974 184 974 307.5 1038.5 c 128,-1,7
 431 1103 431 1103 580 1103 c 0,8,9
 711 1103 711 1103 819 1055.5 c 128,-1,10
 927 1008 927 1008 996.5 922.5 c 128,-1,11
 1066 837 1066 837 1076 719 c 1,12,-1
 736 719 l 1,13,14
 728 753 728 753 708.5 773 c 128,-1,15
 689 793 689 793 659 803 c 128,-1,16
 629 813 629 813 589 813 c 0,17,18
 521 813 521 813 474 782 c 128,-1,19
 427 751 427 751 403.5 691 c 128,-1,20
 380 631 380 631 380 545 c 256,21,22
 380 459 380 459 403 399 c 128,-1,23
 426 339 426 339 472.5 307 c 128,-1,24
 519 275 519 275 589 275 c 0,25,26
 677 275 677 275 720 307.5 c 128,-1,27
 763 340 763 340 763 392 c 1,28,-1
 823 386 l 1,29,-1
 591 386 l 1,30,-1
 591 624 l 1,31,-1
 1088 624 l 1,32,-1
 1088 455 l 2,33,34
 1088 308 1088 308 1023 202.5 c 128,-1,35
 958 97 958 97 844 40.5 c 128,-1,36
 730 -16 730 -16 582 -16 c 0,0,1
EndSplineSet
EndChar

StartChar: uni0260.sc
Encoding: 60947 60947 670
Width: 1256
GlyphClass: 2
Flags: W
AnchorPoint: "Anchor-1" 572 1087 basechar 0
AnchorPoint: "Anchor-0" 569 0 basechar 0
LayerCount: 2
Fore
SplineSet
860 719 m 1,0,-1
 832 908 l 2,1,2
 815 1019 815 1019 832 1098.5 c 128,-1,3
 849 1178 849 1178 911 1221 c 128,-1,4
 973 1264 973 1264 1086 1264 c 0,5,6
 1129 1264 1129 1264 1167 1261.5 c 128,-1,7
 1205 1259 1205 1259 1239 1254 c 1,8,-1
 1239 996 l 1,9,10
 1218 997 1218 997 1196 998 c 128,-1,11
 1174 999 1174 999 1154 999 c 0,12,13
 1097 999 1097 999 1077 966.5 c 128,-1,14
 1057 934 1057 934 1069 854 c 1,15,-1
 1076 719 l 1,16,-1
 860 719 l 1,0,-1
582 -16 m 0,17,18
 419 -16 419 -16 296 52 c 128,-1,19
 173 120 173 120 104.5 245 c 128,-1,20
 36 370 36 370 36 542 c 0,21,22
 36 723 36 723 110 848.5 c 128,-1,23
 184 974 184 974 307.5 1038.5 c 128,-1,24
 431 1103 431 1103 580 1103 c 0,25,26
 711 1103 711 1103 819 1055.5 c 128,-1,27
 927 1008 927 1008 996.5 922.5 c 128,-1,28
 1066 837 1066 837 1076 719 c 1,29,-1
 736 719 l 1,30,31
 728 753 728 753 708.5 773 c 128,-1,32
 689 793 689 793 659 803 c 128,-1,33
 629 813 629 813 589 813 c 0,34,35
 521 813 521 813 474 782 c 128,-1,36
 427 751 427 751 403.5 691 c 128,-1,37
 380 631 380 631 380 545 c 256,38,39
 380 459 380 459 403 399 c 128,-1,40
 426 339 426 339 472.5 307 c 128,-1,41
 519 275 519 275 589 275 c 0,42,43
 677 275 677 275 720 307.5 c 128,-1,44
 763 340 763 340 763 392 c 1,45,-1
 823 386 l 1,46,-1
 591 386 l 1,47,-1
 591 624 l 1,48,-1
 1088 624 l 1,49,-1
 1088 455 l 2,50,51
 1088 308 1088 308 1023 202.5 c 128,-1,52
 958 97 958 97 844 40.5 c 128,-1,53
 730 -16 730 -16 582 -16 c 0,17,18
EndSplineSet
EndChar

StartChar: h
Encoding: 104 104 671
Width: 1267
GlyphClass: 2
Flags: W
AnchorPoint: "Anchor-3" 278 0 basechar 0
AnchorPoint: "Anchor-1" 276 1490 basechar 0
AnchorPoint: "Anchor-0" 633 0 basechar 0
LayerCount: 2
Fore
SplineSet
452 606 m 2,0,-1
 452 0 l 1,1,-1
 106 0 l 1,2,-1
 106 1490 l 1,3,-1
 448 1490 l 1,4,-1
 448 805 l 1,5,-1
 411 805 l 1,6,7
 455 942 455 942 545.5 1024 c 128,-1,8
 636 1106 636 1106 785 1106 c 0,9,10
 902 1106 902 1106 986.5 1055 c 128,-1,11
 1071 1004 1071 1004 1116.5 910.5 c 128,-1,12
 1162 817 1162 817 1162 688 c 2,13,-1
 1162 0 l 1,14,-1
 814 0 l 1,15,-1
 814 619 l 2,16,17
 814 713 814 713 767.5 764 c 128,-1,18
 721 815 721 815 637 815 c 0,19,20
 582 815 582 815 540.5 791.5 c 128,-1,21
 499 768 499 768 475.5 721.5 c 128,-1,22
 452 675 452 675 452 606 c 2,0,-1
EndSplineSet
Substitution2: "'smcp' Lowercase to Small Capitals in Latin lookup 69 subtable" h.sc
Substitution2: "'sups' Superscript in Latin lookup 39 subtable" h.sups
Substitution2: "'subs' Subscript in Latin lookup 38 subtable" h.subs
Substitution2: "'sinf' Scientific Inferiors in Latin lookup 18 subtable" h.subs
AlternateSubs2: "'aalt' Access All Alternates in Latin lookup 1 subtable" h.sups h.subs h.sc
EndChar

StartChar: uni0452
Encoding: 1106 1106 674
Width: 1267
GlyphClass: 2
Flags: W
AnchorPoint: "Anchor-3" 278 0 basechar 0
AnchorPoint: "Anchor-1" 276 1490 basechar 0
AnchorPoint: "Anchor-0" 633 0 basechar 0
LayerCount: 2
Fore
SplineSet
782 -427 m 0,0,1
 727 -427 727 -427 678.5 -424.5 c 128,-1,2
 630 -422 630 -422 596 -417 c 1,3,-1
 596 -159 l 1,4,5
 619 -161 619 -161 649 -161.5 c 128,-1,6
 679 -162 679 -162 711 -162 c 0,7,8
 766 -162 766 -162 790 -141.5 c 128,-1,9
 814 -121 814 -121 814 -74 c 2,10,-1
 814 0 l 1,11,-1
 1162 0 l 1,12,-1
 1162 -83 l 2,13,14
 1162 -254 1162 -254 1068.5 -340.5 c 128,-1,15
 975 -427 975 -427 782 -427 c 0,0,1
452 606 m 2,16,-1
 452 0 l 1,17,-1
 106 0 l 1,18,-1
 106 1490 l 1,19,-1
 448 1490 l 1,20,-1
 448 805 l 1,21,-1
 411 805 l 1,22,23
 455 942 455 942 545.5 1024 c 128,-1,24
 636 1106 636 1106 785 1106 c 0,25,26
 902 1106 902 1106 986.5 1055 c 128,-1,27
 1071 1004 1071 1004 1116.5 910.5 c 128,-1,28
 1162 817 1162 817 1162 688 c 2,29,-1
 1162 0 l 1,30,-1
 814 0 l 1,31,-1
 814 619 l 2,32,33
 814 713 814 713 767.5 764 c 128,-1,34
 721 815 721 815 637 815 c 0,35,36
 582 815 582 815 540.5 791.5 c 128,-1,37
 499 768 499 768 475.5 721.5 c 128,-1,38
 452 675 452 675 452 606 c 2,16,-1
-29 1184 m 1,39,-1
 -29 1382 l 1,40,-1
 750 1382 l 1,41,-1
 750 1184 l 1,42,-1
 -29 1184 l 1,39,-1
EndSplineSet
EndChar

StartChar: uni0266
Encoding: 614 614 675
Width: 1266
GlyphClass: 2
Flags: W
AnchorPoint: "Anchor-1" 633 1087 basechar 0
AnchorPoint: "Anchor-0" 633 0 basechar 0
LayerCount: 2
Fore
SplineSet
106 844 m 1,0,-1
 106 1153 l 2,1,2
 106 1325 106 1325 202.5 1411 c 128,-1,3
 299 1497 299 1497 492 1497 c 0,4,5
 547 1497 547 1497 593.5 1495 c 128,-1,6
 640 1493 640 1493 674 1488 c 1,7,-1
 674 1228 l 1,8,9
 652 1230 652 1230 622 1231 c 128,-1,10
 592 1232 592 1232 560 1232 c 0,11,12
 503 1232 503 1232 477.5 1211.5 c 128,-1,13
 452 1191 452 1191 452 1145 c 2,14,-1
 452 844 l 1,15,-1
 106 844 l 1,0,-1
452 606 m 2,16,-1
 452 0 l 1,17,-1
 106 0 l 1,18,-1
 106 1087 l 1,19,-1
 440 1087 l 1,20,-1
 443 805 l 1,21,-1
 411 805 l 1,22,23
 455 942 455 942 545.5 1024 c 128,-1,24
 636 1106 636 1106 785 1106 c 0,25,26
 902 1106 902 1106 986 1055 c 128,-1,27
 1070 1004 1070 1004 1115.5 910.5 c 128,-1,28
 1161 817 1161 817 1161 688 c 2,29,-1
 1161 0 l 1,30,-1
 814 0 l 1,31,-1
 814 619 l 2,32,33
 814 713 814 713 767.5 764 c 128,-1,34
 721 815 721 815 637 815 c 0,35,36
 582 815 582 815 540.5 791.5 c 128,-1,37
 499 768 499 768 475.5 721.5 c 128,-1,38
 452 675 452 675 452 606 c 2,16,-1
EndSplineSet
EndChar

StartChar: uni0267
Encoding: 615 615 676
Width: 1266
GlyphClass: 2
Flags: W
AnchorPoint: "Anchor-1" 633 1087 basechar 0
AnchorPoint: "Anchor-0" 633 0 basechar 0
LayerCount: 2
Fore
SplineSet
782 -427 m 0,0,1
 727 -427 727 -427 678.5 -424.5 c 128,-1,2
 630 -422 630 -422 596 -417 c 1,3,-1
 596 -159 l 1,4,5
 619 -161 619 -161 649 -161.5 c 128,-1,6
 679 -162 679 -162 711 -162 c 0,7,8
 766 -162 766 -162 790 -141.5 c 128,-1,9
 814 -121 814 -121 814 -74 c 2,10,-1
 814 0 l 1,11,-1
 1162 0 l 1,12,-1
 1162 -83 l 2,13,14
 1162 -254 1162 -254 1068.5 -340.5 c 128,-1,15
 975 -427 975 -427 782 -427 c 0,0,1
452 606 m 2,16,-1
 452 0 l 1,17,-1
 106 0 l 1,18,-1
 106 1087 l 1,19,-1
 440 1087 l 1,20,-1
 443 805 l 1,21,-1
 411 805 l 1,22,23
 455 942 455 942 545.5 1024 c 128,-1,24
 636 1106 636 1106 785 1106 c 0,25,26
 902 1106 902 1106 986 1055 c 128,-1,27
 1070 1004 1070 1004 1115.5 910.5 c 128,-1,28
 1161 817 1161 817 1161 688 c 2,29,-1
 1161 0 l 1,30,-1
 814 0 l 1,31,-1
 814 619 l 2,32,33
 814 713 814 713 767.5 764 c 128,-1,34
 721 815 721 815 637 815 c 0,35,36
 582 815 582 815 540.5 791.5 c 128,-1,37
 499 768 499 768 475.5 721.5 c 128,-1,38
 452 675 452 675 452 606 c 2,16,-1
106 844 m 1,39,-1
 106 1153 l 2,40,41
 106 1325 106 1325 202.5 1411 c 128,-1,42
 299 1497 299 1497 492 1497 c 0,43,44
 547 1497 547 1497 593.5 1495 c 128,-1,45
 640 1493 640 1493 674 1488 c 1,46,-1
 674 1228 l 1,47,48
 652 1230 652 1230 622 1231 c 128,-1,49
 592 1232 592 1232 560 1232 c 0,50,51
 503 1232 503 1232 477.5 1211.5 c 128,-1,52
 452 1191 452 1191 452 1145 c 2,53,-1
 452 844 l 1,54,-1
 106 844 l 1,39,-1
EndSplineSet
EndChar

StartChar: uni0195
Encoding: 405 405 677
Width: 2013
Flags: W
LayerCount: 2
Fore
SplineSet
1301 -22 m 0,0,1
 1149 -22 1149 -22 1043 34 c 128,-1,2
 937 90 937 90 883 192 c 128,-1,3
 829 294 829 294 829 434 c 2,4,-1
 829 622 l 2,5,6
 829 717 829 717 780.5 769 c 128,-1,7
 732 821 732 821 645 821 c 0,8,9
 588 821 588 821 545 797 c 128,-1,10
 502 773 502 773 477 727.5 c 128,-1,11
 452 682 452 682 452 615 c 2,12,-1
 452 0 l 1,13,-1
 106 0 l 1,14,-1
 106 1490 l 1,15,-1
 446 1490 l 1,16,-1
 446 888 l 1,17,-1
 455 888 l 1,18,19
 492 989 492 989 577 1047.5 c 128,-1,20
 662 1106 662 1106 786 1106 c 0,21,22
 902 1106 902 1106 990 1054 c 128,-1,23
 1078 1002 1078 1002 1127 908 c 128,-1,24
 1176 814 1176 814 1176 688 c 2,25,-1
 1176 434 l 2,26,27
 1176 373 1176 373 1195 336.5 c 128,-1,28
 1214 300 1214 300 1245 282.5 c 128,-1,29
 1276 265 1276 265 1313 265 c 0,30,31
 1399 265 1399 265 1453 349 c 128,-1,32
 1507 433 1507 433 1534 597 c 128,-1,33
 1561 761 1561 761 1561 1001 c 2,34,-1
 1561 1087 l 1,35,-1
 1908 1087 l 1,36,-1
 1908 1001 l 2,37,38
 1908 659 1908 659 1846 431.5 c 128,-1,39
 1784 204 1784 204 1650.5 91 c 128,-1,40
 1517 -22 1517 -22 1301 -22 c 0,0,1
EndSplineSet
EndChar

StartChar: hturn
Encoding: 613 613 678
Width: 1267
GlyphClass: 2
Flags: W
AnchorPoint: "Anchor-3" 989 1087 basechar 0
AnchorPoint: "Anchor-1" 632 1087 basechar 0
AnchorPoint: "Anchor-0" 634 1087 basechar 0
LayerCount: 2
Fore
SplineSet
815 481 m 2,0,-1
 815 1087 l 1,1,-1
 1162 1087 l 1,2,-1
 1162 -403 l 1,3,-1
 819 -403 l 1,4,-1
 819 283 l 1,5,-1
 857 283 l 1,6,7
 812 147 812 147 721.5 64 c 128,-1,8
 631 -19 631 -19 482 -19 c 0,9,10
 366 -19 366 -19 281 32.5 c 128,-1,11
 196 84 196 84 151 178 c 128,-1,12
 106 272 106 272 106 399 c 2,13,-1
 106 1087 l 1,14,-1
 453 1087 l 1,15,-1
 453 470 l 2,16,17
 453 376 453 376 499.5 324 c 128,-1,18
 546 272 546 272 630 272 c 0,19,20
 686 272 686 272 727 296 c 128,-1,21
 768 320 768 320 791.5 367 c 128,-1,22
 815 414 815 414 815 481 c 2,0,-1
EndSplineSet
EndChar

StartChar: hturnlthook
Encoding: 686 686 679
Width: 1418
Flags: W
LayerCount: 2
Fore
SplineSet
969 -418 m 1,0,-1
 969 283 l 1,1,-1
 1008 283 l 1,2,3
 962 146 962 146 872 63.5 c 128,-1,4
 782 -19 782 -19 633 -19 c 0,5,6
 516 -19 516 -19 431.5 32.5 c 128,-1,7
 347 84 347 84 301.5 178 c 128,-1,8
 256 272 256 272 256 399 c 2,9,-1
 256 734 l 2,10,11
 256 787 256 787 219.5 807.5 c 128,-1,12
 183 828 183 828 127 828 c 0,13,14
 113 828 113 828 93.5 827.5 c 128,-1,15
 74 827 74 827 54 826.5 c 128,-1,16
 34 826 34 826 20 825 c 1,17,-1
 20 1088 l 1,18,19
 57 1091 57 1091 103 1092.5 c 128,-1,20
 149 1094 149 1094 202 1094 c 0,21,22
 291 1094 291 1094 365 1076 c 128,-1,23
 439 1058 439 1058 492.5 1018.5 c 128,-1,24
 546 979 546 979 574.5 913.5 c 128,-1,25
 603 848 603 848 603 754 c 2,26,-1
 603 470 l 2,27,28
 603 376 603 376 650 324 c 128,-1,29
 697 272 697 272 781 272 c 0,30,31
 836 272 836 272 877.5 296 c 128,-1,32
 919 320 919 320 942 367 c 128,-1,33
 965 414 965 414 965 481 c 2,34,-1
 965 1087 l 1,35,-1
 1312 1087 l 1,36,-1
 1312 -418 l 1,37,-1
 969 -418 l 1,0,-1
EndSplineSet
EndChar

StartChar: hturnhook2
Encoding: 687 687 680
Width: 1421
Flags: W
LayerCount: 2
Fore
SplineSet
1318 -427 m 0,0,1
 1146 -427 1146 -427 1057.5 -345.5 c 128,-1,2
 969 -264 969 -264 969 -107 c 2,3,-1
 969 283 l 1,4,-1
 1008 283 l 1,5,6
 962 146 962 146 872 63.5 c 128,-1,7
 782 -19 782 -19 633 -19 c 0,8,9
 516 -19 516 -19 431.5 32.5 c 128,-1,10
 347 84 347 84 301.5 178 c 128,-1,11
 256 272 256 272 256 399 c 2,12,-1
 256 734 l 2,13,14
 256 787 256 787 219.5 807.5 c 128,-1,15
 183 828 183 828 127 828 c 0,16,17
 113 828 113 828 93.5 827.5 c 128,-1,18
 74 827 74 827 54 826.5 c 128,-1,19
 34 826 34 826 20 825 c 1,20,-1
 20 1088 l 1,21,22
 57 1091 57 1091 103 1092.5 c 128,-1,23
 149 1094 149 1094 202 1094 c 0,24,25
 291 1094 291 1094 365 1076 c 128,-1,26
 439 1058 439 1058 492.5 1018.5 c 128,-1,27
 546 979 546 979 574.5 913.5 c 128,-1,28
 603 848 603 848 603 754 c 2,29,-1
 603 470 l 2,30,31
 603 376 603 376 650 324 c 128,-1,32
 697 272 697 272 781 272 c 0,33,34
 836 272 836 272 877.5 296 c 128,-1,35
 919 320 919 320 942 367 c 128,-1,36
 965 414 965 414 965 481 c 2,37,-1
 965 1087 l 1,38,-1
 1312 1087 l 1,39,-1
 1312 -86 l 2,40,41
 1312 -128 1312 -128 1335 -147 c 128,-1,42
 1358 -166 1358 -166 1410 -166 c 0,43,44
 1442 -166 1442 -166 1476.5 -165 c 128,-1,45
 1511 -164 1511 -164 1534 -163 c 1,46,-1
 1534 -417 l 1,47,48
 1511 -421 1511 -421 1474 -423 c 128,-1,49
 1437 -425 1437 -425 1395.5 -426 c 128,-1,50
 1354 -427 1354 -427 1318 -427 c 0,0,1
EndSplineSet
EndChar

StartChar: dotlessi
Encoding: 305 305 691
Width: 558
GlyphClass: 2
Flags: W
AnchorPoint: "Anchor-4" 452 0 basechar 0
AnchorPoint: "Anchor-1" 279 1087 basechar 0
AnchorPoint: "Anchor-0" 280 0 basechar 0
LayerCount: 2
Fore
SplineSet
106 0 m 1,0,-1
 106 1087 l 1,1,-1
 452 1087 l 1,2,-1
 452 0 l 1,3,-1
 106 0 l 1,0,-1
EndSplineSet
EndChar

StartChar: uni0237
Encoding: 567 567 713
Width: 559
GlyphClass: 2
Flags: W
AnchorPoint: "Anchor-1" 280 1087 basechar 0
AnchorPoint: "Anchor-0" 222 -412 basechar 0
LayerCount: 2
Fore
SplineSet
107 1087 m 1,0,-1
 453 1087 l 1,1,-1
 453 -56 l 2,2,3
 454 -182 454 -182 404 -261.5 c 128,-1,4
 354 -341 354 -341 260.5 -379.5 c 128,-1,5
 167 -418 167 -418 34 -418 c 2,6,-1
 -69 -418 l 1,7,-1
 -69 -152 l 1,8,-1
 -12 -152 l 2,9,10
 52 -152 52 -152 79.5 -124 c 128,-1,11
 107 -96 107 -96 107 -36 c 2,12,-1
 107 1087 l 1,0,-1
EndSplineSet
EndChar

StartChar: i.sc
Encoding: 60950 60950 720
Width: 748
GlyphClass: 2
Flags: W
AnchorPoint: "Anchor-4" 714 0 basechar 0
AnchorPoint: "Anchor-1" 374 1087 basechar 0
AnchorPoint: "Anchor-0" 374 0 basechar 0
LayerCount: 2
Fore
SplineSet
34 0 m 1,0,-1
 34 274 l 1,1,-1
 201 274 l 1,2,-1
 201 814 l 1,3,-1
 34 814 l 1,4,-1
 34 1087 l 1,5,-1
 714 1087 l 1,6,-1
 714 814 l 1,7,-1
 548 814 l 1,8,-1
 548 274 l 1,9,-1
 714 274 l 1,10,-1
 714 0 l 1,11,-1
 34 0 l 1,0,-1
EndSplineSet
EndChar

StartChar: jcrosstail.ccmp
Encoding: 57423 57423 722
Width: 1015
GlyphClass: 2
Flags: W
AnchorPoint: "Anchor-4" 848 0 basechar 0
AnchorPoint: "Anchor-1" 674 1087 basechar 0
AnchorPoint: "Anchor-0" 672 -460 basechar 0
LayerCount: 2
Fore
SplineSet
424 -436 m 0,0,1
 293 -436 293 -436 207.5 -400 c 128,-1,2
 122 -364 122 -364 80.5 -300 c 128,-1,3
 39 -236 39 -236 38 -152 c 0,4,5
 38 -68 38 -68 78.5 -5 c 128,-1,6
 119 58 119 58 199 94 c 128,-1,7
 279 130 279 130 396 130 c 2,8,-1
 1131 130 l 1,9,-1
 1131 -95 l 1,10,-1
 431 -95 l 2,11,12
 392 -95 392 -95 360 -108.5 c 128,-1,13
 328 -122 328 -122 328 -164 c 0,14,15
 328 -203 328 -203 355.5 -217.5 c 128,-1,16
 383 -232 383 -232 419 -232 c 0,17,18
 473 -232 473 -232 487.5 -200.5 c 128,-1,19
 502 -169 502 -169 502 -124 c 2,20,-1
 502 252 l 1,21,-1
 847 252 l 1,22,-1
 847 -37 l 2,23,24
 847 -112 847 -112 828.5 -183.5 c 128,-1,25
 810 -255 810 -255 763 -312 c 128,-1,26
 716 -369 716 -369 633.5 -402.5 c 128,-1,27
 551 -436 551 -436 424 -436 c 0,0,1
501 0 m 1,28,-1
 501 1087 l 1,29,-1
 848 1087 l 1,30,-1
 848 0 l 1,31,-1
 501 0 l 1,28,-1
EndSplineSet
EndChar

StartChar: k
Encoding: 107 107 729
Width: 1189
GlyphClass: 2
Flags: W
AnchorPoint: "Anchor-1" 279 1490 basechar 0
AnchorPoint: "Anchor-0" 607 0 basechar 0
LayerCount: 2
Fore
SplineSet
418 285 m 1,0,-1
 418 697 l 1,1,-1
 462 697 l 1,2,-1
 784 1087 l 1,3,-1
 1179 1087 l 1,4,-1
 714 529 l 1,5,-1
 624 529 l 1,6,-1
 418 285 l 1,0,-1
106 0 m 1,7,-1
 106 1490 l 1,8,-1
 452 1490 l 1,9,-1
 452 0 l 1,10,-1
 106 0 l 1,7,-1
796 0 m 1,11,-1
 500 452 l 1,12,-1
 727 696 l 1,13,-1
 1197 0 l 1,14,-1
 796 0 l 1,11,-1
EndSplineSet
Substitution2: "'sups' Superscript in Latin lookup 39 subtable" k.sups
Substitution2: "'subs' Subscript in Latin lookup 38 subtable" k.subs
Substitution2: "'sinf' Scientific Inferiors in Latin lookup 18 subtable" k.subs
AlternateSubs2: "'aalt' Access All Alternates in Latin lookup 1 subtable" k.sups k.subs
EndChar

StartChar: uni0199
Encoding: 409 409 730
Width: 1189
GlyphClass: 2
Flags: W
AnchorPoint: "Anchor-1" 279 1087 basechar 0
AnchorPoint: "Anchor-0" 607 0 basechar 0
LayerCount: 2
Fore
SplineSet
106 844 m 1,0,-1
 106 1153 l 2,1,2
 106 1325 106 1325 202.5 1411 c 128,-1,3
 299 1497 299 1497 492 1497 c 0,4,5
 547 1497 547 1497 593.5 1495 c 128,-1,6
 640 1493 640 1493 674 1488 c 1,7,-1
 674 1228 l 1,8,9
 652 1230 652 1230 622 1231 c 128,-1,10
 592 1232 592 1232 560 1232 c 0,11,12
 503 1232 503 1232 477.5 1211.5 c 128,-1,13
 452 1191 452 1191 452 1145 c 2,14,-1
 452 844 l 1,15,-1
 106 844 l 1,0,-1
418 285 m 1,16,-1
 418 697 l 1,17,-1
 462 697 l 1,18,-1
 784 1087 l 1,19,-1
 1179 1087 l 1,20,-1
 714 529 l 1,21,-1
 624 529 l 1,22,-1
 418 285 l 1,16,-1
106 0 m 1,23,-1
 106 1087 l 1,24,-1
 452 1087 l 1,25,-1
 452 0 l 1,26,-1
 106 0 l 1,23,-1
796 0 m 1,27,-1
 500 452 l 1,28,-1
 727 696 l 1,29,-1
 1197 0 l 1,30,-1
 796 0 l 1,27,-1
EndSplineSet
EndChar

StartChar: kturn
Encoding: 670 670 736
Width: 1189
GlyphClass: 2
Flags: W
AnchorPoint: "Anchor-1" 603 1087 basechar 0
AnchorPoint: "Anchor-0" 925 -372 basechar 0
LayerCount: 2
Fore
SplineSet
771 802 m 1,0,-1
 771 390 l 1,1,-1
 727 390 l 1,2,-1
 406 0 l 1,3,-1
 10 0 l 1,4,-1
 475 559 l 1,5,-1
 566 559 l 1,6,-1
 771 802 l 1,0,-1
1084 1087 m 1,7,-1
 1084 -403 l 1,8,-1
 737 -403 l 1,9,-1
 737 1087 l 1,10,-1
 1084 1087 l 1,7,-1
393 1087 m 1,11,-1
 689 636 l 1,12,-1
 462 391 l 1,13,-1
 -8 1087 l 1,14,-1
 393 1087 l 1,11,-1
EndSplineSet
EndChar

StartChar: k.base
Encoding: 60951 60951 737
Width: 1189
GlyphClass: 2
Flags: W
AnchorPoint: "Anchor-1" 279 1087 basechar 0
AnchorPoint: "Anchor-0" 607 0 basechar 0
LayerCount: 2
Fore
SplineSet
418 285 m 1,0,-1
 418 697 l 1,1,-1
 462 697 l 1,2,-1
 784 1087 l 1,3,-1
 1179 1087 l 1,4,-1
 714 529 l 1,5,-1
 624 529 l 1,6,-1
 418 285 l 1,0,-1
106 0 m 1,7,-1
 106 1087 l 1,8,-1
 452 1087 l 1,9,-1
 452 0 l 1,10,-1
 106 0 l 1,7,-1
796 0 m 1,11,-1
 500 452 l 1,12,-1
 727 696 l 1,13,-1
 1197 0 l 1,14,-1
 796 0 l 1,11,-1
EndSplineSet
EndChar

StartChar: l
Encoding: 1114124 -1 738
Width: 558
GlyphClass: 2
Flags: W
AnchorPoint: "Anchor-1" 279 1490 basechar 0
AnchorPoint: "Anchor-0" 278 0 basechar 0
LayerCount: 2
Fore
SplineSet
452 1490 m 1,0,-1
 452 0 l 1,1,-1
 106 0 l 1,2,-1
 106 1490 l 1,3,-1
 452 1490 l 1,0,-1
EndSplineSet
Substitution2: "'smcp' Lowercase to Small Capitals in Latin lookup 69 subtable" l.sc
Substitution2: "'c2sc' Capitals to Small Capitals in Latin lookup 68 subtable" l.sc
Substitution2: "'cv05' Character Variants 05 in Latin lookup 59 subtable" l.ss02
Substitution2: "'ss04' Style Set 4 in Latin lookup 50 subtable" l.ss02
Substitution2: "'ss02' Style Set 2 in Latin lookup 48 subtable" l.ss02
Substitution2: "'salt' Stylistic Alternatives in Latin lookup 46 subtable" l.ss02
Substitution2: "'sups' Superscript in Latin lookup 39 subtable" l.sups
Substitution2: "'subs' Subscript in Latin lookup 38 subtable" l.subs
Substitution2: "'sinf' Scientific Inferiors in Latin lookup 18 subtable" l.subs
AlternateSubs2: "'aalt' Access All Alternates in Latin lookup 1 subtable" l.sc l.sups l.subs
EndChar

StartChar: lrthook
Encoding: 621 621 742
Width: 558
GlyphClass: 2
Flags: W
AnchorPoint: "Anchor-1" 279 1490 basechar 0
AnchorPoint: "Anchor-0" 278 0 basechar 0
LayerCount: 2
Fore
SplineSet
488 -427 m 0,0,1
 295 -427 295 -427 200.5 -340.5 c 128,-1,2
 106 -254 106 -254 106 -83 c 2,3,-1
 106 0 l 1,4,-1
 452 0 l 1,5,-1
 452 -74 l 2,6,7
 452 -121 452 -121 476.5 -141.5 c 128,-1,8
 501 -162 501 -162 556 -162 c 0,9,10
 588 -162 588 -162 618.5 -161.5 c 128,-1,11
 649 -161 649 -161 671 -159 c 1,12,-1
 671 -417 l 1,13,14
 637 -422 637 -422 590.5 -424.5 c 128,-1,15
 544 -427 544 -427 488 -427 c 0,0,1
452 1490 m 1,16,-1
 452 0 l 1,17,-1
 106 0 l 1,18,-1
 106 1490 l 1,19,-1
 452 1490 l 1,16,-1
EndSplineSet
EndChar

StartChar: uni026C
Encoding: 1114128 -1 743
Width: 1035
Flags: W
LayerCount: 2
Fore
SplineSet
1017 514 m 1,0,-1
 337 514 l 2,1,2
 227 514 227 514 150 550 c 128,-1,3
 73 586 73 586 32.5 650 c 128,-1,4
 -8 714 -8 714 -8 798 c 0,5,6
 -8 887 -8 887 35 957 c 128,-1,7
 78 1027 78 1027 162 1067.5 c 128,-1,8
 246 1108 246 1108 367 1108 c 0,9,10
 464 1108 464 1108 533 1074.5 c 128,-1,11
 602 1041 602 1041 645.5 982 c 128,-1,12
 689 923 689 923 709.5 844 c 128,-1,13
 730 765 730 765 730 675 c 2,14,-1
 730 396 l 1,15,-1
 452 396 l 1,16,-1
 452 764 l 2,17,18
 452 814 452 814 431 844 c 128,-1,19
 410 874 410 874 369 874 c 0,20,21
 344 874 344 874 324.5 864.5 c 128,-1,22
 305 855 305 855 293.5 840 c 128,-1,23
 282 825 282 825 282 806 c 0,24,25
 282 780 282 780 305.5 760 c 128,-1,26
 329 740 329 740 373 740 c 2,27,-1
 1017 740 l 1,28,-1
 1017 514 l 1,0,-1
800 1490 m 1,29,-1
 800 0 l 1,30,-1
 452 0 l 1,31,-1
 452 1490 l 1,32,-1
 800 1490 l 1,29,-1
EndSplineSet
Substitution2: "'cv05' Character Variants 05 in Latin lookup 59 subtable" uni026C.ss02
Substitution2: "'ss04' Style Set 4 in Latin lookup 50 subtable" uni026C.ss02
Substitution2: "'ss02' Style Set 2 in Latin lookup 48 subtable" uni026C.ss02
Substitution2: "'salt' Stylistic Alternatives in Latin lookup 46 subtable" uni026C.ss02
EndChar

StartChar: uni0234
Encoding: 564 564 744
Width: 878
GlyphClass: 2
Flags: W
AnchorPoint: "Anchor-1" 279 1490 basechar 0
AnchorPoint: "Anchor-0" 278 0 basechar 0
LayerCount: 2
Fore
SplineSet
541 -418 m 0,0,1
 390 -418 390 -418 293.5 -373 c 128,-1,2
 197 -328 197 -328 151.5 -242 c 128,-1,3
 106 -156 106 -156 106 -34 c 2,4,-1
 106 204 l 1,5,-1
 452 204 l 1,6,-1
 452 -122 l 2,7,8
 452 -168 452 -168 480.5 -192.5 c 128,-1,9
 509 -217 509 -217 551 -217 c 0,10,11
 589 -217 589 -217 613 -198 c 128,-1,12
 637 -179 637 -179 637 -146 c 0,13,14
 637 -114 637 -114 613.5 -92.5 c 128,-1,15
 590 -71 590 -71 541 -69 c 0,16,17
 509 -68 509 -68 476.5 -76.5 c 128,-1,18
 444 -85 444 -85 398.5 -111 c 128,-1,19
 353 -137 353 -137 285 -186 c 2,20,-1
 -22 -419 l 1,21,-1
 -174 -221 l 1,22,-1
 135 10 l 2,23,24
 212 66 212 66 311.5 108 c 128,-1,25
 411 150 411 150 525 150 c 0,26,27
 713 150 713 150 821.5 62 c 128,-1,28
 930 -26 930 -26 930 -160 c 0,29,30
 930 -284 930 -284 830 -351 c 128,-1,31
 730 -418 730 -418 541 -418 c 0,0,1
452 1490 m 1,32,-1
 452 0 l 1,33,-1
 106 0 l 1,34,-1
 106 1490 l 1,35,-1
 452 1490 l 1,32,-1
EndSplineSet
EndChar

StartChar: l.ss02
Encoding: 57424 57424 753
AltUni2: 00006c.ffffffff.0
Width: 628
GlyphClass: 2
Flags: W
AnchorPoint: "Anchor-1" 279 1490 basechar 0
AnchorPoint: "Anchor-0" 337 0 basechar 0
LayerCount: 2
Fore
SplineSet
474 -3 m 0,0,1
 282 -3 282 -3 194 71 c 128,-1,2
 106 145 106 145 106 306 c 2,3,-1
 106 1490 l 1,4,-1
 452 1490 l 1,5,-1
 452 343 l 2,6,7
 452 300 452 300 471.5 280 c 128,-1,8
 491 260 491 260 534 260 c 0,9,10
 549 260 549 260 561 260.5 c 128,-1,11
 573 261 573 261 582 263 c 1,12,-1
 608 11 l 1,13,14
 584 6 584 6 550 1.5 c 128,-1,15
 516 -3 516 -3 474 -3 c 0,0,1
EndSplineSet
EndChar

StartChar: uni026C.ss02
Encoding: 57428 57428 757
AltUni2: 00026c.ffffffff.0
Width: 1044
GlyphClass: 2
Flags: W
AnchorPoint: "Anchor-1" 657 1490 basechar 0
AnchorPoint: "Anchor-0" 715 0 basechar 0
LayerCount: 2
Fore
SplineSet
384 545 m 2,0,1
 274 545 274 545 192 585 c 128,-1,2
 110 625 110 625 65 698 c 128,-1,3
 20 771 20 771 20 867 c 0,4,5
 20 959 20 959 59.5 1030 c 128,-1,6
 99 1101 99 1101 166.5 1141 c 128,-1,7
 234 1181 234 1181 318 1181 c 0,8,9
 424 1181 424 1181 485 1121 c 128,-1,10
 546 1061 546 1061 571.5 961.5 c 128,-1,11
 597 862 597 862 597 744 c 2,12,-1
 597 677 l 1,13,-1
 485 677 l 1,14,-1
 485 833 l 2,15,16
 485 877 485 877 458 909.5 c 128,-1,17
 431 942 431 942 384 942 c 0,18,19
 350 942 350 942 329 922 c 128,-1,20
 308 902 308 902 308 869 c 0,21,22
 308 837 308 837 333 815 c 128,-1,23
 358 793 358 793 399 793 c 2,24,-1
 1002 799 l 1,25,-1
 1002 545 l 1,26,-1
 384 545 l 2,0,1
852 -3 m 0,27,28
 659 -3 659 -3 572 71 c 128,-1,29
 485 145 485 145 485 306 c 2,30,-1
 485 1490 l 1,31,-1
 831 1490 l 1,32,-1
 831 343 l 2,33,34
 831 300 831 300 850.5 280 c 128,-1,35
 870 260 870 260 911 260 c 0,36,37
 927 260 927 260 939 260.5 c 128,-1,38
 951 261 951 261 961 263 c 1,39,-1
 987 11 l 1,40,41
 962 6 962 6 927.5 1.5 c 128,-1,42
 893 -3 893 -3 852 -3 c 0,27,28
EndSplineSet
EndChar

StartChar: l.sc
Encoding: 60952 60952 767
Width: 982
Flags: W
LayerCount: 2
Fore
SplineSet
106 0 m 1,0,-1
 106 1087 l 1,1,-1
 452 1087 l 1,2,-1
 452 275 l 1,3,-1
 928 275 l 1,4,-1
 928 0 l 1,5,-1
 106 0 l 1,0,-1
EndSplineSet
EndChar

StartChar: m
Encoding: 109 109 768
Width: 1873
GlyphClass: 2
Flags: W
AnchorPoint: "Anchor-1" 937 1087 basechar 0
AnchorPoint: "Anchor-0" 937 0 basechar 0
LayerCount: 2
Fore
SplineSet
106 0 m 1,0,-1
 106 1087 l 1,1,-1
 432 1087 l 1,2,-1
 442 819 l 1,3,-1
 422 819 l 1,4,5
 448 920 448 920 499.5 983 c 128,-1,6
 551 1046 551 1046 619 1076 c 128,-1,7
 687 1106 687 1106 762 1106 c 0,8,9
 882 1106 882 1106 964 1033 c 128,-1,10
 1046 960 1046 960 1075 807 c 1,11,-1
 1041 807 l 1,12,13
 1063 910 1063 910 1118.5 976 c 128,-1,14
 1174 1042 1174 1042 1250 1074 c 128,-1,15
 1326 1106 1326 1106 1410 1106 c 0,16,17
 1514 1106 1514 1106 1595 1060.5 c 128,-1,18
 1676 1015 1676 1015 1722 931 c 128,-1,19
 1768 847 1768 847 1768 728 c 2,20,-1
 1768 0 l 1,21,-1
 1422 0 l 1,22,-1
 1422 652 l 2,23,24
 1422 735 1422 735 1377 779.5 c 128,-1,25
 1332 824 1332 824 1263 824 c 0,26,27
 1214 824 1214 824 1178 802 c 128,-1,28
 1142 780 1142 780 1123 740.5 c 128,-1,29
 1104 701 1104 701 1104 646 c 2,30,-1
 1104 0 l 1,31,-1
 771 0 l 1,32,-1
 771 656 l 2,33,34
 771 733 771 733 728 778.5 c 128,-1,35
 685 824 685 824 614 824 c 0,36,37
 568 824 568 824 531 802.5 c 128,-1,38
 494 781 494 781 473 740 c 128,-1,39
 452 699 452 699 452 640 c 2,40,-1
 452 0 l 1,41,-1
 106 0 l 1,0,-1
EndSplineSet
Substitution2: "'smcp' Lowercase to Small Capitals in Latin lookup 69 subtable" m.sc
Substitution2: "'c2sc' Capitals to Small Capitals in Latin lookup 68 subtable" m.sc
Substitution2: "'sups' Superscript in Latin lookup 39 subtable" m.sups
Substitution2: "'subs' Subscript in Latin lookup 38 subtable" m.subs
Substitution2: "'sinf' Scientific Inferiors in Latin lookup 18 subtable" m.subs
AlternateSubs2: "'aalt' Access All Alternates in Latin lookup 1 subtable" m.sups m.subs m.sc
EndChar

StartChar: uni0271
Encoding: 625 625 769
Width: 1873
GlyphClass: 2
Flags: W
AnchorPoint: "Anchor-1" 937 1087 basechar 0
AnchorPoint: "Anchor-0" 937 0 basechar 0
LayerCount: 2
Fore
SplineSet
1388 -427 m 0,0,1
 1334 -427 1334 -427 1285.5 -424.5 c 128,-1,2
 1237 -422 1237 -422 1204 -417 c 1,3,-1
 1204 -159 l 1,4,5
 1225 -161 1225 -161 1255.5 -161.5 c 128,-1,6
 1286 -162 1286 -162 1318 -162 c 0,7,8
 1374 -162 1374 -162 1398 -141.5 c 128,-1,9
 1422 -121 1422 -121 1422 -74 c 2,10,-1
 1422 0 l 1,11,-1
 1768 0 l 1,12,-1
 1768 -83 l 2,13,14
 1768 -254 1768 -254 1675.5 -340.5 c 128,-1,15
 1583 -427 1583 -427 1388 -427 c 0,0,1
106 0 m 1,16,-1
 106 1087 l 1,17,-1
 432 1087 l 1,18,-1
 442 819 l 1,19,-1
 422 819 l 1,20,21
 448 920 448 920 499.5 983 c 128,-1,22
 551 1046 551 1046 619 1076 c 128,-1,23
 687 1106 687 1106 762 1106 c 0,24,25
 882 1106 882 1106 964 1033 c 128,-1,26
 1046 960 1046 960 1075 807 c 1,27,-1
 1041 807 l 1,28,29
 1063 910 1063 910 1118.5 976 c 128,-1,30
 1174 1042 1174 1042 1250 1074 c 128,-1,31
 1326 1106 1326 1106 1411 1106 c 0,32,33
 1515 1106 1515 1106 1595.5 1060.5 c 128,-1,34
 1676 1015 1676 1015 1722 931 c 128,-1,35
 1768 847 1768 847 1768 728 c 2,36,-1
 1768 0 l 1,37,-1
 1422 0 l 1,38,-1
 1422 652 l 2,39,40
 1422 736 1422 736 1377 780 c 128,-1,41
 1332 824 1332 824 1264 824 c 0,42,43
 1214 824 1214 824 1178 802.5 c 128,-1,44
 1142 781 1142 781 1123 741 c 128,-1,45
 1104 701 1104 701 1104 646 c 2,46,-1
 1104 0 l 1,47,-1
 771 0 l 1,48,-1
 771 656 l 2,49,50
 771 733 771 733 728 778.5 c 128,-1,51
 685 824 685 824 615 824 c 0,52,53
 568 824 568 824 531 802.5 c 128,-1,54
 494 781 494 781 473 740 c 128,-1,55
 452 699 452 699 452 640 c 2,56,-1
 452 0 l 1,57,-1
 106 0 l 1,16,-1
EndSplineSet
EndChar

StartChar: mturn
Encoding: 623 623 770
Width: 1873
GlyphClass: 2
Flags: W
AnchorPoint: "Anchor-1" 937 1087 basechar 0
AnchorPoint: "Anchor-0" 936 0 basechar 0
LayerCount: 2
Fore
SplineSet
1768 1087 m 1,0,-1
 1768 0 l 1,1,-1
 1442 0 l 1,2,-1
 1432 268 l 1,3,-1
 1453 268 l 1,4,5
 1427 168 1427 168 1375.5 104.5 c 128,-1,6
 1324 41 1324 41 1255.5 11 c 128,-1,7
 1187 -19 1187 -19 1111 -19 c 0,8,9
 993 -19 993 -19 911 54.5 c 128,-1,10
 829 128 829 128 799 280 c 1,11,-1
 833 280 l 1,12,13
 811 179 811 179 755.5 112.5 c 128,-1,14
 700 46 700 46 624 13.5 c 128,-1,15
 548 -19 548 -19 464 -19 c 0,16,17
 359 -19 359 -19 278 26.5 c 128,-1,18
 197 72 197 72 151.5 157 c 128,-1,19
 106 242 106 242 106 359 c 2,20,-1
 106 1087 l 1,21,-1
 453 1087 l 1,22,-1
 453 437 l 2,23,24
 453 352 453 352 497 307.5 c 128,-1,25
 541 263 541 263 611 263 c 0,26,27
 661 263 661 263 696.5 285.5 c 128,-1,28
 732 308 732 308 751.5 347.5 c 128,-1,29
 771 387 771 387 771 441 c 2,30,-1
 771 1087 l 1,31,-1
 1104 1087 l 1,32,-1
 1104 433 l 2,33,34
 1104 355 1104 355 1147 309 c 128,-1,35
 1190 263 1190 263 1258 263 c 0,36,37
 1306 263 1306 263 1342.5 285.5 c 128,-1,38
 1379 308 1379 308 1400 348.5 c 128,-1,39
 1421 389 1421 389 1421 447 c 2,40,-1
 1421 1087 l 1,41,-1
 1768 1087 l 1,0,-1
EndSplineSet
EndChar

StartChar: mturndescend
Encoding: 624 624 771
Width: 1873
GlyphClass: 2
Flags: W
AnchorPoint: "Anchor-1" 937 1087 basechar 0
AnchorPoint: "Anchor-0" 936 0 basechar 0
LayerCount: 2
Fore
SplineSet
1435 -418 m 1,0,-1
 1435 0 l 1,1,-1
 1766 0 l 1,2,-1
 1766 -418 l 1,3,-1
 1435 -418 l 1,0,-1
1768 1087 m 1,4,-1
 1768 0 l 1,5,-1
 1442 0 l 1,6,-1
 1432 268 l 1,7,-1
 1453 268 l 1,8,9
 1427 168 1427 168 1375.5 104.5 c 128,-1,10
 1324 41 1324 41 1255.5 11 c 128,-1,11
 1187 -19 1187 -19 1111 -19 c 0,12,13
 993 -19 993 -19 911 54.5 c 128,-1,14
 829 128 829 128 799 280 c 1,15,-1
 833 280 l 1,16,17
 811 179 811 179 755.5 112.5 c 128,-1,18
 700 46 700 46 624 13.5 c 128,-1,19
 548 -19 548 -19 464 -19 c 0,20,21
 359 -19 359 -19 278 26.5 c 128,-1,22
 197 72 197 72 151.5 157 c 128,-1,23
 106 242 106 242 106 359 c 2,24,-1
 106 1087 l 1,25,-1
 453 1087 l 1,26,-1
 453 437 l 2,27,28
 453 352 453 352 497 307.5 c 128,-1,29
 541 263 541 263 611 263 c 0,30,31
 661 263 661 263 696.5 285.5 c 128,-1,32
 732 308 732 308 751.5 347.5 c 128,-1,33
 771 387 771 387 771 441 c 2,34,-1
 771 1087 l 1,35,-1
 1104 1087 l 1,36,-1
 1104 433 l 2,37,38
 1104 355 1104 355 1147 309 c 128,-1,39
 1190 263 1190 263 1258 263 c 0,40,41
 1306 263 1306 263 1342.5 285.5 c 128,-1,42
 1379 308 1379 308 1400 348.5 c 128,-1,43
 1421 389 1421 389 1421 447 c 2,44,-1
 1421 1087 l 1,45,-1
 1768 1087 l 1,4,-1
EndSplineSet
EndChar

StartChar: n
Encoding: 110 110 775
Width: 1266
GlyphClass: 2
Flags: W
AnchorPoint: "Anchor-1" 633 1087 basechar 0
AnchorPoint: "Anchor-0" 633 0 basechar 0
LayerCount: 2
Fore
SplineSet
452 606 m 2,0,-1
 452 0 l 1,1,-1
 106 0 l 1,2,-1
 106 1087 l 1,3,-1
 440 1087 l 1,4,-1
 443 805 l 1,5,-1
 411 805 l 1,6,7
 455 942 455 942 545.5 1024 c 128,-1,8
 636 1106 636 1106 785 1106 c 0,9,10
 902 1106 902 1106 986 1055 c 128,-1,11
 1070 1004 1070 1004 1115.5 910.5 c 128,-1,12
 1161 817 1161 817 1161 688 c 2,13,-1
 1161 0 l 1,14,-1
 814 0 l 1,15,-1
 814 619 l 2,16,17
 814 713 814 713 767.5 764 c 128,-1,18
 721 815 721 815 637 815 c 0,19,20
 582 815 582 815 540.5 791.5 c 128,-1,21
 499 768 499 768 475.5 721.5 c 128,-1,22
 452 675 452 675 452 606 c 2,0,-1
EndSplineSet
Substitution2: "'smcp' Lowercase to Small Capitals in Latin lookup 69 subtable" n.sc
Substitution2: "'c2sc' Capitals to Small Capitals in Latin lookup 68 subtable" n.sc
Substitution2: "'sups' Superscript in Latin lookup 39 subtable" n.sups
Substitution2: "'subs' Subscript in Latin lookup 38 subtable" n.subs
Substitution2: "'numr' Numerators in Latin lookup 19 subtable" n.numr
Substitution2: "'sinf' Scientific Inferiors in Latin lookup 18 subtable" n.subs
AlternateSubs2: "'aalt' Access All Alternates in Latin lookup 1 subtable" n.sc n.numr n.sups n.subs
EndChar

StartChar: nrthook
Encoding: 627 627 777
Width: 1266
GlyphClass: 2
Flags: W
AnchorPoint: "Anchor-1" 633 1087 basechar 0
AnchorPoint: "Anchor-0" 633 0 basechar 0
LayerCount: 2
Fore
SplineSet
1198 -427 m 0,0,1
 1003 -427 1003 -427 909 -340.5 c 128,-1,2
 815 -254 815 -254 815 -83 c 2,3,-1
 815 0 l 1,4,-1
 1162 0 l 1,5,-1
 1162 -74 l 2,6,7
 1162 -121 1162 -121 1185.5 -141.5 c 128,-1,8
 1209 -162 1209 -162 1265 -162 c 0,9,10
 1297 -162 1297 -162 1327 -161.5 c 128,-1,11
 1357 -161 1357 -161 1379 -159 c 1,12,-1
 1379 -417 l 1,13,14
 1345 -422 1345 -422 1298.5 -424.5 c 128,-1,15
 1252 -427 1252 -427 1198 -427 c 0,0,1
452 606 m 2,16,-1
 452 0 l 1,17,-1
 106 0 l 1,18,-1
 106 1087 l 1,19,-1
 440 1087 l 1,20,-1
 443 805 l 1,21,-1
 411 805 l 1,22,23
 455 942 455 942 545.5 1024 c 128,-1,24
 636 1106 636 1106 785 1106 c 0,25,26
 902 1106 902 1106 986 1055 c 128,-1,27
 1070 1004 1070 1004 1115.5 910.5 c 128,-1,28
 1161 817 1161 817 1161 688 c 2,29,-1
 1161 0 l 1,30,-1
 814 0 l 1,31,-1
 814 619 l 2,32,33
 814 713 814 713 767.5 764 c 128,-1,34
 721 815 721 815 637 815 c 0,35,36
 582 815 582 815 540.5 791.5 c 128,-1,37
 499 768 499 768 475.5 721.5 c 128,-1,38
 452 675 452 675 452 606 c 2,16,-1
EndSplineSet
EndChar

StartChar: eng
Encoding: 331 331 778
Width: 1266
GlyphClass: 2
Flags: W
AnchorPoint: "Anchor-1" 633 1087 basechar 0
AnchorPoint: "Anchor-0" 633 0 basechar 0
LayerCount: 2
Fore
SplineSet
609 -417 m 1,0,-1
 609 -147 l 1,1,2
 637 -150 637 -150 661 -150.5 c 128,-1,3
 685 -151 685 -151 711 -151 c 0,4,5
 767 -151 767 -151 790.5 -130.5 c 128,-1,6
 814 -110 814 -110 814 -63 c 2,7,-1
 814 0 l 1,8,-1
 1162 0 l 1,9,-1
 1162 -83 l 2,10,11
 1162 -254 1162 -254 1066.5 -340.5 c 128,-1,12
 971 -427 971 -427 777 -427 c 0,13,14
 723 -427 723 -427 683 -424.5 c 128,-1,15
 643 -422 643 -422 609 -417 c 1,0,-1
452 606 m 2,16,-1
 452 0 l 1,17,-1
 106 0 l 1,18,-1
 106 1087 l 1,19,-1
 440 1087 l 1,20,-1
 443 805 l 1,21,-1
 411 805 l 1,22,23
 455 942 455 942 545.5 1024 c 128,-1,24
 636 1106 636 1106 785 1106 c 0,25,26
 902 1106 902 1106 986 1055 c 128,-1,27
 1070 1004 1070 1004 1115.5 910.5 c 128,-1,28
 1161 817 1161 817 1161 688 c 2,29,-1
 1161 0 l 1,30,-1
 814 0 l 1,31,-1
 814 619 l 2,32,33
 814 713 814 713 767.5 764 c 128,-1,34
 721 815 721 815 637 815 c 0,35,36
 582 815 582 815 540.5 791.5 c 128,-1,37
 499 768 499 768 475.5 721.5 c 128,-1,38
 452 675 452 675 452 606 c 2,16,-1
EndSplineSet
EndChar

StartChar: uni0235
Encoding: 565 565 779
Width: 1586
GlyphClass: 2
Flags: W
AnchorPoint: "Anchor-1" 633 1087 basechar 0
AnchorPoint: "Anchor-0" 633 0 basechar 0
LayerCount: 2
Fore
SplineSet
1251 -418 m 0,0,1
 1099 -418 1099 -418 1002.5 -373 c 128,-1,2
 906 -328 906 -328 860.5 -242 c 128,-1,3
 815 -156 815 -156 815 -34 c 2,4,-1
 815 204 l 1,5,-1
 1162 204 l 1,6,-1
 1162 -122 l 2,7,8
 1162 -168 1162 -168 1189.5 -192.5 c 128,-1,9
 1217 -217 1217 -217 1260 -217 c 0,10,11
 1296 -217 1296 -217 1321.5 -198 c 128,-1,12
 1347 -179 1347 -179 1347 -146 c 0,13,14
 1347 -114 1347 -114 1322 -92.5 c 128,-1,15
 1297 -71 1297 -71 1248 -69 c 0,16,17
 1219 -68 1219 -68 1186 -76.5 c 128,-1,18
 1153 -85 1153 -85 1108 -111 c 128,-1,19
 1063 -137 1063 -137 995 -186 c 2,20,-1
 686 -419 l 1,21,-1
 533 -221 l 1,22,-1
 845 10 l 2,23,24
 920 66 920 66 1020 108 c 128,-1,25
 1120 150 1120 150 1234 150 c 0,26,27
 1422 150 1422 150 1529.5 62 c 128,-1,28
 1637 -26 1637 -26 1637 -160 c 0,29,30
 1637 -284 1637 -284 1538 -351 c 128,-1,31
 1439 -418 1439 -418 1251 -418 c 0,0,1
452 606 m 2,32,-1
 452 0 l 1,33,-1
 106 0 l 1,34,-1
 106 1087 l 1,35,-1
 440 1087 l 1,36,-1
 443 805 l 1,37,-1
 411 805 l 1,38,39
 455 942 455 942 545.5 1024 c 128,-1,40
 636 1106 636 1106 785 1106 c 0,41,42
 902 1106 902 1106 986 1055 c 128,-1,43
 1070 1004 1070 1004 1115.5 910.5 c 128,-1,44
 1161 817 1161 817 1161 688 c 2,45,-1
 1161 0 l 1,46,-1
 814 0 l 1,47,-1
 814 619 l 2,48,49
 814 713 814 713 767.5 764 c 128,-1,50
 721 815 721 815 637 815 c 0,51,52
 582 815 582 815 540.5 791.5 c 128,-1,53
 499 768 499 768 475.5 721.5 c 128,-1,54
 452 675 452 675 452 606 c 2,32,-1
EndSplineSet
EndChar

StartChar: nlfthook
Encoding: 626 626 780
Width: 1266
GlyphClass: 2
Flags: W
AnchorPoint: "Anchor-1" 633 1087 basechar 0
AnchorPoint: "Anchor-0" 633 0 basechar 0
LayerCount: 2
Fore
SplineSet
74 -427 m 0,0,1
 19 -427 19 -427 -29.5 -424.5 c 128,-1,2
 -78 -422 -78 -422 -112 -417 c 1,3,-1
 -112 -159 l 1,4,5
 -89 -161 -89 -161 -59.5 -161.5 c 128,-1,6
 -30 -162 -30 -162 3 -162 c 0,7,8
 58 -162 58 -162 82 -141.5 c 128,-1,9
 106 -121 106 -121 106 -74 c 2,10,-1
 106 0 l 1,11,-1
 453 0 l 1,12,-1
 453 -83 l 2,13,14
 453 -254 453 -254 360 -340.5 c 128,-1,15
 267 -427 267 -427 74 -427 c 0,0,1
452 606 m 2,16,-1
 452 0 l 1,17,-1
 106 0 l 1,18,-1
 106 1087 l 1,19,-1
 440 1087 l 1,20,-1
 443 805 l 1,21,-1
 411 805 l 1,22,23
 455 942 455 942 545.5 1024 c 128,-1,24
 636 1106 636 1106 785 1106 c 0,25,26
 902 1106 902 1106 986 1055 c 128,-1,27
 1070 1004 1070 1004 1115.5 910.5 c 128,-1,28
 1161 817 1161 817 1161 688 c 2,29,-1
 1161 0 l 1,30,-1
 814 0 l 1,31,-1
 814 619 l 2,32,33
 814 713 814 713 767.5 764 c 128,-1,34
 721 815 721 815 637 815 c 0,35,36
 582 815 582 815 540.5 791.5 c 128,-1,37
 499 768 499 768 475.5 721.5 c 128,-1,38
 452 675 452 675 452 606 c 2,16,-1
EndSplineSet
EndChar

StartChar: n.sc
Encoding: 60953 60953 791
Width: 1292
GlyphClass: 2
Flags: W
AnchorPoint: "Anchor-1" 647 1087 basechar 0
AnchorPoint: "Anchor-0" 647 0 basechar 0
LayerCount: 2
Fore
SplineSet
106 0 m 1,0,-1
 106 1087 l 1,1,-1
 441 1087 l 1,2,-1
 699 700 l 2,3,4
 764 601 764 601 813.5 515 c 128,-1,5
 863 429 863 429 907 349 c 1,6,-1
 858 349 l 1,7,8
 857 408 857 408 856 462 c 128,-1,9
 855 516 855 516 854.5 573.5 c 128,-1,10
 854 631 854 631 854 700 c 2,11,-1
 854 1087 l 1,12,-1
 1187 1087 l 1,13,-1
 1187 0 l 1,14,-1
 853 0 l 1,15,-1
 595 390 l 2,16,17
 529 487 529 487 480 573 c 128,-1,18
 431 659 431 659 386 739 c 1,19,-1
 435 739 l 1,20,21
 437 652 437 652 438 572 c 128,-1,22
 439 492 439 492 439 390 c 2,23,-1
 439 0 l 1,24,-1
 106 0 l 1,0,-1
EndSplineSet
EndChar

StartChar: o
Encoding: 111 111 792
Width: 1241
GlyphClass: 2
Flags: W
AnchorPoint: "Anchor-4" 1179 541 basechar 0
AnchorPoint: "Anchor-1" 621 1087 basechar 0
AnchorPoint: "Anchor-0" 621 0 basechar 0
LayerCount: 2
Fore
SplineSet
621 -22 m 0,0,1
 452 -22 452 -22 326 48.5 c 128,-1,2
 200 119 200 119 131 245.5 c 128,-1,3
 62 372 62 372 62 541 c 0,4,5
 62 712 62 712 131 838.5 c 128,-1,6
 200 965 200 965 326 1035.5 c 128,-1,7
 452 1106 452 1106 621 1106 c 0,8,9
 792 1106 792 1106 917.5 1035.5 c 128,-1,10
 1043 965 1043 965 1111 838.5 c 128,-1,11
 1179 712 1179 712 1179 541 c 0,12,13
 1179 372 1179 372 1111 245.5 c 128,-1,14
 1043 119 1043 119 917.5 48.5 c 128,-1,15
 792 -22 792 -22 621 -22 c 0,0,1
621 249 m 0,16,17
 685 249 685 249 731 284.5 c 128,-1,18
 777 320 777 320 802 386 c 128,-1,19
 827 452 827 452 827 542 c 0,20,21
 827 634 827 634 802 699.5 c 128,-1,22
 777 765 777 765 731 801 c 128,-1,23
 685 837 685 837 621 837 c 0,24,25
 558 837 558 837 511.5 801.5 c 128,-1,26
 465 766 465 766 440 700.5 c 128,-1,27
 415 635 415 635 415 542 c 0,28,29
 415 451 415 451 440 385.5 c 128,-1,30
 465 320 465 320 511.5 284.5 c 128,-1,31
 558 249 558 249 621 249 c 0,16,17
EndSplineSet
Substitution2: "Single Substitution lookup 44 subtable" ordmasculine
Substitution2: "'sups' Superscript in Latin lookup 39 subtable" o.sups
Substitution2: "'subs' Subscript in Latin lookup 38 subtable" o.subs
Substitution2: "'sinf' Scientific Inferiors in Latin lookup 18 subtable" o.subs
AlternateSubs2: "'aalt' Access All Alternates in Latin lookup 1 subtable" ordmasculine o.sups o.subs
EndChar

StartChar: ohorn
Encoding: 417 417 796
Width: 1241
GlyphClass: 2
Flags: W
AnchorPoint: "Anchor-4" 1179 541 basechar 0
AnchorPoint: "Anchor-1" 621 1087 basechar 0
AnchorPoint: "Anchor-0" 621 0 basechar 0
LayerCount: 2
Fore
SplineSet
621 923 m 1,0,-1
 621 1106 l 1,1,2
 659 1106 659 1106 697.5 1103.5 c 128,-1,3
 736 1101 736 1101 773 1097.5 c 128,-1,4
 810 1094 810 1094 846 1091.5 c 128,-1,5
 882 1089 882 1089 914 1089 c 0,6,7
 964 1089 964 1089 964 1135 c 2,8,-1
 964 1331 l 1,9,-1
 1232 1331 l 1,10,-1
 1232 1151 l 2,11,12
 1232 1045 1232 1045 1162 984 c 128,-1,13
 1092 923 1092 923 970 923 c 0,14,15
 886 923 886 923 795 923 c 128,-1,16
 704 923 704 923 621 923 c 1,0,-1
621 -22 m 0,17,18
 452 -22 452 -22 326 48.5 c 128,-1,19
 200 119 200 119 131 245.5 c 128,-1,20
 62 372 62 372 62 541 c 0,21,22
 62 712 62 712 131 838.5 c 128,-1,23
 200 965 200 965 326 1035.5 c 128,-1,24
 452 1106 452 1106 621 1106 c 0,25,26
 792 1106 792 1106 917.5 1035.5 c 128,-1,27
 1043 965 1043 965 1111 838.5 c 128,-1,28
 1179 712 1179 712 1179 541 c 0,29,30
 1179 372 1179 372 1111 245.5 c 128,-1,31
 1043 119 1043 119 917.5 48.5 c 128,-1,32
 792 -22 792 -22 621 -22 c 0,17,18
621 249 m 0,33,34
 685 249 685 249 731 284.5 c 128,-1,35
 777 320 777 320 802 386 c 128,-1,36
 827 452 827 452 827 542 c 0,37,38
 827 634 827 634 802 699.5 c 128,-1,39
 777 765 777 765 731 801 c 128,-1,40
 685 837 685 837 621 837 c 0,41,42
 558 837 558 837 511.5 801.5 c 128,-1,43
 465 766 465 766 440 700.5 c 128,-1,44
 415 635 415 635 415 542 c 0,45,46
 415 451 415 451 440 385.5 c 128,-1,47
 465 320 465 320 511.5 284.5 c 128,-1,48
 558 249 558 249 621 249 c 0,33,34
EndSplineSet
EndChar

StartChar: uni1EE1
Encoding: 7905 7905 826
Width: 1241
GlyphClass: 2
Flags: W
AnchorPoint: "Anchor-4" 1179 541 basechar 0
AnchorPoint: "Anchor-1" 624 1496 basechar 0
AnchorPoint: "Anchor-0" 621 0 basechar 0
LayerCount: 2
Fore
SplineSet
621 -22 m 0,0,1
 452 -22 452 -22 326 48.5 c 128,-1,2
 200 119 200 119 131 245.5 c 128,-1,3
 62 372 62 372 62 541 c 0,4,5
 62 712 62 712 131 838.5 c 128,-1,6
 200 965 200 965 326 1035.5 c 128,-1,7
 452 1106 452 1106 621 1106 c 0,8,9
 792 1106 792 1106 917.5 1035.5 c 128,-1,10
 1043 965 1043 965 1111 838.5 c 128,-1,11
 1179 712 1179 712 1179 541 c 0,12,13
 1179 372 1179 372 1111 245.5 c 128,-1,14
 1043 119 1043 119 917.5 48.5 c 128,-1,15
 792 -22 792 -22 621 -22 c 0,0,1
621 249 m 0,16,17
 685 249 685 249 731 284.5 c 128,-1,18
 777 320 777 320 802 386 c 128,-1,19
 827 452 827 452 827 542 c 0,20,21
 827 634 827 634 802 699.5 c 128,-1,22
 777 765 777 765 731 801 c 128,-1,23
 685 837 685 837 621 837 c 0,24,25
 558 837 558 837 511.5 801.5 c 128,-1,26
 465 766 465 766 440 700.5 c 128,-1,27
 415 635 415 635 415 542 c 0,28,29
 415 451 415 451 440 385.5 c 128,-1,30
 465 320 465 320 511.5 284.5 c 128,-1,31
 558 249 558 249 621 249 c 0,16,17
621 923 m 1,32,-1
 621 1106 l 1,33,34
 659 1106 659 1106 697.5 1103.5 c 128,-1,35
 736 1101 736 1101 773 1097.5 c 128,-1,36
 810 1094 810 1094 846 1091.5 c 128,-1,37
 882 1089 882 1089 914 1089 c 0,38,39
 964 1089 964 1089 964 1135 c 2,40,-1
 964 1331 l 1,41,-1
 1232 1331 l 1,42,-1
 1232 1151 l 2,43,44
 1232 1045 1232 1045 1162 984 c 128,-1,45
 1092 923 1092 923 970 923 c 0,46,47
 886 923 886 923 795 923 c 128,-1,48
 704 923 704 923 621 923 c 1,32,-1
733 1267 m 0,49,50
 693 1267 693 1267 664 1280.5 c 128,-1,51
 635 1294 635 1294 611.5 1311.5 c 128,-1,52
 588 1329 588 1329 568.5 1342 c 128,-1,53
 549 1355 549 1355 530 1355 c 0,54,55
 505 1355 505 1355 491.5 1332.5 c 128,-1,56
 478 1310 478 1310 476 1273 c 1,57,-1
 340 1273 l 1,58,59
 343 1384 343 1384 390 1442 c 128,-1,60
 437 1500 437 1500 512 1500 c 0,61,62
 551 1500 551 1500 580.5 1486.5 c 128,-1,63
 610 1473 610 1473 632.5 1456 c 128,-1,64
 655 1439 655 1439 674.5 1426 c 128,-1,65
 694 1413 694 1413 714 1413 c 0,66,67
 743 1413 743 1413 755.5 1434 c 128,-1,68
 768 1455 768 1455 770 1495 c 1,69,-1
 904 1495 l 1,70,71
 902 1385 902 1385 854 1326 c 128,-1,72
 806 1267 806 1267 733 1267 c 0,49,50
EndSplineSet
Ligature2: "'ccmp' Glyph Composition/Decomposition in Latin lookup 6 subtable" ohorn tildecomb
EndChar

StartChar: obar
Encoding: 629 629 839
Width: 1241
GlyphClass: 2
Flags: W
AnchorPoint: "Anchor-4" 1179 541 basechar 0
AnchorPoint: "Anchor-1" 621 1087 basechar 0
AnchorPoint: "Anchor-0" 621 0 basechar 0
LayerCount: 2
Fore
SplineSet
975 622 m 1,0,-1
 975 466 l 1,1,-1
 268 466 l 1,2,-1
 268 622 l 1,3,-1
 975 622 l 1,0,-1
621 -22 m 0,4,5
 452 -22 452 -22 326 48.5 c 128,-1,6
 200 119 200 119 131 245.5 c 128,-1,7
 62 372 62 372 62 541 c 0,8,9
 62 712 62 712 131 838.5 c 128,-1,10
 200 965 200 965 326 1035.5 c 128,-1,11
 452 1106 452 1106 621 1106 c 0,12,13
 792 1106 792 1106 917.5 1035.5 c 128,-1,14
 1043 965 1043 965 1111 838.5 c 128,-1,15
 1179 712 1179 712 1179 541 c 0,16,17
 1179 372 1179 372 1111 245.5 c 128,-1,18
 1043 119 1043 119 917.5 48.5 c 128,-1,19
 792 -22 792 -22 621 -22 c 0,4,5
621 249 m 0,20,21
 685 249 685 249 731 284.5 c 128,-1,22
 777 320 777 320 802 386 c 128,-1,23
 827 452 827 452 827 542 c 0,24,25
 827 634 827 634 802 699.5 c 128,-1,26
 777 765 777 765 731 801 c 128,-1,27
 685 837 685 837 621 837 c 0,28,29
 558 837 558 837 511.5 801.5 c 128,-1,30
 465 766 465 766 440 700.5 c 128,-1,31
 415 635 415 635 415 542 c 0,32,33
 415 451 415 451 440 385.5 c 128,-1,34
 465 320 465 320 511.5 284.5 c 128,-1,35
 558 249 558 249 621 249 c 0,20,21
EndSplineSet
EndChar

StartChar: oe.sc
Encoding: 60954 60954 843
Width: 1645
Flags: W
LayerCount: 2
Fore
SplineSet
601 0 m 2,0,1
 429 0 429 0 308.5 70 c 128,-1,2
 188 140 188 140 125 263 c 128,-1,3
 62 386 62 386 62 542 c 2,4,-1
 62 550 l 2,5,6
 62 707 62 707 124.5 828 c 128,-1,7
 187 949 187 949 307 1018 c 128,-1,8
 427 1087 427 1087 598 1087 c 2,9,-1
 989 1087 l 1,10,-1
 989 833 l 1,11,-1
 622 833 l 2,12,13
 555 833 555 833 506 796 c 128,-1,14
 457 759 457 759 430.5 695 c 128,-1,15
 404 631 404 631 404 550 c 2,16,-1
 404 541 l 2,17,18
 404 460 404 460 431 395.5 c 128,-1,19
 458 331 458 331 507.5 294 c 128,-1,20
 557 257 557 257 626 257 c 2,21,-1
 989 257 l 1,22,-1
 989 0 l 1,23,-1
 601 0 l 2,0,1
973 0 m 1,24,-1
 973 257 l 1,25,-1
 1611 257 l 1,26,-1
 1611 0 l 1,27,-1
 973 0 l 1,24,-1
784 0 m 1,28,-1
 784 1087 l 1,29,-1
 1101 1087 l 1,30,-1
 1101 0 l 1,31,-1
 784 0 l 1,28,-1
973 430 m 1,32,-1
 973 670 l 1,33,-1
 1520 670 l 1,34,-1
 1520 430 l 1,35,-1
 973 430 l 1,32,-1
973 833 m 1,36,-1
 973 1087 l 1,37,-1
 1611 1087 l 1,38,-1
 1611 833 l 1,39,-1
 973 833 l 1,36,-1
EndSplineSet
EndChar

StartChar: p
Encoding: 112 112 845
Width: 1278
GlyphClass: 2
Flags: W
AnchorPoint: "Anchor-1" 677 1087 basechar 0
AnchorPoint: "Anchor-0" 281 -411 basechar 0
LayerCount: 2
Fore
SplineSet
106 -418 m 1,0,-1
 106 1087 l 1,1,-1
 448 1087 l 1,2,-1
 448 923 l 1,3,-1
 457 923 l 1,4,5
 484 975 484 975 526 1016.5 c 128,-1,6
 568 1058 568 1058 628.5 1082 c 128,-1,7
 689 1106 689 1106 767 1106 c 0,8,9
 893 1106 893 1106 995 1040 c 128,-1,10
 1097 974 1097 974 1156.5 848.5 c 128,-1,11
 1216 723 1216 723 1216 544 c 0,12,13
 1216 366 1216 366 1158 240 c 128,-1,14
 1100 114 1100 114 998 47 c 128,-1,15
 896 -20 896 -20 765 -20 c 0,16,17
 688 -20 688 -20 628 4.5 c 128,-1,18
 568 29 568 29 525.5 72 c 128,-1,19
 483 115 483 115 458 170 c 1,20,-1
 452 170 l 1,21,-1
 452 -418 l 1,22,-1
 106 -418 l 1,0,-1
656 254 m 0,23,24
 723 254 723 254 768.5 290 c 128,-1,25
 814 326 814 326 838.5 391 c 128,-1,26
 863 456 863 456 863 544 c 0,27,28
 863 633 863 633 838.5 697.5 c 128,-1,29
 814 762 814 762 768 797.5 c 128,-1,30
 722 833 722 833 656 833 c 0,31,32
 591 833 591 833 542.5 797.5 c 128,-1,33
 494 762 494 762 467.5 697 c 128,-1,34
 441 632 441 632 441 544 c 0,35,36
 441 457 441 457 467.5 392 c 128,-1,37
 494 327 494 327 543 290.5 c 128,-1,38
 592 254 592 254 656 254 c 0,23,24
EndSplineSet
Substitution2: "'sups' Superscript in Latin lookup 39 subtable" p.sups
Substitution2: "'subs' Subscript in Latin lookup 38 subtable" p.subs
Substitution2: "'sinf' Scientific Inferiors in Latin lookup 18 subtable" p.subs
AlternateSubs2: "'aalt' Access All Alternates in Latin lookup 1 subtable" p.sups p.subs
EndChar

StartChar: uni048F
Encoding: 1167 1167 846
Width: 1234
GlyphClass: 2
Flags: W
AnchorPoint: "Anchor-1" 686 1087 basechar 0
AnchorPoint: "Anchor-0" 290 -411 basechar 0
LayerCount: 2
Fore
SplineSet
727 466 m 1,0,-1
 1141 -35 l 1,1,-1
 1035 -115 l 1,2,-1
 623 386 l 1,3,-1
 727 466 l 1,0,-1
115 -418 m 1,4,-1
 115 1087 l 1,5,-1
 457 1087 l 1,6,-1
 457 923 l 1,7,-1
 466 923 l 1,8,9
 493 975 493 975 535 1016.5 c 128,-1,10
 577 1058 577 1058 637.5 1082 c 128,-1,11
 698 1106 698 1106 776 1106 c 0,12,13
 902 1106 902 1106 1004 1040 c 128,-1,14
 1106 974 1106 974 1165.5 848.5 c 128,-1,15
 1225 723 1225 723 1225 544 c 0,16,17
 1225 366 1225 366 1167 240 c 128,-1,18
 1109 114 1109 114 1007 47 c 128,-1,19
 905 -20 905 -20 774 -20 c 0,20,21
 697 -20 697 -20 637 4.5 c 128,-1,22
 577 29 577 29 534.5 72 c 128,-1,23
 492 115 492 115 467 170 c 1,24,-1
 461 170 l 1,25,-1
 461 -418 l 1,26,-1
 115 -418 l 1,4,-1
666 254 m 0,27,28
 732 254 732 254 777.5 290 c 128,-1,29
 823 326 823 326 848 391 c 128,-1,30
 873 456 873 456 873 544 c 0,31,32
 873 633 873 633 848 697.5 c 128,-1,33
 823 762 823 762 777 797.5 c 128,-1,34
 731 833 731 833 666 833 c 0,35,36
 600 833 600 833 551.5 797.5 c 128,-1,37
 503 762 503 762 476.5 697 c 128,-1,38
 450 632 450 632 450 544 c 0,39,40
 450 457 450 457 476.5 392 c 128,-1,41
 503 327 503 327 552 290.5 c 128,-1,42
 601 254 601 254 666 254 c 0,27,28
EndSplineSet
EndChar

StartChar: uni01A5
Encoding: 421 421 847
Width: 1278
GlyphClass: 2
Flags: W
AnchorPoint: "Anchor-1" 677 1087 basechar 0
AnchorPoint: "Anchor-0" 281 -411 basechar 0
LayerCount: 2
Fore
SplineSet
106 844 m 1,0,-1
 106 1153 l 2,1,2
 106 1325 106 1325 202.5 1411 c 128,-1,3
 299 1497 299 1497 492 1497 c 0,4,5
 547 1497 547 1497 593.5 1495 c 128,-1,6
 640 1493 640 1493 674 1488 c 1,7,-1
 674 1228 l 1,8,9
 652 1230 652 1230 622 1231 c 128,-1,10
 592 1232 592 1232 560 1232 c 0,11,12
 503 1232 503 1232 477.5 1211.5 c 128,-1,13
 452 1191 452 1191 452 1145 c 2,14,-1
 452 844 l 1,15,-1
 106 844 l 1,0,-1
106 -418 m 1,16,-1
 106 1087 l 1,17,-1
 448 1087 l 1,18,-1
 448 923 l 1,19,-1
 457 923 l 1,20,21
 484 975 484 975 526 1016.5 c 128,-1,22
 568 1058 568 1058 628.5 1082 c 128,-1,23
 689 1106 689 1106 767 1106 c 0,24,25
 893 1106 893 1106 995 1040 c 128,-1,26
 1097 974 1097 974 1156.5 848.5 c 128,-1,27
 1216 723 1216 723 1216 544 c 0,28,29
 1216 366 1216 366 1158 240 c 128,-1,30
 1100 114 1100 114 998 47 c 128,-1,31
 896 -20 896 -20 765 -20 c 0,32,33
 688 -20 688 -20 628 4.5 c 128,-1,34
 568 29 568 29 525.5 72 c 128,-1,35
 483 115 483 115 458 170 c 1,36,-1
 452 170 l 1,37,-1
 452 -418 l 1,38,-1
 106 -418 l 1,16,-1
656 254 m 0,39,40
 723 254 723 254 768.5 290 c 128,-1,41
 814 326 814 326 838.5 391 c 128,-1,42
 863 456 863 456 863 544 c 0,43,44
 863 633 863 633 838.5 697.5 c 128,-1,45
 814 762 814 762 768 797.5 c 128,-1,46
 722 833 722 833 656 833 c 0,47,48
 591 833 591 833 542.5 797.5 c 128,-1,49
 494 762 494 762 467.5 697 c 128,-1,50
 441 632 441 632 441 544 c 0,51,52
 441 457 441 457 467.5 392 c 128,-1,53
 494 327 494 327 543 290.5 c 128,-1,54
 592 254 592 254 656 254 c 0,39,40
EndSplineSet
EndChar

StartChar: q
Encoding: 113 113 851
Width: 1278
GlyphClass: 2
Flags: W
AnchorPoint: "Anchor-1" 639 1087 basechar 0
AnchorPoint: "Anchor-0" 999 -411 basechar 0
LayerCount: 2
Fore
SplineSet
1173 -418 m 1,0,-1
 826 -418 l 1,1,-1
 826 170 l 1,2,-1
 820 170 l 1,3,4
 796 115 796 115 754 72 c 128,-1,5
 712 29 712 29 652.5 4.5 c 128,-1,6
 593 -20 593 -20 515 -20 c 0,7,8
 384 -20 384 -20 281.5 47 c 128,-1,9
 179 114 179 114 120.5 240 c 128,-1,10
 62 366 62 366 62 544 c 0,11,12
 62 723 62 723 122.5 848.5 c 128,-1,13
 183 974 183 974 284.5 1040 c 128,-1,14
 386 1106 386 1106 511 1106 c 0,15,16
 591 1106 591 1106 651 1082 c 128,-1,17
 711 1058 711 1058 753.5 1016.5 c 128,-1,18
 796 975 796 975 822 923 c 1,19,-1
 830 923 l 1,20,-1
 830 1087 l 1,21,-1
 1173 1087 l 1,22,-1
 1173 -418 l 1,0,-1
623 254 m 256,23,24
 688 254 688 254 736.5 290.5 c 128,-1,25
 785 327 785 327 811 392 c 128,-1,26
 837 457 837 457 837 544 c 0,27,28
 837 632 837 632 811 697 c 128,-1,29
 785 762 785 762 737 797.5 c 128,-1,30
 689 833 689 833 623 833 c 0,31,32
 558 833 558 833 511.5 797.5 c 128,-1,33
 465 762 465 762 440.5 697.5 c 128,-1,34
 416 633 416 633 416 544 c 0,35,36
 416 456 416 456 440.5 391 c 128,-1,37
 465 326 465 326 511.5 290 c 128,-1,38
 558 254 558 254 623 254 c 256,23,24
EndSplineSet
Substitution2: "'sups' Superscript in Latin lookup 39 subtable" q.sups
Substitution2: "'subs' Subscript in Latin lookup 38 subtable" q.subs
Substitution2: "'sinf' Scientific Inferiors in Latin lookup 18 subtable" q.subs
AlternateSubs2: "'aalt' Access All Alternates in Latin lookup 1 subtable" q.sups q.subs
EndChar

StartChar: uni02A0
Encoding: 672 672 852
Width: 1278
GlyphClass: 2
Flags: W
AnchorPoint: "Anchor-1" 639 1087 basechar 0
AnchorPoint: "Anchor-0" 999 -411 basechar 0
LayerCount: 2
Fore
SplineSet
825 844 m 1,0,-1
 825 1153 l 2,1,2
 825 1325 825 1325 921.5 1411 c 128,-1,3
 1018 1497 1018 1497 1211 1497 c 0,4,5
 1266 1497 1266 1497 1313 1495 c 128,-1,6
 1360 1493 1360 1493 1393 1488 c 1,7,-1
 1393 1228 l 1,8,9
 1372 1230 1372 1230 1341.5 1231 c 128,-1,10
 1311 1232 1311 1232 1279 1232 c 0,11,12
 1223 1232 1223 1232 1197.5 1211.5 c 128,-1,13
 1172 1191 1172 1191 1172 1145 c 2,14,-1
 1172 844 l 1,15,-1
 825 844 l 1,0,-1
1173 -418 m 1,16,-1
 826 -418 l 1,17,-1
 826 170 l 1,18,-1
 820 170 l 1,19,20
 796 115 796 115 754 72 c 128,-1,21
 712 29 712 29 652.5 4.5 c 128,-1,22
 593 -20 593 -20 515 -20 c 0,23,24
 384 -20 384 -20 281.5 47 c 128,-1,25
 179 114 179 114 120.5 240 c 128,-1,26
 62 366 62 366 62 544 c 0,27,28
 62 723 62 723 122.5 848.5 c 128,-1,29
 183 974 183 974 284.5 1040 c 128,-1,30
 386 1106 386 1106 511 1106 c 0,31,32
 591 1106 591 1106 651 1082 c 128,-1,33
 711 1058 711 1058 753.5 1016.5 c 128,-1,34
 796 975 796 975 822 923 c 1,35,-1
 830 923 l 1,36,-1
 830 1087 l 1,37,-1
 1173 1087 l 1,38,-1
 1173 -418 l 1,16,-1
623 254 m 256,39,40
 688 254 688 254 736.5 290.5 c 128,-1,41
 785 327 785 327 811 392 c 128,-1,42
 837 457 837 457 837 544 c 0,43,44
 837 632 837 632 811 697 c 128,-1,45
 785 762 785 762 737 797.5 c 128,-1,46
 689 833 689 833 623 833 c 0,47,48
 558 833 558 833 511.5 797.5 c 128,-1,49
 465 762 465 762 440.5 697.5 c 128,-1,50
 416 633 416 633 416 544 c 0,51,52
 416 456 416 456 440.5 391 c 128,-1,53
 465 326 465 326 511.5 290 c 128,-1,54
 558 254 558 254 623 254 c 256,39,40
EndSplineSet
EndChar

StartChar: qrthook
Encoding: 587 587 853
Width: 1276
GlyphClass: 2
Flags: W
AnchorPoint: "Anchor-4" 1171 0 basechar 0
AnchorPoint: "Anchor-1" 633 1087 basechar 0
AnchorPoint: "Anchor-0" 636 0 basechar 0
LayerCount: 2
Fore
SplineSet
1207 -427 m 0,0,1
 1013 -427 1013 -427 920 -340.5 c 128,-1,2
 827 -254 827 -254 827 -83 c 2,3,-1
 827 203 l 1,4,-1
 1171 203 l 1,5,-1
 1171 -74 l 2,6,7
 1171 -121 1171 -121 1195 -141.5 c 128,-1,8
 1219 -162 1219 -162 1274 -162 c 0,9,10
 1307 -162 1307 -162 1337 -161.5 c 128,-1,11
 1367 -161 1367 -161 1388 -159 c 1,12,-1
 1388 -417 l 1,13,14
 1355 -422 1355 -422 1308.5 -424.5 c 128,-1,15
 1262 -427 1262 -427 1207 -427 c 0,0,1
514 -20 m 0,16,17
 384 -20 384 -20 282 47 c 128,-1,18
 180 114 180 114 121 240 c 128,-1,19
 62 366 62 366 62 544 c 0,20,21
 62 723 62 723 122.5 848.5 c 128,-1,22
 183 974 183 974 285 1040 c 128,-1,23
 387 1106 387 1106 512 1106 c 0,24,25
 592 1106 592 1106 651.5 1081.5 c 128,-1,26
 711 1057 711 1057 753.5 1016 c 128,-1,27
 796 975 796 975 823 923 c 1,28,-1
 830 923 l 1,29,-1
 830 1087 l 1,30,-1
 1171 1087 l 1,31,-1
 1171 0 l 1,32,-1
 830 0 l 1,33,-1
 830 170 l 1,34,-1
 823 170 l 1,35,36
 799 115 799 115 756 72.5 c 128,-1,37
 713 30 713 30 652.5 5 c 128,-1,38
 592 -20 592 -20 514 -20 c 0,16,17
623 254 m 256,39,40
 689 254 689 254 737 290.5 c 128,-1,41
 785 327 785 327 811 392 c 128,-1,42
 837 457 837 457 837 544 c 0,43,44
 837 632 837 632 811 697 c 128,-1,45
 785 762 785 762 737.5 797.5 c 128,-1,46
 690 833 690 833 623 833 c 0,47,48
 558 833 558 833 511.5 797.5 c 128,-1,49
 465 762 465 762 440.5 698 c 128,-1,50
 416 634 416 634 416 544 c 0,51,52
 416 456 416 456 440.5 391 c 128,-1,53
 465 326 465 326 511 290 c 128,-1,54
 557 254 557 254 623 254 c 256,39,40
EndSplineSet
EndChar

StartChar: r
Encoding: 114 114 854
Width: 834
GlyphClass: 2
Flags: W
AnchorPoint: "Anchor-1" 456 1087 basechar 0
AnchorPoint: "Anchor-0" 281 0 basechar 0
LayerCount: 2
Fore
SplineSet
106 0 m 1,0,-1
 106 1087 l 1,1,-1
 441 1087 l 1,2,-1
 441 892 l 1,3,-1
 449 892 l 1,4,5
 479 999 479 999 544.5 1047.5 c 128,-1,6
 610 1096 610 1096 709 1096 c 0,7,8
 735 1096 735 1096 759.5 1094 c 128,-1,9
 784 1092 784 1092 806 1090 c 1,10,-1
 806 795 l 1,11,12
 784 801 784 801 743.5 803.5 c 128,-1,13
 703 806 703 806 669 806 c 0,14,15
 606 806 606 806 557 778 c 128,-1,16
 508 750 508 750 480 698.5 c 128,-1,17
 452 647 452 647 452 575 c 2,18,-1
 452 0 l 1,19,-1
 106 0 l 1,0,-1
EndSplineSet
Substitution2: "'smcp' Lowercase to Small Capitals in Latin lookup 69 subtable" r.sc
Substitution2: "'c2sc' Capitals to Small Capitals in Latin lookup 68 subtable" r.sc
Substitution2: "'sups' Superscript in Latin lookup 39 subtable" r.sups
Substitution2: "'subs' Subscript in Latin lookup 38 subtable" r.subs
Substitution2: "'sinf' Scientific Inferiors in Latin lookup 18 subtable" r.subs
AlternateSubs2: "'aalt' Access All Alternates in Latin lookup 1 subtable" r.sc r.sups r.subs
EndChar

StartChar: rrthook
Encoding: 57437 57437 855
Width: 834
GlyphClass: 2
Flags: W
AnchorPoint: "Anchor-1" 456 1087 basechar 0
AnchorPoint: "Anchor-0" 281 0 basechar 0
LayerCount: 2
Fore
SplineSet
488 -427 m 0,0,1
 295 -427 295 -427 200.5 -340.5 c 128,-1,2
 106 -254 106 -254 106 -83 c 2,3,-1
 106 0 l 1,4,-1
 452 0 l 1,5,-1
 452 -74 l 2,6,7
 452 -121 452 -121 476.5 -141.5 c 128,-1,8
 501 -162 501 -162 556 -162 c 0,9,10
 588 -162 588 -162 618.5 -161.5 c 128,-1,11
 649 -161 649 -161 671 -159 c 1,12,-1
 671 -417 l 1,13,14
 637 -422 637 -422 590.5 -424.5 c 128,-1,15
 544 -427 544 -427 488 -427 c 0,0,1
106 0 m 1,16,-1
 106 1087 l 1,17,-1
 441 1087 l 1,18,-1
 441 892 l 1,19,-1
 449 892 l 1,20,21
 479 999 479 999 544.5 1047.5 c 128,-1,22
 610 1096 610 1096 709 1096 c 0,23,24
 735 1096 735 1096 759.5 1094 c 128,-1,25
 784 1092 784 1092 806 1090 c 1,26,-1
 806 795 l 1,27,28
 784 801 784 801 743.5 803.5 c 128,-1,29
 703 806 703 806 669 806 c 0,30,31
 606 806 606 806 557 778 c 128,-1,32
 508 750 508 750 480 698.5 c 128,-1,33
 452 647 452 647 452 575 c 2,34,-1
 452 0 l 1,35,-1
 106 0 l 1,16,-1
EndSplineSet
EndChar

StartChar: rturn
Encoding: 633 633 857
Width: 834
GlyphClass: 2
Flags: W
AnchorPoint: "Anchor-1" 557 1087 basechar 0
AnchorPoint: "Anchor-0" 422 0 basechar 0
LayerCount: 2
Fore
SplineSet
728 1087 m 1,0,-1
 728 0 l 1,1,-1
 392 0 l 1,2,-1
 392 195 l 1,3,-1
 385 195 l 1,4,5
 356 91 356 91 289.5 41 c 128,-1,6
 223 -9 223 -9 125 -9 c 0,7,8
 100 -9 100 -9 75 -6.5 c 128,-1,9
 50 -4 50 -4 28 -1 c 1,10,-1
 28 292 l 1,11,12
 50 287 50 287 90.5 284 c 128,-1,13
 131 281 131 281 165 281 c 0,14,15
 229 281 229 281 277.5 309.5 c 128,-1,16
 326 338 326 338 354 389.5 c 128,-1,17
 382 441 382 441 382 512 c 2,18,-1
 382 1087 l 1,19,-1
 728 1087 l 1,0,-1
EndSplineSet
EndChar

StartChar: rturnrthook
Encoding: 635 635 858
Width: 834
GlyphClass: 2
Flags: W
AnchorPoint: "Anchor-1" 557 1087 basechar 0
AnchorPoint: "Anchor-0" 422 0 basechar 0
LayerCount: 2
Fore
SplineSet
733 -427 m 0,0,1
 562 -427 562 -427 476 -345.5 c 128,-1,2
 390 -264 390 -264 390 -107 c 2,3,-1
 390 0 l 1,4,-1
 726 0 l 1,5,-1
 726 -86 l 2,6,7
 726 -128 726 -128 748.5 -147 c 128,-1,8
 771 -166 771 -166 823 -166 c 0,9,10
 854 -166 854 -166 888.5 -165 c 128,-1,11
 923 -164 923 -164 944 -163 c 1,12,-1
 944 -417 l 1,13,14
 922 -421 922 -421 886.5 -423 c 128,-1,15
 851 -425 851 -425 810.5 -426 c 128,-1,16
 770 -427 770 -427 733 -427 c 0,0,1
728 1087 m 1,17,-1
 728 0 l 1,18,-1
 392 0 l 1,19,-1
 392 195 l 1,20,-1
 385 195 l 1,21,22
 356 91 356 91 289.5 41 c 128,-1,23
 223 -9 223 -9 125 -9 c 0,24,25
 100 -9 100 -9 75 -6.5 c 128,-1,26
 50 -4 50 -4 28 -1 c 1,27,-1
 28 292 l 1,28,29
 50 287 50 287 90.5 284 c 128,-1,30
 131 281 131 281 165 281 c 0,31,32
 229 281 229 281 277.5 309.5 c 128,-1,33
 326 338 326 338 354 389.5 c 128,-1,34
 382 441 382 441 382 512 c 2,35,-1
 382 1087 l 1,36,-1
 728 1087 l 1,17,-1
EndSplineSet
EndChar

StartChar: rfishhookrev
Encoding: 639 639 859
Width: 796
Flags: W
LayerCount: 2
Fore
SplineSet
690 0 m 1,0,-1
 344 0 l 1,1,-1
 344 610 l 2,2,3
 344 679 344 679 320.5 723 c 128,-1,4
 297 767 297 767 254 788.5 c 128,-1,5
 211 810 211 810 153 810 c 0,6,7
 119 810 119 810 85.5 809 c 128,-1,8
 52 808 52 808 28 806 c 1,9,-1
 28 1089 l 1,10,11
 43 1091 43 1091 67.5 1092 c 128,-1,12
 92 1093 92 1093 121 1094 c 128,-1,13
 150 1095 150 1095 177 1095 c 0,14,15
 338 1095 338 1095 453 1045 c 128,-1,16
 568 995 568 995 629 894 c 128,-1,17
 690 793 690 793 690 641 c 2,18,-1
 690 0 l 1,0,-1
EndSplineSet
EndChar

StartChar: uni027E
Encoding: 638 638 860
Width: 796
Flags: W
LayerCount: 2
Fore
SplineSet
106 0 m 1,0,-1
 106 641 l 2,1,2
 106 793 106 793 167 894 c 128,-1,3
 228 995 228 995 343.5 1045 c 128,-1,4
 459 1095 459 1095 620 1095 c 0,5,6
 647 1095 647 1095 676 1094 c 128,-1,7
 705 1093 705 1093 729 1092 c 128,-1,8
 753 1091 753 1091 768 1089 c 1,9,-1
 768 806 l 1,10,11
 745 808 745 808 711 809 c 128,-1,12
 677 810 677 810 643 810 c 0,13,14
 586 810 586 810 543.5 788.5 c 128,-1,15
 501 767 501 767 476.5 723 c 128,-1,16
 452 679 452 679 452 610 c 2,17,-1
 452 0 l 1,18,-1
 106 0 l 1,0,-1
EndSplineSet
EndChar

StartChar: rdescend
Encoding: 57438 57438 861
Width: 834
GlyphClass: 2
Flags: W
AnchorPoint: "Anchor-1" 456 1087 basechar 0
AnchorPoint: "Anchor-0" 281 0 basechar 0
LayerCount: 2
Fore
SplineSet
106 -418 m 1,0,-1
 106 0 l 1,1,-1
 452 0 l 1,2,-1
 452 -418 l 1,3,-1
 106 -418 l 1,0,-1
106 0 m 1,4,-1
 106 1087 l 1,5,-1
 441 1087 l 1,6,-1
 441 892 l 1,7,-1
 449 892 l 1,8,9
 479 999 479 999 544.5 1047.5 c 128,-1,10
 610 1096 610 1096 709 1096 c 0,11,12
 735 1096 735 1096 759.5 1094 c 128,-1,13
 784 1092 784 1092 806 1090 c 1,14,-1
 806 795 l 1,15,16
 784 801 784 801 743.5 803.5 c 128,-1,17
 703 806 703 806 669 806 c 0,18,19
 606 806 606 806 557 778 c 128,-1,20
 508 750 508 750 480 698.5 c 128,-1,21
 452 647 452 647 452 575 c 2,22,-1
 452 0 l 1,23,-1
 106 0 l 1,4,-1
EndSplineSet
EndChar

StartChar: r.sc
Encoding: 60955 60955 871
Width: 1185
Flags: W
LayerCount: 2
Fore
SplineSet
106 0 m 1,0,-1
 106 1087 l 1,1,-1
 653 1087 l 2,2,3
 872 1087 872 1087 996 984.5 c 128,-1,4
 1120 882 1120 882 1120 706 c 0,5,6
 1120 538 1120 538 993 440.5 c 128,-1,7
 866 343 866 343 641 343 c 2,8,-1
 296 343 l 1,9,-1
 296 582 l 1,10,-1
 599 582 l 2,11,12
 690 582 690 582 734 610.5 c 128,-1,13
 778 639 778 639 778 701 c 0,14,15
 778 764 778 764 736 793.5 c 128,-1,16
 694 823 694 823 604 823 c 2,17,-1
 433 823 l 1,18,-1
 433 0 l 1,19,-1
 106 0 l 1,0,-1
792 0 m 1,20,-1
 483 487 l 1,21,-1
 849 487 l 1,22,-1
 1166 0 l 1,23,-1
 792 0 l 1,20,-1
EndSplineSet
EndChar

StartChar: rinv.sc
Encoding: 60956 60956 872
Width: 1185
Flags: W
LayerCount: 2
Fore
SplineSet
106 0 m 1,0,-1
 106 1087 l 1,1,-1
 433 1087 l 1,2,-1
 433 266 l 1,3,-1
 604 266 l 2,4,5
 694 266 694 266 736 295.5 c 128,-1,6
 778 325 778 325 778 387 c 0,7,8
 778 448 778 448 734 477.5 c 128,-1,9
 690 507 690 507 599 507 c 2,10,-1
 296 507 l 1,11,-1
 296 744 l 1,12,-1
 641 744 l 2,13,14
 865 744 865 744 992.5 648 c 128,-1,15
 1120 552 1120 552 1120 383 c 0,16,17
 1120 206 1120 206 996 103 c 128,-1,18
 872 0 872 0 653 0 c 2,19,-1
 106 0 l 1,0,-1
483 600 m 1,20,-1
 792 1087 l 1,21,-1
 1166 1087 l 1,22,-1
 849 600 l 1,23,-1
 483 600 l 1,20,-1
EndSplineSet
EndChar

StartChar: s
Encoding: 115 115 873
Width: 1139
GlyphClass: 2
Flags: W
AnchorPoint: "Anchor-3" 574 0 basechar 0
AnchorPoint: "Anchor-1" 571 1087 basechar 0
AnchorPoint: "Anchor-0" 572 0 basechar 0
LayerCount: 2
Fore
SplineSet
575 -23 m 0,0,1
 429 -23 429 -23 318 19.5 c 128,-1,2
 207 62 207 62 139 141 c 128,-1,3
 71 220 71 220 56 330 c 1,4,-1
 388 354 l 1,5,6
 402 289 402 289 449.5 253.5 c 128,-1,7
 497 218 497 218 578 218 c 0,8,9
 651 218 651 218 692 243 c 128,-1,10
 733 268 733 268 733 310 c 0,11,12
 733 346 733 346 699.5 368.5 c 128,-1,13
 666 391 666 391 600 404 c 2,14,-1
 406 440 l 2,15,16
 246 470 246 470 163.5 550 c 128,-1,17
 81 630 81 630 81 756 c 0,18,19
 81 865 81 865 140.5 942.5 c 128,-1,20
 200 1020 200 1020 308 1062.5 c 128,-1,21
 416 1105 416 1105 565 1105 c 0,22,23
 708 1105 708 1105 814 1064 c 128,-1,24
 920 1023 920 1023 981.5 948 c 128,-1,25
 1043 873 1043 873 1054 769 c 1,26,-1
 743 744 l 1,27,28
 735 800 735 800 689 833.5 c 128,-1,29
 643 867 643 867 573 867 c 0,30,31
 509 867 509 867 468 841.5 c 128,-1,32
 427 816 427 816 427 775 c 0,33,34
 427 742 427 742 455.5 718 c 128,-1,35
 484 694 484 694 547 682 c 2,36,-1
 761 642 l 2,37,38
 926 612 926 612 1005.5 539.5 c 128,-1,39
 1085 467 1085 467 1085 348 c 0,40,41
 1085 236 1085 236 1020 152.5 c 128,-1,42
 955 69 955 69 840 23 c 128,-1,43
 725 -23 725 -23 575 -23 c 0,0,1
EndSplineSet
Substitution2: "'sups' Superscript in Latin lookup 39 subtable" s.sups
Substitution2: "'subs' Subscript in Latin lookup 38 subtable" s.subs
Substitution2: "'sinf' Scientific Inferiors in Latin lookup 18 subtable" s.subs
AlternateSubs2: "'aalt' Access All Alternates in Latin lookup 1 subtable" s.sups s.subs
EndChar

StartChar: srthook
Encoding: 642 642 874
Width: 1139
GlyphClass: 2
Flags: W
AnchorPoint: "Anchor-3" 574 0 basechar 0
AnchorPoint: "Anchor-1" 571 1087 basechar 0
AnchorPoint: "Anchor-0" 572 0 basechar 0
LayerCount: 2
Fore
SplineSet
404 -427 m 0,0,1
 233 -427 233 -427 144.5 -346 c 128,-1,2
 56 -265 56 -265 56 -107 c 2,3,-1
 56 330 l 1,4,-1
 364 338 l 1,5,-1
 364 -86 l 2,6,7
 364 -128 364 -128 390.5 -147.5 c 128,-1,8
 417 -167 417 -167 474 -167 c 0,9,10
 495 -167 495 -167 523.5 -166 c 128,-1,11
 552 -165 552 -165 579 -164 c 128,-1,12
 606 -163 606 -163 621 -163 c 1,13,-1
 621 -418 l 1,14,15
 598 -421 598 -421 561.5 -423.5 c 128,-1,16
 525 -426 525 -426 483 -426.5 c 128,-1,17
 441 -427 441 -427 404 -427 c 0,0,1
575 -23 m 0,18,19
 429 -23 429 -23 318 19.5 c 128,-1,20
 207 62 207 62 139 141 c 128,-1,21
 71 220 71 220 56 330 c 1,22,-1
 388 354 l 1,23,24
 402 289 402 289 449.5 253.5 c 128,-1,25
 497 218 497 218 578 218 c 0,26,27
 651 218 651 218 692 243 c 128,-1,28
 733 268 733 268 733 310 c 0,29,30
 733 346 733 346 699.5 368.5 c 128,-1,31
 666 391 666 391 600 404 c 2,32,-1
 406 440 l 2,33,34
 246 470 246 470 163.5 550 c 128,-1,35
 81 630 81 630 81 756 c 0,36,37
 81 865 81 865 140.5 942.5 c 128,-1,38
 200 1020 200 1020 308 1062.5 c 128,-1,39
 416 1105 416 1105 565 1105 c 0,40,41
 708 1105 708 1105 814 1064 c 128,-1,42
 920 1023 920 1023 981.5 948 c 128,-1,43
 1043 873 1043 873 1054 769 c 1,44,-1
 743 744 l 1,45,46
 735 800 735 800 689 833.5 c 128,-1,47
 643 867 643 867 573 867 c 0,48,49
 509 867 509 867 468 841.5 c 128,-1,50
 427 816 427 816 427 775 c 0,51,52
 427 742 427 742 455.5 718 c 128,-1,53
 484 694 484 694 547 682 c 2,54,-1
 761 642 l 2,55,56
 926 612 926 612 1005.5 539.5 c 128,-1,57
 1085 467 1085 467 1085 348 c 0,58,59
 1085 236 1085 236 1020 152.5 c 128,-1,60
 955 69 955 69 840 23 c 128,-1,61
 725 -23 725 -23 575 -23 c 0,18,19
EndSplineSet
EndChar

StartChar: uni023F
Encoding: 575 575 875
Width: 1139
GlyphClass: 2
Flags: W
AnchorPoint: "Anchor-3" 574 0 basechar 0
AnchorPoint: "Anchor-1" 571 1087 basechar 0
AnchorPoint: "Anchor-0" 572 0 basechar 0
LayerCount: 2
Fore
SplineSet
324 299 m 1,0,1
 406 137 406 137 461.5 39.5 c 128,-1,2
 517 -58 517 -58 555 -107 c 128,-1,3
 593 -156 593 -156 624.5 -172.5 c 128,-1,4
 656 -189 656 -189 690 -189 c 0,5,6
 758 -189 758 -189 807 -162.5 c 128,-1,7
 856 -136 856 -136 892 -107 c 1,8,-1
 991 -280 l 1,9,10
 936 -326 936 -326 859 -372 c 128,-1,11
 782 -418 782 -418 678 -418 c 0,12,13
 580 -418 580 -418 509.5 -374 c 128,-1,14
 439 -330 439 -330 388 -263.5 c 128,-1,15
 337 -197 337 -197 294 -127 c 2,16,-1
 108 192 l 1,17,-1
 324 299 l 1,0,1
575 -23 m 0,18,19
 429 -23 429 -23 318 19.5 c 128,-1,20
 207 62 207 62 139 141 c 128,-1,21
 71 220 71 220 56 330 c 1,22,-1
 388 354 l 1,23,24
 402 289 402 289 449.5 253.5 c 128,-1,25
 497 218 497 218 578 218 c 0,26,27
 651 218 651 218 692 243 c 128,-1,28
 733 268 733 268 733 310 c 0,29,30
 733 346 733 346 699.5 368.5 c 128,-1,31
 666 391 666 391 600 404 c 2,32,-1
 406 440 l 2,33,34
 246 470 246 470 163.5 550 c 128,-1,35
 81 630 81 630 81 756 c 0,36,37
 81 865 81 865 140.5 942.5 c 128,-1,38
 200 1020 200 1020 308 1062.5 c 128,-1,39
 416 1105 416 1105 565 1105 c 0,40,41
 708 1105 708 1105 814 1064 c 128,-1,42
 920 1023 920 1023 981.5 948 c 128,-1,43
 1043 873 1043 873 1054 769 c 1,44,-1
 743 744 l 1,45,46
 735 800 735 800 689 833.5 c 128,-1,47
 643 867 643 867 573 867 c 0,48,49
 509 867 509 867 468 841.5 c 128,-1,50
 427 816 427 816 427 775 c 0,51,52
 427 742 427 742 455.5 718 c 128,-1,53
 484 694 484 694 547 682 c 2,54,-1
 761 642 l 2,55,56
 926 612 926 612 1005.5 539.5 c 128,-1,57
 1085 467 1085 467 1085 348 c 0,58,59
 1085 236 1085 236 1020 152.5 c 128,-1,60
 955 69 955 69 840 23 c 128,-1,61
 725 -23 725 -23 575 -23 c 0,18,19
EndSplineSet
EndChar

